<svg width="73" height="72" viewBox="0 0 73 72" fill="none" xmlns="http://www.w3.org/2000/svg">
<path d="M61.0631 24.6891C60.7289 23.5153 60.6347 23.4617 59.418 23.3846C57.58 23.2689 55.7443 23.149 53.9342 23.0012C52.9188 22.9198 52.9424 22.8962 53.0559 21.9044C53.3258 19.6338 53.5571 17.3524 53.8185 15.0003C53.7906 14.6126 53.5314 14.2806 53.1609 14.1606C50.1662 12.6976 47.1759 11.2259 44.1899 9.74576C43.7401 9.48228 43.1681 9.57224 42.819 9.95996C41.086 11.6479 39.3316 13.3102 37.5987 15.0003C37.4873 15.1674 37.3009 15.2681 37.0996 15.2681C36.8982 15.2681 36.7119 15.1674 36.6005 15.0003C34.724 13.1453 32.8282 11.3202 30.9412 9.47816C30.3928 8.92978 30.1357 8.87406 29.4546 9.20397C26.4556 10.6413 23.4822 12.0936 20.4941 13.5139C20.0228 13.7024 19.7615 14.2036 19.875 14.6985C20.1385 17.117 20.3677 19.5461 20.6376 21.9645C20.7019 22.1552 20.6655 22.3651 20.5391 22.5215C20.4148 22.6778 20.2178 22.7592 20.0185 22.7378C17.3538 23.0784 14.6933 23.4511 12.0287 23.8346C11.5424 23.8538 11.1418 24.2201 11.0797 24.7C10.3835 27.9024 9.68089 31.122 8.98473 34.3525C8.81336 35.1536 8.90762 35.3443 9.58235 35.7792L15.6145 39.575C16.1629 39.9092 16.1629 40.0141 15.8501 40.5668L11.8851 47.3875C11.4909 48.0623 11.5124 48.2872 12.0115 48.8849L18.3178 56.4574C18.4399 56.6952 18.6584 56.8709 18.9155 56.9415C19.1747 57.0122 19.451 56.9737 19.678 56.8302L26.3293 54.4182C27.1026 54.1376 27.1455 54.1547 27.4261 54.9001C28.3793 57.2907 29.3454 59.6813 30.2729 62.085C30.4207 62.6612 30.9627 63.0468 31.556 62.9954H41.3067C42.1572 62.9954 42.3221 62.8519 42.5791 62.0358C43.3246 59.6666 44.0765 57.2974 44.8048 54.9068C44.8112 54.714 44.9183 54.5405 45.0875 54.4463C45.2546 54.3542 45.4603 54.3542 45.6274 54.4506C48.0951 55.1918 50.5628 55.8986 53.0414 56.6441C54.0503 56.9397 54.2089 56.8904 54.8172 56.0572L60.5324 48.2663C60.9651 47.6751 60.9651 47.4331 60.5324 46.8075C59.1936 44.8175 57.8677 42.8211 56.5139 40.8352H56.5117C56.3704 40.6895 56.3082 40.4817 56.3511 40.2804C56.3918 40.0811 56.531 39.9141 56.7217 39.8369C58.8723 38.3182 61.0037 36.7716 63.1437 35.2314C63.7478 34.7987 63.8463 34.546 63.6921 33.9097C62.8095 30.8315 61.9334 27.7575 61.0637 24.6904L61.0631 24.6891ZM36.1892 46.1806C32.5005 46.1806 29.0904 44.2121 27.2457 41.0181C25.4013 37.8221 25.4013 33.887 27.2457 30.6911C29.0901 27.4972 32.5003 25.5286 36.1892 25.5286C39.8781 25.5286 43.288 27.4972 45.1327 30.6911C46.9771 33.8871 46.9771 37.8222 45.1327 41.0181C43.2883 44.212 39.8781 46.1806 36.1892 46.1806Z" stroke="url(#paint0_linear_2613_16561)" stroke-width="1.5" stroke-linejoin="bevel"/>
<defs>
<linearGradient id="paint0_linear_2613_16561" x1="8.91016" y1="36" x2="63.7568" y2="36" gradientUnits="userSpaceOnUse">
<stop stop-color="#2F6298"/>
<stop offset="1" stop-color="#438DB0"/>
</linearGradient>
</defs>
</svg>