<svg width="32" height="32" viewBox="0 0 32 32" fill="none" xmlns="http://www.w3.org/2000/svg">
<path d="M19.9766 9.35449C19.9766 9.35449 20.6432 10.0212 21.3099 11.3545C21.3099 11.3545 23.4275 8.02116 25.3099 7.35449" stroke="#0827C4" stroke-width="1.5" stroke-linecap="round" stroke-linejoin="round"/>
<path d="M13.3164 2.69531H5.33854C3.86578 2.69531 2.67188 3.88922 2.67188 5.36198V26.4693C2.67188 27.942 3.86578 29.1359 5.33854 29.1359H24.0066C25.4794 29.1359 26.6733 27.942 26.6733 26.4693V18.6878" stroke="#0827C4" stroke-width="1.5" stroke-linecap="round" stroke-linejoin="round"/>
<path d="M29.3461 9.35417C29.3461 13.0361 26.3585 16.0209 22.6731 16.0209C18.9876 16.0209 16 13.0361 16 9.35417C16 5.67227 18.9876 2.6875 22.6731 2.6875C26.3585 2.6875 29.3461 5.67227 29.3461 9.35417Z" stroke="#0827C4" stroke-width="1.5" stroke-linecap="round"/>
<path d="M9.3125 17.3545H14.6458" stroke="#0827C4" stroke-width="1.5" stroke-linecap="round"/>
<path d="M9.3125 22.6865H19.9791" stroke="#0827C4" stroke-width="1.5" stroke-linecap="round"/>
</svg>
