<svg width="72" height="72" viewBox="0 0 72 72" fill="none" xmlns="http://www.w3.org/2000/svg">
<path d="M53.1097 44.2896V38.4255H35.4648V35.4912H42.7949V27.5684C42.7949 24.3127 41.0168 21.4646 38.3807 19.9441C39.5936 18.7867 40.3516 17.1565 40.3516 15.3516C40.3516 11.8493 37.5022 9 34 9C30.4978 9 27.6484 11.8493 27.6484 15.3516C27.6484 17.1564 28.4064 18.7867 29.6193 19.9441C26.9832 21.4646 25.2051 24.3127 25.2051 27.5684V35.4912H32.5352V38.4256H14.8903V44.2896H9V59H23.7104V44.2896H17.82V41.3552H32.5352V44.2896H26.6448V59H41.3553V44.2896H35.4648V41.3552H50.18V44.2896H44.2896V59H59V44.2896H53.1097ZM30.5781 15.3516C30.5781 13.4647 32.1132 11.9297 34 11.9297C35.8868 11.9297 37.4219 13.4647 37.4219 15.3516C37.4219 17.2384 35.8868 18.7734 34 18.7734C32.1132 18.7734 30.5781 17.2384 30.5781 15.3516ZM28.1348 27.5684C28.1348 24.3343 30.7659 21.7031 34 21.7031C37.2341 21.7031 39.8652 24.3342 39.8652 27.5684V32.5615H28.1348V27.5684ZM20.7808 56.0703H11.9297V47.2192H20.7808V56.0703ZM38.4255 56.0703H29.5744V47.2192H38.4255V56.0703ZM56.0703 56.0703H47.2192V47.2192H56.0703V56.0703Z" fill="#0827C4"/>
<path fill-rule="evenodd" clip-rule="evenodd" d="M52.2097 45.1895V39.3255H34.5648V34.5912H41.8949V27.5684C41.8949 24.6484 40.3008 22.0907 37.931 20.7238L36.8895 20.123L37.7593 19.293C38.8027 18.2974 39.4516 16.8991 39.4516 15.3516C39.4516 12.3464 37.0052 9.9 34 9.9C30.9948 9.9 28.5484 12.3464 28.5484 15.3516C28.5484 16.899 29.1973 18.2974 30.2407 19.293L31.1105 20.123L30.069 20.7238C27.6992 22.0907 26.1051 24.6484 26.1051 27.5684V34.5912H33.4352V39.3256H15.7903V45.1896H9.9V58.1H22.8104V45.1895H16.92V40.4552H33.4352V45.1895H27.5448V58.1H40.4553V45.1895H34.5648V40.4552H51.08V45.1895H45.1896V58.1H58.1V45.1895H52.2097ZM59 44.2896V59H44.2896V44.2896H50.18V41.3552H35.4648V44.2896H41.3553V59H26.6448V44.2896H32.5352V41.3552H17.82V44.2896H23.7104V59H9V44.2896H14.8903V38.4256H32.5352V35.4912H25.2051V27.5684C25.2051 24.6423 26.6414 22.0456 28.846 20.4459C29.0943 20.2657 29.3524 20.0981 29.6193 19.9441C29.3976 19.7325 29.1911 19.5051 29.0016 19.2637C28.1546 18.1848 27.6484 16.8265 27.6484 15.3516C27.6484 11.8493 30.4978 9 34 9C37.5022 9 40.3516 11.8493 40.3516 15.3516C40.3516 16.8266 39.8454 18.1848 38.9984 19.2638C38.8089 19.5051 38.6024 19.7325 38.3807 19.9441C38.6476 20.0981 38.9057 20.2657 39.154 20.4459C41.3586 22.0456 42.7949 24.6423 42.7949 27.5684V35.4912H35.4648V38.4255H53.1097V44.2896H59ZM40.7652 33.4615H27.2348V27.5684C27.2348 23.8372 30.2689 20.8031 34 20.8031C37.7311 20.8031 40.7652 23.8371 40.7652 27.5684V33.4615ZM21.6808 56.9703H11.0297V46.3192H21.6808V56.9703ZM39.3255 56.9703H28.6744V46.3192H39.3255V56.9703ZM56.9703 56.9703H46.3192V46.3192H56.9703V56.9703ZM29.6781 15.3516C29.6781 12.9677 31.6161 11.0297 34 11.0297C36.3839 11.0297 38.3219 12.9677 38.3219 15.3516C38.3219 17.7354 36.3839 19.6734 34 19.6734C31.6161 19.6734 29.6781 17.7354 29.6781 15.3516ZM34 11.9297C32.1132 11.9297 30.5781 13.4647 30.5781 15.3516C30.5781 17.2384 32.1132 18.7734 34 18.7734C35.8868 18.7734 37.4219 17.2384 37.4219 15.3516C37.4219 13.4647 35.8868 11.9297 34 11.9297ZM34 21.7031C30.7659 21.7031 28.1348 24.3343 28.1348 27.5684V32.5615H39.8652V27.5684C39.8652 24.3342 37.2341 21.7031 34 21.7031ZM20.7808 56.0703V47.2192H11.9297V56.0703H20.7808ZM38.4255 56.0703V47.2192H29.5744V56.0703H38.4255ZM56.0703 56.0703V47.2192H47.2192V56.0703H56.0703Z" fill="white"/>
</svg>
