<svg width="72" height="72" viewBox="0 0 72 72" fill="none" xmlns="http://www.w3.org/2000/svg">
<path d="M55.0296 30.2523C57.2419 32.4673 62.9973 36.008 62.9973 36.008C62.9973 36.008 59.4566 41.7611 57.2443 43.973C55.0293 46.1853 52.3777 48.4003 50.827 44.6346C49.279 40.869 46.6221 36.0048 41.3109 41.3136C36.0024 46.6221 40.869 49.2813 44.632 50.8297C48.395 52.3804 46.1827 55.0346 43.9704 57.2469C41.7581 59.4593 36.0053 63 36.0053 63L22.5013 49.4933L9 35.992C9 35.992 14.7504 32.4539 16.963 30.2416C19.1779 28.0293 21.3903 25.3725 17.6246 23.8244C13.8642 22.2711 8.99483 19.6142 14.3036 14.3056C19.6121 8.9945 22.2686 13.8663 23.8197 17.6266C25.3678 21.3922 28.0273 19.1773 30.2395 16.965C32.4545 14.7501 35.9926 9 35.9926 9C35.9926 9 39.536 14.7557 41.7483 16.9677C43.958 19.1852 46.6174 21.3975 48.1629 17.6398C49.711 13.8741 52.3652 9.0073 57.679 14.3187C62.9927 19.6324 58.1209 22.2864 54.3606 23.8349C50.6002 25.3829 52.8173 28.04 55.0296 30.2523Z" stroke="#0827C4" stroke-width="1.5" stroke-linejoin="bevel"/>
</svg>
