<svg width="82" height="83" viewBox="0 0 82 83" fill="none" xmlns="http://www.w3.org/2000/svg">
<path d="M81.9019 15.728H66.7744V7.64845C66.7744 3.48078 70.1664 0.0888672 74.3423 0.0888672C78.51 0.0888672 81.9101 3.48078 81.9101 7.64845V15.728H81.9019ZM70.0755 12.4268H78.6007V7.64845C78.6007 5.2964 76.6861 3.38174 74.334 3.38174C71.982 3.38174 70.0673 5.2964 70.0673 7.64845V12.4268H70.0755Z" fill="#0F427D"/>
<path d="M63.2751 82.2704L23.2159 82.2622C15.2437 82.2622 9.0128 82.2622 8.138 82.2704L7.93994 78.9775C10.0857 78.73 11.7032 76.9061 11.7032 74.7439L11.728 7.64015C11.728 3.80259 14.6 0.567479 18.4128 0.130079L18.6108 0.121826L58.571 0.130079C66.5432 0.130079 72.7658 0.130079 73.6406 0.121826L73.8387 3.4147C71.693 3.66229 70.0754 5.47791 70.0754 7.6484V75.4123H70.0424C69.7206 78.9693 66.9641 81.8413 63.3741 82.2622L63.2751 82.2704ZM23.2242 78.9693L63.0853 78.9775C65.198 78.6887 66.7826 76.8896 66.7826 74.7604L66.733 72.1195H66.7826V7.6484C66.7826 6.09687 67.253 4.64437 68.0617 3.43121C65.4951 3.43121 62.2187 3.43121 58.5792 3.43121L18.7181 3.42296C16.6137 3.7118 15.0456 5.51092 15.0456 7.64015V75.0492H15.0209C14.9631 76.4852 14.5009 77.8304 13.7416 78.961C16.3 78.9693 19.5764 78.9693 23.2242 78.9693Z" fill="white"/>
<path d="M57.5066 71.7812V74.7523C57.5066 77.7893 59.7926 80.2817 62.7306 80.62C60.1062 80.6118 9.30186 80.62 7.69256 80.62C4.7463 80.2817 2.46851 77.7811 2.46851 74.7523V71.7812H57.5066Z" fill="#0F427D"/>
<path d="M81.9018 15.9178H78.6007V7.64845C78.6007 5.2964 76.686 3.38174 74.334 3.38174C71.9819 3.38174 70.0672 5.2964 70.0672 7.64845H66.7661C66.7661 3.48078 70.1581 0.0888672 74.334 0.0888672C78.5017 0.0888672 81.9018 3.48078 81.9018 7.64845V15.9178Z" fill="white"/>
<path d="M63.0772 82.2703C59.2974 82.2703 55.856 78.6886 55.856 74.752V69.9653H59.1571V74.752C59.1571 76.8812 61.0965 78.9692 63.0772 78.9692V82.2703Z" fill="white"/>
<path d="M8.03909 82.2703C4.2593 82.2703 0.817871 78.6886 0.817871 74.752V69.9653H4.119V74.752C4.119 76.8812 6.05841 78.9692 8.03909 78.9692V82.2703Z" fill="white"/>
<path d="M56.5326 66.1527L52.365 63.2724L48.1973 66.1527V54.6978H52.365H56.5326V66.1527Z" fill="#F17227"/>
<path d="M60.7499 53.2288C60.7499 53.658 59.9741 54.0128 59.9081 54.4255C59.8421 54.8464 60.4693 55.4241 60.3372 55.8202C60.2052 56.2246 59.3552 56.3236 59.1654 56.695C58.9755 57.0746 59.3882 57.8174 59.1406 58.1557C58.893 58.4941 58.0512 58.3291 57.7541 58.6262C57.457 58.9233 57.6221 59.765 57.2837 60.0126C56.9453 60.2602 56.2026 59.8393 55.823 60.0374C55.4516 60.2272 55.3526 61.0772 54.9482 61.2093C54.552 61.3413 53.9743 60.7141 53.5534 60.7801C53.1408 60.8462 52.7859 61.6219 52.3568 61.6219C51.9276 61.6219 51.5645 60.8462 51.1601 60.7801C50.7392 60.7141 50.1615 61.3413 49.7654 61.2093C49.361 61.0772 49.262 60.2272 48.8906 60.0374C48.5192 59.8476 47.7682 60.2602 47.4298 60.0126C47.0915 59.765 47.2565 58.9233 46.9594 58.6262C46.6623 58.3291 45.8205 58.4941 45.5729 58.1557C45.3253 57.8174 45.738 57.0664 45.5482 56.695C45.3584 56.3236 44.5083 56.2246 44.3763 55.8202C44.2525 55.4241 44.8714 54.8464 44.8054 54.4255C44.7394 54.0128 43.9636 53.658 43.9636 53.2288C43.9636 52.7997 44.7394 52.4448 44.8054 52.0322C44.8714 51.6113 44.2442 51.0336 44.3763 50.6374C44.5083 50.233 45.3584 50.134 45.5482 49.7626C45.738 49.383 45.3253 48.6402 45.5729 48.3019C45.8205 47.9635 46.6623 48.1286 46.9594 47.8315C47.2565 47.5344 47.0915 46.6926 47.4298 46.445C47.7682 46.1974 48.5192 46.61 48.8906 46.4202C49.262 46.2304 49.361 45.3804 49.7654 45.2483C50.1615 45.1245 50.7392 45.7435 51.1601 45.6775C51.5645 45.6115 51.9276 44.8357 52.3568 44.8357C52.7859 44.8357 53.1408 45.6115 53.5534 45.6775C53.9743 45.7435 54.552 45.1163 54.9482 45.2483C55.3526 45.3804 55.4516 46.2304 55.823 46.4202C56.2026 46.61 56.9453 46.1974 57.2837 46.445C57.6221 46.6926 57.457 47.5344 57.7541 47.8315C58.0512 48.1286 58.893 47.9635 59.1406 48.3019C59.3882 48.6402 58.9673 49.383 59.1654 49.7626C59.3552 50.134 60.2052 50.233 60.3372 50.6374C60.461 51.0336 59.8421 51.6113 59.9081 52.0322C59.9741 52.4365 60.7499 52.7997 60.7499 53.2288Z" fill="#F17227"/>
<path d="M56.0623 53.2288C56.0623 55.2672 54.4035 56.926 52.365 56.926C50.3266 56.926 48.6677 55.2672 48.6677 53.2288C48.6677 51.1821 50.3266 49.5315 52.365 49.5315C54.4035 49.5315 56.0623 51.1821 56.0623 53.2288Z" fill="#0F427D"/>
<path d="M50.3513 12.0554H29.0837V15.3565H50.3513V12.0554Z" fill="#F17227"/>
<path d="M57.6385 20.3496H21.813V23.6507H57.6385V20.3496Z" fill="white"/>
<path d="M57.6385 28.5115H21.813V31.8126H57.6385V28.5115Z" fill="white"/>
<path d="M57.6385 36.6736H21.813V39.9747H57.6385V36.6736Z" fill="white"/>
<path d="M43.1053 44.8357H21.813V48.1368H43.1053V44.8357Z" fill="white"/>
<path d="M35.9501 52.9978H21.813V56.2989H35.9501V52.9978Z" fill="#F17227"/>
<path d="M59.1327 68.5874H0.817871V71.8885H59.1327V68.5874Z" fill="white"/>
<path d="M81.514 12.6167H68.4248V15.9178H81.514V12.6167Z" fill="white"/>
<path d="M62.9203 78.9778H8.03906V82.2789H62.9203V78.9778Z" fill="white"/>
</svg>
