<svg width="83" height="87" viewBox="0 0 83 87" fill="none" xmlns="http://www.w3.org/2000/svg">
<path d="M65.908 84.2403C65.908 84.8098 65.4458 85.2637 64.8846 85.2637H3.49186C2.93066 85.2637 2.46851 84.8015 2.46851 84.2403V58.9784C2.46851 58.4172 2.93066 57.9551 3.49186 57.9551H64.8846C65.4458 57.9551 65.908 58.409 65.908 58.9784V84.2403Z" fill="#0F427D"/>
<path d="M64.8845 86.9142H3.49179C2.01453 86.9142 0.817871 85.7175 0.817871 84.2403V58.9784C0.817871 57.5011 2.01453 56.3044 3.49179 56.3044H64.8845C66.3618 56.3044 67.5584 57.5011 67.5584 58.9784V84.2403C67.5584 85.7175 66.3535 86.9142 64.8845 86.9142ZM4.119 83.613H64.2573V59.6138H4.119V83.613Z" fill="white"/>
<path d="M12.4462 63.2705H7.63477V66.5716H12.4462V63.2705Z" fill="#F17227"/>
<path d="M20.4925 63.2698H15.6812V66.5709H20.4925V63.2698Z" fill="#F17227"/>
<path d="M28.5475 63.2698H23.7361V66.5709H28.5475V63.2698Z" fill="#F17227"/>
<path d="M36.5939 63.2698H31.7825V66.5709H36.5939V63.2698Z" fill="#F17227"/>
<path d="M44.6405 63.2698H39.8291V66.5709H44.6405V63.2698Z" fill="#F17227"/>
<path d="M52.6952 63.2698H47.8838V66.5709H52.6952V63.2698Z" fill="#F17227"/>
<path d="M60.7416 63.2698H55.9302V66.5709H60.7416V63.2698Z" fill="#F17227"/>
<path d="M12.4462 69.9634H7.63477V73.2645H12.4462V69.9634Z" fill="#F17227"/>
<path d="M20.4925 69.9629H15.6812V73.264H20.4925V69.9629Z" fill="#F17227"/>
<path d="M28.5475 69.9629H23.7361V73.264H28.5475V69.9629Z" fill="#F17227"/>
<path d="M36.5939 69.9629H31.7825V73.264H36.5939V69.9629Z" fill="#F17227"/>
<path d="M44.6405 69.9629H39.8291V73.264H44.6405V69.9629Z" fill="#F17227"/>
<path d="M52.6952 69.9629H47.8838V73.264H52.6952V69.9629Z" fill="#F17227"/>
<path d="M60.7416 69.9629H55.9302V73.264H60.7416V69.9629Z" fill="#F17227"/>
<path d="M12.4462 76.6477H7.63477V79.9488H12.4462V76.6477Z" fill="#F17227"/>
<path d="M20.4925 76.6477H15.6812V79.9488H20.4925V76.6477Z" fill="#F17227"/>
<path d="M52.7695 76.6477H23.7361V79.9488H52.7695V76.6477Z" fill="#F17227"/>
<path d="M60.7416 76.6477H55.9302V79.9488H60.7416V76.6477Z" fill="#F17227"/>
<path d="M30.9902 27.5515H29.3396V30.8526H30.9902V27.5515Z" fill="white"/>
<path d="M28.8527 49.5865H25.6341V46.2854H28.8527V49.5865ZM22.4155 49.5865H19.1969V46.2854H22.4155V49.5865ZM15.9865 49.5865H14.8559C14.0306 49.5865 13.2136 49.4958 12.4213 49.3142L13.1476 46.0956C13.7005 46.2194 14.2782 46.2854 14.8559 46.2854H15.9865V49.5865ZM8.93862 47.87C7.87401 47.1932 6.93319 46.3349 6.15742 45.3363L8.76531 43.3062C9.31 44.0076 9.97023 44.6101 10.7212 45.0805L8.93862 47.87ZM4.38307 42.0105C4.01994 40.9046 3.83838 39.7492 3.83838 38.569C3.83838 38.47 3.83838 38.371 3.83838 38.2802L7.13951 38.3792V38.5773C7.13951 39.4026 7.27155 40.2113 7.51914 40.9871L4.38307 42.0105ZM7.65944 35.7796L4.58113 34.5912C5.03504 33.411 5.68701 32.3216 6.52055 31.3643L9.02115 33.5266C8.4352 34.195 7.9813 34.9625 7.65944 35.7796ZM11.0596 31.8512L9.43379 28.9793C10.5397 28.352 11.7363 27.9229 12.9825 27.7083L13.5437 30.9599C12.6689 31.1167 11.8354 31.4138 11.0596 31.8512ZM26.121 30.8526H22.9024V27.5515H26.121V30.8526ZM19.6921 30.8526H16.4734V27.5515H19.6921V30.8526Z" fill="white"/>
<path d="M33.7385 46.2854H32.0879V49.5865H33.7385V46.2854Z" fill="white"/>
<path d="M35.1825 46.2854H33.532V49.5865H35.1825V46.2854Z" fill="white"/>
<path d="M72.733 66.0922H70.6615V62.791H72.733C73.0548 62.791 73.3849 62.7663 73.6985 62.725L74.1772 65.9849C73.6985 66.0592 73.2116 66.0922 72.733 66.0922ZM77.8497 64.6644L76.1414 61.842C76.8924 61.3881 77.5443 60.7939 78.0643 60.0759L80.7299 62.0235C79.9542 63.0964 78.9803 63.9795 77.8497 64.6644ZM82.3722 58.4748L79.1619 57.7156C79.2774 57.2204 79.3352 56.7087 79.3352 56.1888C79.3352 55.8257 79.3022 55.4625 79.2444 55.1077L82.5043 54.5712C82.5868 55.0994 82.6363 55.6358 82.6363 56.1805C82.6363 56.9646 82.5456 57.7321 82.3722 58.4748ZM78.3201 52.6813C77.8497 51.9386 77.2472 51.2949 76.5293 50.7914L78.4274 48.0928C79.5085 48.852 80.4163 49.8094 81.1178 50.9235L78.3201 52.6813ZM74.1524 49.7433C73.6903 49.6443 73.2116 49.5948 72.733 49.5948H71.2392V46.2937H72.733C73.451 46.2937 74.1607 46.3679 74.8539 46.5247L74.1524 49.7433ZM67.9628 49.5865H64.6865V46.2854H67.9628V49.5865ZM61.4018 49.5865H58.1255V46.2854H61.4018V49.5865ZM54.8491 49.5865H51.5727V46.2854H54.8491V49.5865ZM48.2881 49.5865H45.0117V46.2854H48.2881V49.5865ZM41.7354 49.5865H38.459V46.2854H41.7354V49.5865Z" fill="white"/>
<path d="M67.3686 62.791H65.718V66.0921H67.3686V62.791Z" fill="white"/>
<path d="M41.2239 12.8696C37.766 12.9026 34.3081 12.9357 30.8419 12.9687C26.3936 13.0925 22.8201 15.6508 22.8696 18.6466C22.9027 21.7167 22.9274 24.7867 22.9604 27.8568C23.0017 30.836 24.4955 33.089 30.7593 35.9775C34.4896 37.7024 38.0631 38.9733 41.4798 39.6748L41.2239 12.8696Z" fill="#0F427D"/>
<path d="M41.4797 41.3338C41.3724 41.3338 41.2569 41.3255 41.1496 41.3008C37.7412 40.5993 34.1182 39.3531 30.0661 37.4797C23.7444 34.5582 21.3676 31.9586 21.3098 27.8817L21.219 18.6633C21.153 14.7019 25.3619 11.4668 30.8006 11.3183L41.2074 11.2192C41.2156 11.2192 41.2156 11.2192 41.2239 11.2192C42.1317 11.2192 42.8662 11.9455 42.8744 12.8533L43.1303 39.6667C43.1385 40.1619 42.9157 40.6406 42.5278 40.9542C42.2307 41.2017 41.8593 41.3338 41.4797 41.3338ZM39.5816 14.5369L30.8501 14.6194C27.095 14.7267 24.4871 16.8147 24.5119 18.622L24.6027 27.8404C24.6274 29.6808 25.1721 31.5872 31.4443 34.4839C34.4731 35.8787 37.2213 36.902 39.8044 37.5953L39.5816 14.5369Z" fill="white"/>
<path d="M41.1992 12.8695C44.6572 12.8365 48.1233 12.8035 51.5813 12.7705C56.0295 12.8035 59.6525 15.2959 59.6608 18.2916C59.6938 21.3617 59.7186 24.4317 59.7516 27.5018C59.7681 30.4893 58.3156 32.7588 52.1095 35.7711C48.4122 37.5702 44.8635 38.9072 41.4551 39.6747L41.1992 12.8695Z" fill="#0F427D"/>
<path d="M41.4551 41.3337C41.0837 41.3337 40.7288 41.2099 40.4317 40.9788C40.0438 40.6652 39.8127 40.2031 39.8045 39.6996L39.5487 12.8862C39.5404 11.9784 40.2749 11.2274 41.1827 11.2192L51.5648 11.1201C57.0281 11.1614 61.2948 14.314 61.3113 18.2918L61.4021 27.4937C61.4186 31.5789 59.0996 34.228 52.8274 37.2651C48.8166 39.2127 45.2183 40.5332 41.8182 41.3007C41.7026 41.3172 41.5788 41.3337 41.4551 41.3337ZM42.8663 14.5038L43.0891 37.5622C45.664 36.8194 48.3957 35.7465 51.3915 34.294C57.6058 31.2818 58.1093 29.3671 58.101 27.5185L58.0102 18.3083C58.002 16.4927 55.3528 14.4543 51.5648 14.4212L42.8663 14.5038Z" fill="white"/>
<path d="M41.3641 29.2348L6.67749 16.2284L41.1083 2.55347L75.8031 15.5599L41.3641 29.2348Z" fill="#0F427D"/>
<path d="M41.3806 31.0012L2.08887 16.2781L41.0917 0.787598L80.3834 15.5189L41.3806 31.0012ZM11.2578 16.1874L41.3475 27.469L71.2145 15.6097L41.1247 4.32806L11.2578 16.1874Z" fill="white"/>
<path d="M60.7086 34.6735L60.6343 22.0302L39.5979 14.1488L40.7533 11.054L63.919 19.7442L64.0097 34.657L60.7086 34.6735Z" fill="white"/>
<path d="M45.0117 12.3332C45.0199 13.3978 43.3363 14.2643 41.2401 14.2891C39.1522 14.3056 37.4521 13.4638 37.4356 12.4074C37.4273 11.3511 39.1109 10.4763 41.1989 10.4598C43.2951 10.435 45.0034 11.2768 45.0117 12.3332Z" fill="#0F427D"/>
<path d="M41.1741 15.9398C38.0793 15.9398 35.8098 14.4625 35.7933 12.4241C35.785 11.2769 36.503 10.2371 37.7822 9.57684C38.7148 9.08992 39.9279 8.81758 41.1989 8.80933H41.2897C44.3845 8.80933 46.654 10.2866 46.6705 12.325C46.687 14.3965 44.4175 15.915 41.2649 15.948L41.1741 15.9398ZM39.5731 12.3828C39.9445 12.5148 40.4809 12.6304 41.1741 12.6304V14.2809L41.2319 12.6304C41.9581 12.6221 42.5111 12.4901 42.8907 12.3498C42.5193 12.2177 41.9829 12.1022 41.2897 12.1022C40.5222 12.1105 39.9527 12.2425 39.5731 12.3828Z" fill="white"/>
<path d="M66.8241 42.0516V35.862C66.8241 33.9061 64.9177 32.3215 62.5739 32.3215C60.2218 32.3215 58.3154 33.9061 58.3154 35.862V42.0516H66.8241Z" fill="white"/>
</svg>
