<svg width="97" height="81" viewBox="0 0 97 81" fill="none" xmlns="http://www.w3.org/2000/svg">
<path d="M89.5604 36.8774H86.2593V72.0757H89.5604V36.8774Z" fill="white"/>
<path d="M11.4723 72.0757H8.17114V18.4901C8.17114 16.2371 10.0033 14.3967 12.2645 14.3967H47.7682V17.6979H12.2645C11.8271 17.6979 11.4723 18.0527 11.4723 18.4901V72.0757Z" fill="white"/>
<path d="M61.6742 40.6984V33.2544H58.8765C56.5905 33.2544 54.7253 31.2159 54.7253 28.7153V5.10399C54.7253 2.60339 56.5822 0.564941 58.8765 0.564941H87.9099C90.2042 0.564941 92.0611 2.60339 92.0611 5.10399V28.7153C92.0611 31.2159 90.196 33.2544 87.9099 33.2544H70.4635L61.6742 40.6984ZM58.8683 3.86607C58.4639 3.86607 58.0182 4.37775 58.0182 5.10399V28.7153C58.0182 29.4416 58.4639 29.9532 58.8683 29.9532H64.9671V33.5762L69.2421 29.9532H87.9017C88.3061 29.9532 88.7517 29.4416 88.7517 28.7153V5.10399C88.7517 4.36949 88.3061 3.86607 87.9017 3.86607H58.8683Z" fill="white"/>
<path d="M81.1508 16.1051L75.0272 19.6373L68.9036 23.1696V16.1051V9.03247L75.0272 12.5647L81.1508 16.1051Z" fill="#F17227"/>
<path d="M20.9219 70.8791V66.8765C20.9219 64.5987 23.0016 62.7583 25.5765 62.7583H45.9857C48.5523 62.7583 50.632 64.5987 50.632 66.8765V70.8791H20.9219Z" fill="#F17227"/>
<path d="M52.2908 70.879H48.9897V66.8764C48.9897 65.5147 47.6445 64.4088 45.9939 64.4088H25.5847C23.9341 64.4088 22.5807 65.5147 22.5807 66.8764V70.879H19.2795V66.8764C19.2795 63.6991 22.1103 61.1077 25.5847 61.1077H45.9939C49.4684 61.1077 52.2908 63.6991 52.2908 66.8764V70.879Z" fill="white"/>
<path d="M39.5979 62.7995L35.6943 65.0608L31.7825 62.7995V54.2661H35.6943H39.5979V62.7995Z" fill="#0F427D"/>
<path d="M35.6943 66.9671L30.1401 63.7568V52.6155H41.2567V63.7485L35.6943 66.9671ZM33.433 61.8504L35.686 63.1543L37.9391 61.8504V55.9249H33.4248V61.8504H33.433Z" fill="white"/>
<path d="M44.9212 41.6721V50.4449C44.9212 55.4956 40.8278 58.7142 35.7853 58.7142C30.7346 58.7142 26.6494 55.4873 26.6494 50.4449V41.6721H44.9212Z" fill="#0F427D"/>
<path d="M35.7852 60.365C29.5296 60.365 24.9988 56.1891 24.9988 50.4451V41.6724H28.2999V50.4451C28.2999 54.3404 31.3782 57.0639 35.7852 57.0639C40.1922 57.0639 43.2705 54.3404 43.2705 50.4451V41.6724H46.5716V50.4451C46.5716 56.1973 42.0326 60.365 35.7852 60.365Z" fill="white"/>
<path d="M31.4444 33.4687C29.7608 33.4687 28.2835 34.3352 27.417 35.6392H25.7664C23.7115 35.6392 22.0361 37.3063 22.0361 39.3695V46.6072L26.4266 52.6978V44.8328C26.4266 43.3803 27.5985 42.2084 29.051 42.2084H30.5778H41.7109H44.1124C46.7699 42.2084 48.9238 40.0545 48.9238 37.397V33.4604H31.4444V33.4687Z" fill="#0F427D"/>
<path d="M28.0771 57.823L20.3855 47.1439V39.3697C20.3855 36.3987 22.7953 33.9889 25.7663 33.9889H26.6081C27.8296 32.6106 29.5709 31.8184 31.4443 31.8184H50.5908V37.4055C50.5908 40.9707 47.6941 43.8675 44.1289 43.8675H29.0592C28.5228 43.8675 28.0854 44.3049 28.0854 44.8413V57.823H28.0771ZM23.6866 46.0792L24.776 47.5895V44.8413C24.776 42.481 26.6907 40.5664 29.051 40.5664H44.1206C45.862 40.5664 47.2815 39.1469 47.2815 37.4055V35.1195H31.436C30.3714 35.1195 29.3811 35.6559 28.7951 36.5472L28.3082 37.29H25.7663C24.6192 37.29 23.6866 38.2226 23.6866 39.3697V46.0792Z" fill="white"/>
<path d="M37.1881 65.6467H33.887V70.879H37.1881V65.6467Z" fill="white"/>
<path d="M89.6925 80.279H8.03084C5.20838 80.279 1.84948 77.8362 1.4781 77.5556L0.817871 77.0604V70.1941H96.9137V77.0604L96.2535 77.5556C95.8739 77.8362 92.5232 80.279 89.6925 80.279ZM4.119 75.3686C5.2744 76.1196 6.95798 76.9779 8.03084 76.9779H89.6925C90.7984 76.9779 92.515 76.0701 93.6044 75.3686V73.5035H4.119V75.3686Z" fill="white"/>
</svg>
