<svg width="77" height="83" viewBox="0 0 77 83" fill="none" xmlns="http://www.w3.org/2000/svg">
<path d="M42.5113 73.8031H14.9964C12.5865 73.8031 10.6306 71.8389 10.6306 69.4291V4.46286C10.6306 2.05304 12.5948 0.0888672 14.9964 0.0888672H60.7005C63.1103 0.0888672 65.0662 2.05304 65.0662 4.46286V42.9705H61.7651V4.46286C61.7651 3.86866 61.2864 3.39 60.7005 3.39H14.9964C14.4104 3.39 13.9317 3.86866 13.9317 4.46286V69.4291C13.9317 70.015 14.4104 70.502 14.9964 70.502H42.5113V73.8031Z" fill="white"/>
<path d="M39.8951 4.74341H35.7852V8.04454H39.8951V4.74341Z" fill="white"/>
<path d="M73.4923 82.5346H70.1912V77.5251L70.8514 77.03C72.6423 75.693 73.6739 73.6463 73.6739 71.418V56.3897L73.5171 53.1463C73.5171 52.1972 72.8074 51.4957 71.9491 51.4957C70.381 51.4957 70.381 51.9909 70.381 52.255H67.0799V51.4462C67.0799 50.5797 66.3784 49.8782 65.5118 49.8782C64.6453 49.8782 63.9438 50.5797 63.9438 51.4462H60.6427V49.8452C60.6427 48.9786 59.9412 48.2771 59.0746 48.2771C58.2081 48.2771 57.5066 48.9786 57.5066 49.8452V51.6443V51.6525H54.2055C54.2055 47.295 54.1724 33.1002 54.1724 33.1002C54.1724 32.1676 53.4132 31.4166 52.4889 31.4166C51.5646 31.4166 50.8053 32.1676 50.8053 33.1002L50.7805 65.6658L47.4794 65.7318L47.4134 64.1473V57.4213C47.4134 55.6221 45.9526 54.1531 44.1535 54.1531V58.5024L44.3846 59.6908L44.1535 59.7898V66.26L52.9263 76.6833C53.8176 77.228 55.3114 78.0368 56.1284 78.2349L57.3911 78.5402V82.5428H54.0899V81.0078C52.6374 80.3971 51.1602 79.4645 50.9538 79.3325L50.7393 79.1922L40.8607 67.4484V58.8077L40.7039 57.6276L40.8607 57.5616V53.9633L40.7616 53.9551L40.8607 52.1064V50.9841L40.9267 50.9758L40.9349 50.852H44.1453C45.3667 50.852 46.5138 51.1904 47.4877 51.7681L47.4959 33.1002C47.4959 30.352 49.7324 28.1155 52.4806 28.1155C55.2288 28.1155 57.4653 30.352 57.4653 33.1002C57.4653 33.1002 57.4818 39.6612 57.4901 45.2401C57.9853 45.0668 58.5134 44.976 59.0664 44.976C60.7747 44.976 62.285 45.859 63.1515 47.196C63.853 46.8081 64.6535 46.5853 65.5118 46.5853C67.1459 46.5853 68.5901 47.3941 69.4814 48.632C70.1416 48.3597 70.9587 48.1946 71.9573 48.1946C74.6394 48.1946 76.8265 50.3816 76.8265 53.0638L76.9833 56.3071V71.418C76.9833 74.4056 75.7206 77.1785 73.5006 79.1344V82.5346H73.4923Z" fill="white"/>
<path d="M9.69812 39.4053L9.73938 39.3228L20.6909 39.4878C20.6991 39.5621 20.7074 39.6364 20.6991 39.7189L20.6661 41.5428C20.6166 44.5633 18.1242 46.9731 15.1037 46.9236L13.9071 46.8823L12.2152 51.9661C15.6567 54.4997 17.984 59.3441 17.984 64.9065C17.984 69.1732 16.614 73.0273 14.4187 75.7342H4.84546V50.3815L9.69812 39.4053Z" fill="#0F427D"/>
<path d="M15.2027 77.3931H3.19482V50.035L8.69947 37.6558L22.2341 37.8621L22.3331 39.3889C22.3414 39.5374 22.3496 39.6447 22.3496 39.7602L22.3166 41.5759C22.2506 45.4382 19.065 48.5825 15.1944 48.5825H15.0789L14.1298 51.4215C17.5465 54.475 19.6262 59.5257 19.6262 64.9231C19.6262 69.4456 18.2315 73.6546 15.6896 76.7906L15.2027 77.3931ZM6.49595 74.092H13.5934C15.343 71.6326 16.3333 68.3398 16.3333 64.9148C16.3333 60.0704 14.3774 55.6222 11.2413 53.3031L10.2758 52.5934L12.7351 45.1988L15.1614 45.2731C17.2741 45.2731 18.9825 43.5895 19.0155 41.5181L19.0237 41.1137L10.7957 40.9899L6.49595 50.7282V74.092Z" fill="white"/>
<path d="M26.3191 73.8691H0.817871V82.5346H26.3191V73.8691Z" fill="#F17227"/>
<path d="M35.7686 27.8351H19.2629V12.98H35.7686V27.8351ZM22.5641 24.5339H32.4675V16.2811H22.5641V24.5339Z" fill="white"/>
<path d="M44.1617 31.136H19.0566V34.4371H44.1617V31.136Z" fill="white"/>
<path d="M44.1616 37.7383H24.8335V41.0394H44.1616V37.7383Z" fill="white"/>
<path d="M44.1616 44.3406H24.8335V47.6417H44.1616V44.3406Z" fill="white"/>
<path d="M37.7658 50.9429H19.0566V54.244H37.7658V50.9429Z" fill="white"/>
</svg>
