<svg width="72" height="72" viewBox="0 0 72 72" fill="none" xmlns="http://www.w3.org/2000/svg">
<rect x="5.90234" y="19.4431" width="60.5" height="32.2378" stroke="#0827C4" stroke-width="1.5" stroke-linejoin="bevel"/>
<path d="M14.9961 35.3928H21.2021" stroke="#0827C4" stroke-width="1.5" stroke-linejoin="bevel"/>
<path d="M51.1914 35.3928H57.3975" stroke="#0827C4" stroke-width="1.5" stroke-linejoin="bevel"/>
<circle cx="36.1525" cy="35.1622" r="8.33801" stroke="#0827C4" stroke-width="1.5" stroke-linejoin="bevel"/>
<path d="M14.2404 52.4308C14.2404 51.2373 14.0053 50.0556 13.5486 48.953C13.0919 47.8503 12.4224 46.8485 11.5785 46.0046C10.7346 45.1607 9.73278 44.4913 8.63018 44.0346C7.52757 43.5778 6.3458 43.3428 5.15234 43.3428" stroke="#0827C4" stroke-width="1.5" stroke-linejoin="bevel"/>
<path d="M67.1525 43.3429C65.959 43.3429 64.7772 43.578 63.6746 44.0347C62.572 44.4914 61.5702 45.1608 60.7263 46.0047C59.8824 46.8486 59.213 47.8505 58.7562 48.9531C58.2995 50.0557 58.0645 51.2375 58.0645 52.4309" stroke="#0827C4" stroke-width="1.5" stroke-linejoin="bevel"/>
<path d="M58.0643 18.6932C58.0643 19.8867 58.2994 21.0685 58.7561 22.1711C59.2128 23.2737 59.8822 24.2755 60.7261 25.1194C61.57 25.9633 62.5719 26.6328 63.6745 27.0895C64.7771 27.5462 65.9589 27.7812 67.1523 27.7812" stroke="#0827C4" stroke-width="1.5" stroke-linejoin="bevel"/>
<path d="M5.15222 27.7811C6.34568 27.7811 7.52744 27.5461 8.63005 27.0893C9.73266 26.6326 10.7345 25.9632 11.5784 25.1193C12.4223 24.2754 13.0917 23.2736 13.5485 22.1709C14.0052 21.0683 14.2402 19.8866 14.2402 18.6931" stroke="#0827C4" stroke-width="1.5" stroke-linejoin="bevel"/>
<path d="M32.8164 51.9856C41.7305 55.024 59.5586 61.1006 59.5586 61.1006L62.6095 51.9856M66.6159 40.0552L70.4869 29.1974L66.6159 27.7812" stroke="#0827C4" stroke-width="1.5" stroke-linejoin="bevel"/>
<path d="M39.4258 19.1384C30.5117 16.1001 12.6836 10.0234 12.6836 10.0234L9.63268 19.1384M5.62631 31.0689L1.75527 41.9266L5.62631 43.3428" stroke="#0827C4" stroke-width="1.5" stroke-linejoin="bevel"/>
</svg>
