<svg width="24" height="24" viewBox="0 0 24 24" fill="none" xmlns="http://www.w3.org/2000/svg">
<path d="M14.9998 19V20C14.9998 20.5305 14.7891 21.0392 14.414 21.4142C14.0389 21.7893 13.5302 22 12.9998 22H10.9998C10.4694 22 9.96065 21.7893 9.58558 21.4142C9.21051 21.0392 8.99979 20.5305 8.99979 20V19H14.9998ZM4.99979 18C4.10979 18 3.66279 16.923 4.29279 16.293L7.14779 13.436L5.68379 12.949C5.53177 12.8985 5.39411 12.8121 5.28243 12.6972C5.17075 12.5823 5.0883 12.4423 5.04204 12.2889C4.99578 12.1355 4.98705 11.9732 5.01659 11.8158C5.04613 11.6583 5.11308 11.5102 5.21179 11.384L5.29179 11.293L8.31079 8.27303L7.55279 7.89403C7.42061 7.82791 7.30472 7.73331 7.21348 7.61704C7.12223 7.50077 7.05789 7.36572 7.02509 7.2216C6.99229 7.07749 6.99184 6.9279 7.02378 6.78359C7.05572 6.63928 7.11925 6.50385 7.20979 6.38703L7.29279 6.29303L11.2928 2.29303C11.4803 2.10556 11.7346 2.00024 11.9998 2.00024C12.265 2.00024 12.5193 2.10556 12.7068 2.29303L16.7068 6.29303C16.8187 6.40508 16.9024 6.54212 16.951 6.69285C16.9996 6.84359 17.0118 7.00371 16.9864 7.16004C16.961 7.31637 16.8988 7.46444 16.805 7.59205C16.7112 7.71965 16.5884 7.82316 16.4468 7.89403L15.6878 8.27303L18.7078 11.293C18.8209 11.4063 18.9052 11.5452 18.9535 11.6978C19.0018 11.8505 19.0128 12.0125 18.9854 12.1703C18.9581 12.3281 18.8933 12.477 18.7964 12.6045C18.6995 12.732 18.5735 12.8344 18.4288 12.903L18.3158 12.949L16.8508 13.436L19.7068 16.293C20.3098 16.895 19.9268 17.907 19.1138 17.994L18.9998 18H4.99979Z" fill="white"/>
</svg>
