<svg width="72" height="72" viewBox="0 0 72 72" fill="none" xmlns="http://www.w3.org/2000/svg">
<mask id="path-1-inside-1_1_2961" fill="white">
<path d="M52.1799 39.299C52.1799 37.1941 51.7653 35.1098 50.9598 33.1651C50.1543 31.2205 48.9737 29.4535 47.4853 27.9651C45.9969 26.4768 44.23 25.2961 42.2853 24.4906C40.3406 23.6851 38.2564 23.2705 36.1515 23.2705V39.299H52.1799Z"/>
</mask>
<path d="M52.1799 39.299C52.1799 37.1941 51.7653 35.1098 50.9598 33.1651C50.1543 31.2205 48.9737 29.4535 47.4853 27.9651C45.9969 26.4768 44.23 25.2961 42.2853 24.4906C40.3406 23.6851 38.2564 23.2705 36.1515 23.2705V39.299H52.1799Z" stroke="#0827C4" stroke-width="3" mask="url(#path-1-inside-1_1_2961)"/>
<circle cx="36.151" cy="39.299" r="24.358" stroke="#0827C4" stroke-width="1.5" stroke-linejoin="bevel"/>
<path d="M29.4785 7.31812H36.1517M42.825 7.31812H36.1517M36.1517 7.31812V14.4556" stroke="#0827C4" stroke-width="1.5" stroke-linejoin="bevel"/>
<path d="M53.2695 21.4771L56.4609 18.5176" stroke="#0827C4" stroke-width="1.5" stroke-linejoin="bevel"/>
<path d="M18.8013 21.593L15.8418 18.4016" stroke="#0827C4" stroke-width="1.5" stroke-linejoin="bevel"/>
</svg>
