<svg width="72" height="72" viewBox="0 0 72 72" fill="none" xmlns="http://www.w3.org/2000/svg">
<path d="M55.0316 30.2523C57.2439 32.4673 62.9993 36.008 62.9993 36.008C62.9993 36.008 59.4585 41.7611 57.2462 43.973C55.0313 46.1853 52.3797 48.4003 50.829 44.6346C49.2809 40.869 46.6241 36.0048 41.3129 41.3136C36.0044 46.6221 40.8709 49.2813 44.6339 50.8297C48.3969 52.3804 46.1846 55.0346 43.9723 57.2469C41.76 59.4593 36.0073 63 36.0073 63L22.5033 49.4933L9.00195 35.992C9.00195 35.992 14.7523 32.4539 16.965 30.2416C19.1799 28.0293 21.3922 25.3725 17.6266 23.8244C13.8662 22.2711 8.99678 19.6142 14.3055 14.3056C19.614 8.9945 22.2706 13.8663 23.8217 17.6266C25.3698 21.3922 28.0292 19.1773 30.2415 16.965C32.4564 14.7501 35.9945 9 35.9945 9C35.9945 9 39.5379 14.7557 41.7502 16.9677C43.9599 19.1852 46.6193 21.3975 48.1648 17.6398C49.7129 13.8741 52.3671 9.0073 57.681 14.3187C62.9947 19.6324 58.1229 22.2864 54.3625 23.8349C50.6021 25.3829 52.8193 28.04 55.0316 30.2523Z" stroke="#0827C4" stroke-width="1.5" stroke-linejoin="bevel"/>
</svg>
