<svg width="72" height="72" viewBox="0 0 72 72" fill="none" xmlns="http://www.w3.org/2000/svg">
<line x1="34.667" y1="19.25" x2="46.667" y2="19.25" stroke="url(#paint0_linear_2667_16121)" stroke-width="1.5"/>
<path d="M20.167 18.5L24.167 22L30.667 15" stroke="url(#paint1_linear_2667_16121)" stroke-width="1.5"/>
<path d="M20.167 28.5L24.167 32L30.667 25" stroke="url(#paint2_linear_2667_16121)" stroke-width="1.5"/>
<path d="M20.167 38.5L24.167 42L30.667 35" stroke="url(#paint3_linear_2667_16121)" stroke-width="1.5"/>
<line x1="34.667" y1="29.25" x2="53.667" y2="29.25" stroke="url(#paint4_linear_2667_16121)" stroke-width="1.5"/>
<line x1="34.667" y1="39.25" x2="48.667" y2="39.25" stroke="url(#paint5_linear_2667_16121)" stroke-width="1.5"/>
<rect x="14.417" y="6.75" width="43.5" height="56.5" stroke="url(#paint6_linear_2667_16121)" stroke-width="1.5"/>
<defs>
<linearGradient id="paint0_linear_2667_16121" x1="34.667" y1="20.5" x2="46.667" y2="20.5" gradientUnits="userSpaceOnUse">
<stop stop-color="#2F6298"/>
<stop offset="1" stop-color="#438DB0"/>
</linearGradient>
<linearGradient id="paint1_linear_2667_16121" x1="20.167" y1="18.5" x2="30.667" y2="18.5" gradientUnits="userSpaceOnUse">
<stop stop-color="#2F6298"/>
<stop offset="1" stop-color="#438DB0"/>
</linearGradient>
<linearGradient id="paint2_linear_2667_16121" x1="20.167" y1="28.5" x2="30.667" y2="28.5" gradientUnits="userSpaceOnUse">
<stop stop-color="#2F6298"/>
<stop offset="1" stop-color="#438DB0"/>
</linearGradient>
<linearGradient id="paint3_linear_2667_16121" x1="20.167" y1="38.5" x2="30.667" y2="38.5" gradientUnits="userSpaceOnUse">
<stop stop-color="#2F6298"/>
<stop offset="1" stop-color="#438DB0"/>
</linearGradient>
<linearGradient id="paint4_linear_2667_16121" x1="34.667" y1="30.5" x2="53.667" y2="30.5" gradientUnits="userSpaceOnUse">
<stop stop-color="#2F6298"/>
<stop offset="1" stop-color="#438DB0"/>
</linearGradient>
<linearGradient id="paint5_linear_2667_16121" x1="34.667" y1="40.5" x2="48.667" y2="40.5" gradientUnits="userSpaceOnUse">
<stop stop-color="#2F6298"/>
<stop offset="1" stop-color="#438DB0"/>
</linearGradient>
<linearGradient id="paint6_linear_2667_16121" x1="13.667" y1="35" x2="58.667" y2="35" gradientUnits="userSpaceOnUse">
<stop stop-color="#2F6298"/>
<stop offset="1" stop-color="#438DB0"/>
</linearGradient>
</defs>
</svg>
