<svg version="1" xmlns="http://www.w3.org/2000/svg" width="230.667" height="230.667" viewBox="0 0 173.000000 173.000000"><path d="M18.4 5.5c-.2.5-.3 37.4-.2 82l.3 81h10.3c8.3 0 10.3-.3 10.6-1.5.3-.8.4-37.7.3-82l-.2-80.5H29.1c-6.2 0-10.5.4-10.7 1zM54.4 5.7c-.2.7-.6 2-.9 2.8-.2.8 0 1.7.5 2 .5.3.6 1.5.1 2.8-.5 1.4-.5 3 0 4 .6.9.6 1.7.2 1.7-.9 0-.7 16.5.2 18 .3.5.3 1-.2 1-.8 0-.8 19.9.1 20.7.2.3.1 1.5-.4 2.7-.4 1.3-.4 2.9.1 3.9.6.9.6 1.7.2 1.7-.9 0-.7 16.5.2 18 .3.5.3 1-.2 1-.8 0-.8 19.9.1 20.7.2.3.1 1.5-.4 2.7-.4 1.3-.4 2.9.1 3.9.6.9.6 1.7.2 1.7-.9 0-.8 14.8.1 15.7.2.3.1 1.5-.4 2.7-.4 1.3-.4 2.9.1 3.9.6 1 .6 1.7.1 1.7-.9 0-.9 6.7.1 7.6.3.4.2 1.6-.3 2.8-.4 1.3-.4 2.9.1 3.9.6 1 .6 1.7.1 1.7-.9 0-.9 6.7.1 7.6.3.4.2 1.6-.3 2.9-.6 1.6-.5 2.5.3 2.7.7.3 26 .4 56.2.4l55-.1.3-18.7.2-18.8H96.2V68.5c0-34.4-.2-62.8-.5-63.1-.3-.4-9.7-.7-20.8-.8-15.4-.1-20.2.2-20.5 1.1z"/></svg>