<svg width="218" height="387" viewBox="0 0 218 387" fill="none" xmlns="http://www.w3.org/2000/svg">
<g clip-path="url(#clip0_217_21702)">
<path d="M165.326 9.35048e-07C169.775 3.24102 172.686 8.51455 174.169 14.0078C178.124 29.4439 172.741 45.649 165.656 59.3272C157.252 75.3675 145.718 89.2654 133.195 102.01C126.164 109.041 118.969 116.402 113.312 124.477C89.2542 157.107 97.2184 187.979 123.583 216.379C96.3945 203.69 78.324 174.191 84.7503 143.978C88.1007 127.499 97.3282 112.667 108.478 100.362C115.618 92.5065 123.747 85.4751 131.108 77.8395C148.244 59.8765 179.607 26.038 165.326 -0.0549316V9.35048e-07Z" fill="white"/>
<path d="M218 85.8596C203.774 95.8024 189.603 104.921 176.421 114.809C166.974 122.06 157.747 129.311 150.936 138.65C145.224 146.176 143.521 154.196 150.002 161.831C152.309 164.633 156.044 168.863 158.241 172.214C165.162 182.156 169.995 195.175 166.809 207.48C163.843 219.071 153.902 228.025 142.807 231.156C158.076 216.599 160.658 201.053 146.761 184.519C143.356 180.344 140.445 177.762 136.435 173.642C125.835 162.71 123.967 146.945 131.767 133.816C147.201 107.283 188.944 90.3641 218 85.8596Z" fill="white"/>
<path d="M87.3867 216.434C78.2141 220.609 50.8062 230.882 47.8951 239.341C47.8951 239.561 48.0599 239.451 48.1698 239.451C48.2796 239.451 48.3895 239.616 48.719 239.946C50.4766 241.923 54.5961 244.175 57.3973 245.274C69.7006 249.339 84.1461 249.009 97.2184 248.735C135.941 247.252 174.609 241.484 213.771 239.836C204.763 244.175 195.426 247.691 185.978 250.877C151.76 262.523 73.0511 279.936 42.8969 255.491C32.2413 247.197 29.9894 234.507 42.2378 226.377C47.3459 223.026 52.3441 221.433 57.3423 220.06C67.229 217.478 77.2254 216.325 87.3867 216.434Z" fill="white"/>
<path d="M54.7609 273.07C50.0373 281.859 52.6188 286.528 61.2421 289.934C68.4374 292.901 75.8523 292.241 83.9264 291.802C113.367 289.055 141.983 281.749 171.862 279.662C151.155 293.23 127.757 301.47 103.425 305.81C89.0894 307.897 73.3807 309.38 59.5943 303.228C52.9483 299.767 46.4671 293.615 45.9728 285.704C45.6432 280.046 50.0373 274.938 54.7059 273.125L54.7609 273.07Z" fill="white"/>
<path d="M44.9292 305.81C56.189 328.057 84.3109 328.057 105.732 324.542C129.515 320.696 151.21 312.237 173.565 302.514C165.436 312.182 155.165 319.872 144.015 325.805C121.496 337.451 93.4835 343.878 68.9317 334.649C56.9579 330.035 45.094 319.433 44.9292 305.81Z" fill="white"/>
<path d="M32.7357 323.773C27.6825 326.464 5.21791 338.055 8.78808 344.537C23.3434 358.435 66.2403 358.49 86.2882 358.27C117.047 357.556 148.08 354.645 178.454 349.151C188.56 347.119 198.886 345.196 208.223 340.582C200.259 347.613 189.988 351.623 180.156 355.359C170.16 358.929 159.944 361.731 149.618 364.038C110.126 372.278 61.5717 376.838 22.6843 363.818C12.4681 360.193 -7.19529 350.25 2.74625 336.847C6.81075 332.067 11.8639 329.925 17.2466 327.783C22.3547 325.97 27.4628 324.597 32.7357 323.828V323.773Z" fill="white"/>
<path d="M213.771 348.218C208.168 356.238 199.93 362.28 191.636 367.389C166.095 382.496 135.776 387.275 106.556 387C93.5385 386.615 80.6309 385.242 67.8882 382.77C80.7957 382.386 93.5934 382.386 106.446 381.672C134.898 379.639 163.514 375.519 189.603 363.434C198.172 359.314 206.63 354.645 213.771 348.163V348.218Z" fill="white"/>
</g>
<defs>
<clipPath id="clip0_217_21702">
<rect width="218" height="387" fill="white"/>
</clipPath>
</defs>
</svg>
