<svg width="72" height="72" viewBox="0 0 72 72" fill="none" xmlns="http://www.w3.org/2000/svg">
<path d="M24.625 35.2344C26.5641 32.5583 28.9781 31.3958 31.2031 31.6299C34.0424 31.9288 36.1248 34.4558 36.125 38V48H34.625V38C34.6249 35.045 32.9572 33.3224 31.0469 33.1211C29.1348 32.9198 26.5433 34.1977 24.625 38.1719V48H23.125V24H24.625V35.2344Z" fill="#0827C4"/>
<path d="M39.625 35.2344C41.5641 32.5583 43.9781 31.3958 46.2031 31.6299C49.0424 31.9288 51.1248 34.4558 51.125 38V48H49.625V38C49.6249 35.045 47.9572 33.3224 46.0469 33.1211C44.1348 32.9198 41.5433 34.1977 39.625 38.1719V48H38.125V24H39.625V35.2344Z" fill="#0827C4"/>
<circle cx="36" cy="36" r="27.25" stroke="#0827C4" stroke-width="1.5" stroke-linejoin="bevel"/>
</svg>
