<svg width="56" height="56" viewBox="0 0 56 56" fill="none" xmlns="http://www.w3.org/2000/svg" alt="">
    <rect x="0.5" y="0.5" width="55" height="55" stroke="#ffffff" fill="#ffffff"></rect>
    <path fill-rule="evenodd" clip-rule="evenodd"
          d="M10 24.3631H11.1751V31.6369H10V35H17.5997V31.6369H16.4246V24.3631H17.5997V21H10V24.3631ZM30.9004 27.7183C31.5063 27.4432 32.0131 26.9896 32.3528 26.4185C32.6925 25.8473 32.8487 25.1861 32.8004 24.5237C32.8004 22.7123 31.393 21.0132 28.9583 21.0132H19.0083V24.3763H20.1835V31.6361H19.0083V34.9992H29.6338C30.6299 34.9377 31.5635 34.4941 32.2391 33.7612C32.9146 33.0282 33.2797 32.0629 33.2578 31.0674C33.2524 30.3412 33.0214 29.6345 32.5967 29.0448C32.172 28.455 31.5745 28.0112 30.8864 27.7745L30.9004 27.7183ZM27.1076 31.6571H24.9966V29.5508H27.1076C27.3864 29.5545 27.6528 29.6666 27.85 29.8633C28.0471 30.06 28.1595 30.3258 28.1631 30.604C28.1632 30.7426 28.1356 30.8797 28.082 31.0076C28.0284 31.1354 27.95 31.2514 27.8511 31.3487C27.7522 31.4461 27.635 31.5228 27.5062 31.5746C27.3773 31.6263 27.2395 31.652 27.1006 31.6501L27.1076 31.6571ZM24.9896 26.3703V24.3623H27.0162C27.2794 24.3695 27.5297 24.478 27.7146 24.6651C27.8996 24.8523 28.0048 25.1035 28.0083 25.3663C28.0013 25.631 27.8933 25.8831 27.7062 26.071C27.5192 26.2589 27.2673 26.3684 27.0021 26.3773L24.9896 26.3703ZM39.0039 26.0728C39.1912 26.2611 39.4441 26.3701 39.7099 26.3773L42.6161 26.3703C43.1858 26.3601 43.7518 26.4627 44.2814 26.6723C44.811 26.8819 45.2937 27.1943 45.7014 27.5913C46.1092 27.9884 46.4339 28.4622 46.6568 28.9854C46.8797 29.5085 46.9964 30.0706 47 30.6391C46.9981 31.7949 46.5371 32.9028 45.718 33.7201C44.8989 34.5374 43.7886 34.9973 42.6302 34.9992H34.6857V30.6461H39.0485V31.6782H41.1595C41.4394 31.6782 41.7079 31.5672 41.9058 31.3697C42.1038 31.1722 42.215 30.9044 42.215 30.625C42.215 30.3457 42.1038 30.0779 41.9058 29.8804C41.7079 29.6828 41.4394 29.5719 41.1595 29.5719H38.2955C37.7311 29.5878 37.1692 29.4907 36.643 29.2861C36.1169 29.0816 35.6373 28.7738 35.2324 28.381C34.8276 27.9883 34.5059 27.5184 34.2863 26.9994C34.0667 26.4804 33.9536 25.9226 33.9538 25.3592C33.9538 22.621 36.093 21.0132 38.8162 21.0132H46.05V25.3452H41.7224V24.3623H39.7099C39.4436 24.3641 39.1887 24.4705 39.0004 24.6584C38.8121 24.8463 38.7055 25.1006 38.7037 25.3663C38.709 25.6315 38.8165 25.8846 39.0039 26.0728Z"
          fill="#133369"></path>
</svg>