<svg width="79" height="30" viewBox="0 0 79 30" fill="none" xmlns="http://www.w3.org/2000/svg">
<path d="M0 7.20656H2.50911V22.7932H0V29.9997H16.2266V22.7932H13.7175V7.20656H16.2266V0H0V7.20656Z" fill="white"/>
<path d="M44.622 14.3983C45.9156 13.8088 46.9978 12.8367 47.723 11.6129C48.4483 10.389 48.7818 8.97213 48.6787 7.55278C48.6787 3.67117 45.6738 0.0302734 40.4753 0.0302734H19.2305V7.23683H21.7396V22.7934H19.2305V29.9999H41.9176C44.0444 29.8683 46.0378 28.9176 47.4802 27.3471C48.9226 25.7765 49.702 23.7079 49.6553 21.5747C49.6438 20.0186 49.1507 18.5044 48.2439 17.2406C47.337 15.9769 46.0611 15.0259 44.592 14.5186L44.622 14.3983ZM36.5238 22.8385H32.0164V18.325H36.5238C37.1191 18.3328 37.6878 18.5731 38.1088 18.9946C38.5298 19.4162 38.7697 19.9857 38.7775 20.5818C38.7775 20.8787 38.7186 21.1727 38.6042 21.4466C38.4899 21.7206 38.3223 21.9691 38.1112 22.1776C37.9001 22.3862 37.6498 22.5507 37.3747 22.6615C37.0996 22.7724 36.8053 22.8274 36.5088 22.8235L36.5238 22.8385ZM32.0014 11.5096V7.20674H36.3285C36.8906 7.22223 37.425 7.45479 37.8198 7.85577C38.2147 8.25676 38.4394 8.7951 38.4469 9.35818C38.4319 9.92545 38.2012 10.4656 37.8019 10.8682C37.4026 11.2709 36.8648 11.5057 36.2984 11.5247L32.0014 11.5096Z" fill="white"/>
<path d="M63.4344 11.5247C62.8668 11.5093 62.327 11.2757 61.9269 10.8722C61.5268 10.4688 61.2973 9.92661 61.2859 9.35818C61.2898 8.7888 61.5175 8.24386 61.9195 7.84124C62.3216 7.43862 62.8658 7.21068 63.4344 7.20674H67.7315V9.31304H76.9716V0.0302734H61.5263C55.7118 0.0302734 51.1443 3.47558 51.1443 9.34313C51.1438 10.5504 51.3852 11.7455 51.8541 12.8577C52.323 13.97 53.01 14.9767 53.8743 15.8183C54.7386 16.66 55.7628 17.3195 56.8862 17.7578C58.0096 18.1961 59.2093 18.4043 60.4145 18.3701H66.5295C67.1272 18.3701 67.7004 18.6079 68.1231 19.0311C68.5457 19.4544 68.7832 20.0284 68.7832 20.6269C68.7832 21.2254 68.5457 21.7994 68.1231 22.2227C67.7004 22.6459 67.1272 22.8836 66.5295 22.8836H62.0221V20.672H52.7068V29.9999H69.6696C72.143 29.9959 74.5138 29.0103 76.2627 27.2591C78.0116 25.5078 78.9959 23.1337 78.9999 20.657C78.9921 19.4388 78.7431 18.2344 78.2671 17.1133C77.7912 15.9923 77.0978 14.9769 76.2272 14.1261C75.3566 13.2753 74.326 12.6059 73.1952 12.1568C72.0644 11.7077 70.8559 11.4877 69.6396 11.5096L63.4344 11.5247Z" fill="white"/>
</svg>
