<svg xmlns="http://www.w3.org/2000/svg" viewBox="0 0 612.89 168.78">
  <defs>
    <style>
      .bcdfe7a0-7de2-4802-b7b5-7d1fa03b5141 {
        fill: #223b86;
      }

      .a40e1898-02c6-458b-875f-d3d54b4696b8 {
        fill: #fff;
      }
    </style>
  </defs>
  <g id="a08727d2-5eaf-4ba1-9ebe-8f19476c09df" data-name="Слой 1">
    <g>
      <rect class="bcdfe7a0-7de2-4802-b7b5-7d1fa03b5141" y="0.05" width="168.78" height="168.76"/>
      <polygon class="a40e1898-02c6-458b-875f-d3d54b4696b8" points="22.75 71.92 26.78 71.92 26.78 96.93 22.75 96.93 22.75 108.51 48.84 108.51 48.84 96.93 44.8 96.93 44.8 71.92 48.84 71.92 48.84 60.35 22.75 60.35 22.75 71.92"/>
      <path class="a40e1898-02c6-458b-875f-d3d54b4696b8" d="M74.69,78.85V71.92h7a3.48,3.48,0,0,1,3.4,3.45,3.56,3.56,0,0,1-3.45,3.48ZM81.9,97H74.69V89.8h7.23a3.66,3.66,0,0,1,3.62,3.6A3.59,3.59,0,0,1,81.9,97Zm13-13.54c.92-.27,6.52-3,6.52-11.08,0-6.23-4.84-12-13.19-12H54.11V71.92h4v25h-4v11.58H90.62c6.2,0,12.42-5.76,12.42-13.53,0-5.26-3.24-9.42-8.14-11.34Z"/>
      <path class="a40e1898-02c6-458b-875f-d3d54b4696b8" d="M124.69,78.85a3.54,3.54,0,0,1-3.45-3.48,3.47,3.47,0,0,1,3.45-3.45h6.91v3.39h14.83l0,0V60.35H121.61c-9.34,0-16.66,5.54-16.66,15,0,8.2,6.66,14.45,14.88,14.45h9.82a3.63,3.63,0,0,1,0,7.25h-7.23V93.52h-15v15H134.7a15,15,0,0,0,15-15,14.77,14.77,0,0,0-15-14.67Z"/>
    </g>
  </g>
  <g id="e89c0f7a-1186-4eeb-98ff-eda11bd76b7d" data-name="BrandName">
    <rect class="bcdfe7a0-7de2-4802-b7b5-7d1fa03b5141" x="607.26" y="0.04" width="5.63" height="168.8"/>
    <g>
      <path class="bcdfe7a0-7de2-4802-b7b5-7d1fa03b5141" d="M227.76,98.29V66.46H217.4V62.23h26.33v4.23H233.37V98.29Z"/>
      <path class="bcdfe7a0-7de2-4802-b7b5-7d1fa03b5141" d="M250.64,78.61V98.29h-5.26V71.35h3.3c1.29,0,1.85.57,2,3.71a10.35,10.35,0,0,1,7.72-4,4.59,4.59,0,0,1,1.45.21v4.32l-1.19-.05A11.88,11.88,0,0,0,250.64,78.61Z"/>
      <path class="bcdfe7a0-7de2-4802-b7b5-7d1fa03b5141" d="M278.66,95.3a10.08,10.08,0,0,1-8,3.3c-4.9,0-8.45-2.78-8.45-8,0-5.51,4.38-8.19,10.46-8.19a22.84,22.84,0,0,1,5.87.72V79.54c0-3.19-1.86-4.59-5.41-4.59a12.39,12.39,0,0,0-7.37,2.22h-1.65V73.25a20.64,20.64,0,0,1,9.69-2.31c6.39,0,10,2.31,10,8.24V98.29h-2.06C279.69,98.29,279,97.72,278.66,95.3Zm-.15-3.4V86.18a25.14,25.14,0,0,0-5-.51c-3.6,0-6.18,1.34-6.18,4.58s2.11,4.74,5,4.74A7.81,7.81,0,0,0,278.51,91.9Z"/>
      <path class="bcdfe7a0-7de2-4802-b7b5-7d1fa03b5141" d="M290.16,65.37a3.09,3.09,0,1,1,6.18,0,3.09,3.09,0,0,1-6.18,0Zm.41,32.92V71.35h2.94c2.05,0,2.31.62,2.31,4V98.29Z"/>
      <path class="bcdfe7a0-7de2-4802-b7b5-7d1fa03b5141" d="M308.14,74.75a17.18,17.18,0,0,1,10.3-3.81c3.76,0,6.9,1.54,6.9,7.41V98.29h-5.25V79.59c0-3.35-1.5-4.27-4.07-4.27-2.94,0-5.67,1.39-7.88,2.67v20.3h-5.26V71.35h3.3C307.47,71.35,308,71.92,308.14,74.75Z"/>
      <path class="bcdfe7a0-7de2-4802-b7b5-7d1fa03b5141" d="M331.69,65.37a3.09,3.09,0,1,1,6.18,0,3.09,3.09,0,0,1-6.18,0Zm.41,32.92V71.35H335c2.06,0,2.32.62,2.32,4V98.29Z"/>
      <path class="bcdfe7a0-7de2-4802-b7b5-7d1fa03b5141" d="M349.67,74.75A17.18,17.18,0,0,1,360,70.94c3.76,0,6.9,1.54,6.9,7.41V98.29h-5.25V79.59c0-3.35-1.5-4.27-4.07-4.27-2.94,0-5.67,1.39-7.88,2.67v20.3h-5.26V71.35h3.3C349,71.35,349.56,71.92,349.67,74.75Z"/>
      <path class="bcdfe7a0-7de2-4802-b7b5-7d1fa03b5141" d="M396.09,97.36c0,6.34-4.9,9.59-12.42,9.59a21.1,21.1,0,0,1-10.35-2.27v-4H375A13.19,13.19,0,0,0,383,103c4.9,0,7.88-1.7,7.88-6V94.12a11.25,11.25,0,0,1-8.29,3.5C377.08,97.62,372,94,372,84.85c0-10.1,5.67-13.91,11.33-13.91a10.67,10.67,0,0,1,7.83,2.93c.31-1.44,1-2.52,2.48-2.52h2.42Zm-5.26-7V77.53a8.33,8.33,0,0,0-6.18-2.37c-3.55,0-7.31,1.86-7.31,9.27,0,7.22,2.73,9.33,6.59,9.33A9.76,9.76,0,0,0,390.83,90.41Z"/>
      <path class="bcdfe7a0-7de2-4802-b7b5-7d1fa03b5141" d="M412.89,80.26c0-11.64,7.11-18.34,16.48-18.34,5.16,0,7.73,1.14,10.41,2.89v4.38h-2.16a10.8,10.8,0,0,0-8.09-3c-6.54,0-10.92,4.79-10.92,13.85,0,9.53,3.86,14.33,10.51,14.33a12,12,0,0,0,9.27-3.92h1.8v4.28a16.52,16.52,0,0,1-11.28,3.86C419.33,98.6,412.89,92,412.89,80.26Z"/>
      <path class="bcdfe7a0-7de2-4802-b7b5-7d1fa03b5141" d="M449.42,85.82c.26,6.39,3.14,8.81,8.19,8.81a11.42,11.42,0,0,0,7.47-2.47h1.7v3.66a16.55,16.55,0,0,1-9.94,2.78c-8.25,0-12.83-5.25-12.83-13.7,0-8.61,5.31-14,12.31-14s11.28,4.17,11.28,13c0,.72-.05,1.65-.05,1.85Zm.1-3.45H462.4c-.1-5.82-2.37-7.83-6.08-7.83C452.82,74.54,450.09,76.65,449.52,82.37Z"/>
      <path class="bcdfe7a0-7de2-4802-b7b5-7d1fa03b5141" d="M478.07,74.75a17.18,17.18,0,0,1,10.3-3.81c3.76,0,6.9,1.54,6.9,7.41V98.29H490V79.59c0-3.35-1.5-4.27-4.07-4.27-2.94,0-5.67,1.39-7.88,2.67v20.3h-5.26V71.35h3.3C477.4,71.35,478,71.92,478.07,74.75Z"/>
      <path class="bcdfe7a0-7de2-4802-b7b5-7d1fa03b5141" d="M499.55,71.35h3.25V64h5.25v7.32h6v3.71h-6V91c0,2.83,1.19,3.65,3.87,3.65h2.42v3.41a17.6,17.6,0,0,1-4.28.51c-4.58,0-7.26-1.91-7.26-6.95V75.06h-3.25Z"/>
      <path class="bcdfe7a0-7de2-4802-b7b5-7d1fa03b5141" d="M522.53,85.82c.26,6.39,3.15,8.81,8.2,8.81a11.37,11.37,0,0,0,7.46-2.47h1.7v3.66A16.53,16.53,0,0,1,530,98.6c-8.24,0-12.83-5.25-12.83-13.7,0-8.61,5.31-14,12.32-14s11.28,4.17,11.28,13c0,.72-.05,1.65-.05,1.85Zm.11-3.45h12.88c-.11-5.82-2.38-7.83-6.08-7.83C525.93,74.54,523.2,76.65,522.64,82.37Z"/>
      <path class="bcdfe7a0-7de2-4802-b7b5-7d1fa03b5141" d="M551.18,78.61V98.29h-5.25V71.35h3.29c1.29,0,1.86.57,2,3.71a10.37,10.37,0,0,1,7.73-4,4.52,4.52,0,0,1,1.44.21v4.32l-1.18-.05A11.91,11.91,0,0,0,551.18,78.61Z"/>
    </g>
  </g>
</svg>
