<svg width="72" height="72" viewBox="0 0 72 72" fill="none" xmlns="http://www.w3.org/2000/svg">
<path d="M60.7301 24.6891C60.3959 23.5153 60.3017 23.4617 59.085 23.3846C57.247 23.2689 55.4113 23.149 53.6012 23.0012C52.5858 22.9198 52.6094 22.8962 52.7229 21.9044C52.9928 19.6338 53.2241 17.3524 53.4855 15.0003C53.4576 14.6126 53.1984 14.2806 52.8278 14.1606C49.8332 12.6976 46.8428 11.2259 43.8569 9.74576C43.4071 9.48228 42.8351 9.57224 42.486 9.95996C40.753 11.6479 38.9986 13.3102 37.2657 15.0003C37.1543 15.1674 36.9679 15.2681 36.7666 15.2681C36.5652 15.2681 36.3789 15.1674 36.2675 15.0003C34.391 13.1453 32.4952 11.3202 30.6082 9.47816C30.0598 8.92978 29.8027 8.87406 29.1216 9.20397C26.1226 10.6413 23.1492 12.0936 20.1611 13.5139C19.6898 13.7024 19.4285 14.2036 19.542 14.6985C19.8055 17.117 20.0347 19.5461 20.3046 21.9645C20.3689 22.1552 20.3325 22.3651 20.2061 22.5215C20.0818 22.6778 19.8847 22.7592 19.6855 22.7378C17.0207 23.0784 14.3603 23.4511 11.6957 23.8346C11.2094 23.8538 10.8088 24.2201 10.7467 24.7C10.0505 27.9024 9.34789 31.122 8.65172 34.3525C8.48035 35.1536 8.57461 35.3443 9.24934 35.7792L15.2815 39.575C15.8299 39.9092 15.8299 40.0141 15.5171 40.5668L11.5521 47.3875C11.1579 48.0623 11.1794 48.2872 11.6785 48.8849L17.9848 56.4574C18.1069 56.6952 18.3254 56.8709 18.5824 56.9415C18.8416 57.0122 19.118 56.9737 19.345 56.8302L25.9963 54.4182C26.7696 54.1376 26.8125 54.1547 27.0931 54.9001C28.0463 57.2907 29.0124 59.6813 29.9399 62.085C30.0877 62.6612 30.6297 63.0468 31.223 62.9954H40.9737C41.8242 62.9954 41.9891 62.8519 42.2461 62.0358C42.9916 59.6666 43.7435 57.2974 44.4718 54.9068C44.4782 54.714 44.5853 54.5405 44.7545 54.4463C44.9216 54.3542 45.1273 54.3542 45.2943 54.4506C47.7621 55.1918 50.2298 55.8986 52.7084 56.6441C53.7173 56.9397 53.8759 56.8904 54.4842 56.0572L60.1994 48.2663C60.6321 47.6751 60.6321 47.4331 60.1994 46.8075C58.8606 44.8175 57.5347 42.8211 56.1809 40.8352H56.1787C56.0373 40.6895 55.9752 40.4817 56.0181 40.2804C56.0588 40.0811 56.198 39.9141 56.3886 39.8369C58.5393 38.3182 60.6707 36.7716 62.8107 35.2314C63.4148 34.7987 63.5133 34.546 63.3591 33.9097C62.4765 30.8315 61.6004 27.7575 60.7307 24.6904L60.7301 24.6891ZM35.8562 46.1806C32.1675 46.1806 28.7574 44.2121 26.9127 41.0181C25.0683 37.8221 25.0683 33.887 26.9127 30.6911C28.757 27.4972 32.1672 25.5286 35.8562 25.5286C39.5451 25.5286 42.9549 27.4972 44.7997 30.6911C46.6441 33.8871 46.6441 37.8222 44.7997 41.0181C42.9553 44.212 39.5451 46.1806 35.8562 46.1806Z" stroke="url(#paint0_linear_2667_16069)" stroke-width="1.5" stroke-linejoin="bevel"/>
<defs>
<linearGradient id="paint0_linear_2667_16069" x1="8.57715" y1="36" x2="63.4238" y2="36" gradientUnits="userSpaceOnUse">
<stop stop-color="#2F6298"/>
<stop offset="1" stop-color="#438DB0"/>
</linearGradient>
</defs>
</svg>
