<svg width="72" height="72" viewBox="0 0 72 72" fill="none" xmlns="http://www.w3.org/2000/svg">
<path d="M60.7311 24.6891C60.3969 23.5153 60.3026 23.4617 59.0859 23.3846C57.248 23.2689 55.4122 23.149 53.6021 23.0012C52.5868 22.9198 52.6103 22.8962 52.7239 21.9044C52.9938 19.6338 53.2251 17.3524 53.4864 15.0003C53.4586 14.6126 53.1994 14.2806 52.8288 14.1606C49.8342 12.6976 46.8438 11.2259 43.8579 9.74576C43.4081 9.48228 42.8361 9.57224 42.487 9.95996C40.754 11.6479 38.9996 13.3102 37.2667 15.0003C37.1553 15.1674 36.9689 15.2681 36.7676 15.2681C36.5662 15.2681 36.3798 15.1674 36.2684 15.0003C34.3919 13.1453 32.4962 11.3202 30.6092 9.47816C30.0608 8.92978 29.8037 8.87406 29.1226 9.20397C26.1236 10.6413 23.1502 12.0936 20.1621 13.5139C19.6908 13.7024 19.4295 14.2036 19.543 14.6985C19.8065 17.117 20.0357 19.5461 20.3056 21.9645C20.3698 22.1552 20.3334 22.3651 20.207 22.5215C20.0828 22.6778 19.8857 22.7592 19.6865 22.7378C17.0217 23.0784 14.3613 23.4511 11.6966 23.8346C11.2104 23.8538 10.8098 24.2201 10.7477 24.7C10.0515 27.9024 9.34886 31.122 8.6527 34.3525C8.48133 35.1536 8.57558 35.3443 9.25032 35.7792L15.2825 39.575C15.8309 39.9092 15.8309 40.0141 15.5181 40.5668L11.5531 47.3875C11.1589 48.0623 11.1803 48.2872 11.6795 48.8849L17.9858 56.4574C18.1079 56.6952 18.3264 56.8709 18.5834 56.9415C18.8426 57.0122 19.119 56.9737 19.346 56.8302L25.9973 54.4182C26.7706 54.1376 26.8134 54.1547 27.094 54.9001C28.0473 57.2907 29.0134 59.6813 29.9409 62.085C30.0887 62.6612 30.6306 63.0468 31.224 62.9954H40.9747C41.8251 62.9954 41.9901 62.8519 42.2471 62.0358C42.9926 59.6666 43.7445 57.2974 44.4728 54.9068C44.4792 54.714 44.5863 54.5405 44.7555 54.4463C44.9226 54.3542 45.1282 54.3542 45.2953 54.4506C47.763 55.1918 50.2307 55.8986 52.7094 56.6441C53.7183 56.9397 53.8768 56.8904 54.4852 56.0572L60.2004 48.2663C60.6331 47.6751 60.6331 47.4331 60.2004 46.8075C58.8616 44.8175 57.5356 42.8211 56.1818 40.8352H56.1797C56.0383 40.6895 55.9762 40.4817 56.019 40.2804C56.0597 40.0811 56.199 39.9141 56.3896 39.8369C58.5403 38.3182 60.6717 36.7716 62.8117 35.2314C63.4158 34.7987 63.5143 34.546 63.3601 33.9097C62.4775 30.8315 61.6014 27.7575 60.7317 24.6904L60.7311 24.6891ZM35.8572 46.1806C32.1684 46.1806 28.7584 44.2121 26.9137 41.0181C25.0693 37.8221 25.0693 33.887 26.9137 30.6911C28.758 27.4972 32.1682 25.5286 35.8572 25.5286C39.5461 25.5286 42.9559 27.4972 44.8007 30.6911C46.645 33.8871 46.645 37.8222 44.8007 41.0181C42.9563 44.212 39.5461 46.1806 35.8572 46.1806Z" stroke="#0827C4" stroke-width="1.5" stroke-linejoin="bevel"/>
</svg>
