<svg width="72" height="72" viewBox="0 0 72 72" fill="none" xmlns="http://www.w3.org/2000/svg">
<path d="M7 9.60986V55.9369H44.4529V61.4126L51.1617 59.2263L57.8706 61.4126V55.9369H66V9.60986H7ZM54.4134 56.6499L51.1616 55.5903L47.9098 56.6499V52.6946C48.9142 53.1045 50.0116 53.3323 51.1616 53.3323C52.3117 53.3323 53.409 53.1045 54.4134 52.6946V56.6499ZM51.1616 49.8754C48.306 49.8754 45.9829 47.5522 45.9829 44.6967C45.9829 41.8412 48.3061 39.5179 51.1616 39.5179C54.0171 39.5179 56.3404 41.8412 56.3404 44.6967C56.3404 47.5522 54.0172 49.8754 51.1616 49.8754ZM62.543 52.4798H57.8704V50.1263C59.0743 48.6417 59.7975 46.7523 59.7975 44.6965C59.7975 39.9347 55.9234 36.0608 51.1617 36.0608C46.4 36.0608 42.526 39.9348 42.526 44.6965C42.526 46.7523 43.2492 48.6417 44.453 50.1263V52.4798H10.457V13.0669H62.543V52.4798Z" fill="#0827C4"/>
<path fill-rule="evenodd" clip-rule="evenodd" d="M45.4162 54.9736V60.0855L51.1617 58.2132L56.9073 60.0855V54.9736H65.0367V10.5731H7.96327V54.9736H45.4162ZM7 9.60986H66V55.9369H57.8706V61.4126L51.1617 59.2263L44.4529 61.4126V55.9369H7V9.60986ZM55.3767 57.9769L51.1616 56.6035L46.9466 57.9769V51.2611L48.2738 51.8028C49.1659 52.1668 50.1399 52.3691 51.1616 52.3691C52.1833 52.3691 53.1573 52.1668 54.0494 51.8028L55.3767 51.2611V57.9769ZM51.1616 55.5903L54.4134 56.6499V52.6946C54.1009 52.8221 53.7794 52.932 53.4501 53.0229C52.7211 53.2242 51.9538 53.3323 51.1616 53.3323C50.3694 53.3323 49.6021 53.2242 48.8731 53.0229C48.5438 52.932 48.2223 52.8221 47.9098 52.6946V56.6499L51.1616 55.5903ZM63.5062 53.4431H56.9072V49.7848L57.1223 49.5196C58.1928 48.1994 58.8342 46.5223 58.8342 44.6965C58.8342 40.4667 55.3915 37.024 51.1617 37.024C46.932 37.024 43.4892 40.4668 43.4892 44.6965C43.4892 46.5223 44.1307 48.1994 45.2012 49.5196L45.4163 49.7848V53.4431H9.49377V12.1036H63.5062V53.4431ZM51.1616 50.8387C47.774 50.8387 45.0196 48.0841 45.0196 44.6967C45.0196 41.3092 47.7741 38.5546 51.1616 38.5546C54.5491 38.5546 57.3036 41.3092 57.3036 44.6967C57.3036 48.0841 54.5493 50.8387 51.1616 50.8387ZM45.9829 44.6967C45.9829 47.5522 48.306 49.8754 51.1616 49.8754C54.0172 49.8754 56.3404 47.5522 56.3404 44.6967C56.3404 41.8411 54.0171 39.5179 51.1616 39.5179C48.3061 39.5179 45.9829 41.8411 45.9829 44.6967ZM62.543 52.4798V13.0669H10.457V52.4798H44.453V50.1263C43.2492 48.6417 42.526 46.7523 42.526 44.6965C42.526 39.9348 46.4 36.0608 51.1617 36.0608C55.9234 36.0608 59.7975 39.9347 59.7975 44.6965C59.7975 46.7523 59.0743 48.6417 57.8704 50.1263V52.4798H62.543Z" fill="#F8F7F7"/>
<path d="M55.6328 19.0723H17.375V22.5293H55.6328V19.0723Z" fill="#0827C4"/>
<path fill-rule="evenodd" clip-rule="evenodd" d="M54.6695 20.0355H18.3383V21.566H54.6695V20.0355ZM55.6328 19.0723V22.5293H17.375V19.0723H55.6328Z" fill="white"/>
<path d="M55.6328 27.1211H17.375V30.5781H55.6328V27.1211Z" fill="#0827C4"/>
<path fill-rule="evenodd" clip-rule="evenodd" d="M54.6695 28.0844H18.3383V29.6149H54.6695V28.0844ZM55.6328 27.1211V30.5781H17.375V27.1211H55.6328Z" fill="white"/>
<path d="M36.5039 35.1704H17.375V38.6274H36.5039V35.1704Z" fill="#0827C4"/>
<path fill-rule="evenodd" clip-rule="evenodd" d="M35.5406 36.1337H18.3383V37.6642H35.5406V36.1337ZM36.5039 35.1704V38.6274H17.375V35.1704H36.5039Z" fill="white"/>
</svg>
