<svg width="72" height="72" viewBox="0 0 72 72" fill="none" xmlns="http://www.w3.org/2000/svg">
<path d="M57.3125 20.5H14.6875C13.6174 20.5 12.75 21.3674 12.75 22.4375V53.4375C12.75 54.5076 13.6174 55.375 14.6875 55.375H57.3125C58.3826 55.375 59.25 54.5076 59.25 53.4375V22.4375C59.25 21.3674 58.3826 20.5 57.3125 20.5Z" stroke="#0827C4" stroke-width="1.4"/>
<path d="M45.6875 20.5V16.625C45.6875 15.5973 45.2792 14.6117 44.5525 13.885C43.8258 13.1583 42.8402 12.75 41.8125 12.75H30.1875C29.1598 12.75 28.1742 13.1583 27.4475 13.885C26.7208 14.6117 26.3125 15.5973 26.3125 16.625V20.5" stroke="#0827C4" stroke-width="1.4"/>
<path d="M59.25 33.6533C52.1844 37.7415 44.1631 39.888 36 39.8751C27.8372 39.8881 19.8161 37.7425 12.75 33.6557" stroke="#0827C4" stroke-width="1.4"/>
<path d="M32.125 32.125H39.875" stroke="#0827C4" stroke-width="1.4"/>
</svg>
