<svg width="72" height="72" viewBox="0 0 72 72" fill="none" xmlns="http://www.w3.org/2000/svg">
<path d="M21.3125 37.8125H32.1875" stroke="#0827C4" stroke-width="1.4"/>
<path d="M21.3125 30.5625H32.1875" stroke="#0827C4" stroke-width="1.4"/>
<path d="M49.4062 45.0625C54.9118 45.0625 59.375 40.5993 59.375 35.0938C59.375 29.5882 54.9118 25.125 49.4062 25.125C43.9007 25.125 39.4375 29.5882 39.4375 35.0938C39.4375 40.5993 43.9007 45.0625 49.4062 45.0625Z" stroke="#0827C4" stroke-width="1.4"/>
<path d="M43.0625 50.5H14.0625C13.5818 50.5 13.1208 50.309 12.7809 49.9691C12.441 49.6292 12.25 49.1682 12.25 48.6875V19.6875C12.25 19.2068 12.441 18.7458 12.7809 18.4059C13.1208 18.066 13.5818 17.875 14.0625 17.875H53.9375C54.4182 17.875 54.8792 18.066 55.2191 18.4059C55.559 18.7458 55.75 19.2068 55.75 19.6875V27.4042" stroke="#0827C4" stroke-width="1.4"/>
<path d="M43.0625 42.7832V57.7499L49.4062 54.1249L55.75 57.7499V42.7832" stroke="#0827C4" stroke-width="1.4"/>
</svg>
