<svg width="48" height="48" viewBox="0 0 48 48" fill="none" xmlns="http://www.w3.org/2000/svg">
<path d="M20.2877 13.2551C21.8609 9.33307 22.6475 7.37207 24.0002 7.37207C25.3528 7.37207 26.1394 9.33307 27.7127 13.2551L27.7859 13.4377C28.6747 15.6534 29.1191 16.7613 30.0248 17.4347C30.9305 18.1081 32.1194 18.2145 34.4972 18.4275L34.9271 18.466C38.8187 18.8145 40.7646 18.9888 41.1809 20.2267C41.5973 21.4647 40.1522 22.7794 37.2621 25.4088L36.2976 26.2863C34.8346 27.6174 34.1031 28.2829 33.7621 29.1551C33.6985 29.3178 33.6456 29.4845 33.6038 29.6542C33.3797 30.5635 33.5939 31.5289 34.0223 33.4599L34.1557 34.0609C34.943 37.6096 35.3367 39.3839 34.6494 40.1493C34.3925 40.4352 34.0587 40.6412 33.6879 40.7423C32.6955 41.0131 31.2865 39.865 28.4686 37.5689C26.6183 36.0611 25.6931 35.3072 24.6309 35.1376C24.2131 35.0709 23.7873 35.0709 23.3695 35.1376C22.3073 35.3072 21.3821 36.0611 19.5318 37.5689C16.7139 39.865 15.3049 41.0131 14.3125 40.7423C13.9417 40.6412 13.6079 40.4352 13.351 40.1493C12.6637 39.3839 13.0573 37.6096 13.8447 34.0609L13.978 33.4599C14.4064 31.5289 14.6207 30.5635 14.3965 29.6542C14.3547 29.4845 14.3019 29.3178 14.2383 29.1551C13.8973 28.2829 13.1658 27.6174 11.7028 26.2863L10.7382 25.4088C7.84815 22.7794 6.40311 21.4647 6.81946 20.2267C7.23582 18.9888 9.18164 18.8145 13.0733 18.466L13.5031 18.4275C15.881 18.2145 17.0699 18.1081 17.9756 17.4347C18.8813 16.7613 19.3257 15.6534 20.2145 13.4377L20.2877 13.2551Z" stroke="#33363F" stroke-width="2"/>
</svg>
