<svg width="146" height="40" viewBox="0 0 146 40" fill="none" xmlns="http://www.w3.org/2000/svg">
<g clip-path="url(#clip0_473_2)">
<path d="M40.263 0H0V40H40.263V0Z" fill="url(#paint0_linear_473_2)"/>
<path d="M5.42578 17.0354H6.38618V22.9627H5.42578V25.7071H11.6505V22.9627H10.6853V17.0354H11.6505V14.291H5.42578V17.0354Z" fill="white"/>
<path d="M17.8155 18.6777V17.0353H19.4837C19.6993 17.0396 19.9046 17.1275 20.056 17.2802C20.2074 17.433 20.2927 17.6385 20.2939 17.8529C20.2892 18.0689 20.2012 18.2749 20.0483 18.4284C19.8953 18.5818 19.6889 18.671 19.4718 18.6777H17.8155ZM19.5409 22.9886H17.8155V21.2728H19.5409C19.7681 21.2752 19.9854 21.3657 20.1465 21.5251C20.3076 21.6844 20.3999 21.9 20.4036 22.1259C20.4048 22.2392 20.3834 22.3515 20.3406 22.4564C20.2977 22.5614 20.2343 22.6568 20.154 22.7371C20.0737 22.8174 19.9781 22.8809 19.8729 22.9241C19.7676 22.9673 19.6548 22.9892 19.5409 22.9886ZM22.6389 19.7726C22.8606 19.7086 24.1927 19.0616 24.1927 17.1467C24.1927 15.6702 23.0393 14.3027 21.047 14.3027H12.9062V17.0353H13.8595V22.9602H12.9062V25.7046H21.6166C23.0965 25.7046 24.5788 24.3395 24.5788 22.498C24.5788 21.2514 23.8043 20.2655 22.6366 19.8105L22.6389 19.7726Z" fill="white"/>
<path d="M29.7442 18.6775C29.5267 18.672 29.3197 18.5832 29.1664 18.4295C29.0132 18.2758 28.9257 18.0692 28.922 17.8528C28.9227 17.6361 29.0095 17.4285 29.1635 17.2753C29.3176 17.1221 29.5264 17.0358 29.7442 17.0351H31.391V17.8362H34.9347V14.2812H29.0102C26.782 14.2812 25.0352 15.5942 25.0352 17.8362C25.0352 19.7772 26.6223 21.2608 28.5836 21.2608H30.9286C31.1499 21.2723 31.3583 21.3679 31.5108 21.5277C31.6633 21.6876 31.7483 21.8995 31.7483 22.1199C31.7483 22.3402 31.6633 22.5522 31.5108 22.712C31.3583 22.8718 31.1499 22.9674 30.9286 22.979H29.2032V22.1542H25.6286V25.7091H32.1297C33.0778 25.7091 33.987 25.3346 34.6574 24.6679C35.3278 24.0013 35.7044 23.097 35.7044 22.1542C35.701 21.6908 35.6052 21.2326 35.4225 20.8063C35.2398 20.38 34.9738 19.9939 34.64 19.6705C34.3062 19.3472 33.9111 19.0929 33.4778 18.9224C33.0444 18.752 32.5814 18.6687 32.1154 18.6775H29.7442Z" fill="white"/>
<path d="M146 0H144.658V40H146V0Z" fill="url(#paint1_linear_473_2)"/>
<path d="M54.2775 23.3112V15.7653H51.8086V14.7651H58.0834V15.7653H55.6145V23.3112H54.2775Z" fill="#424A52"/>
<path d="M59.7301 18.6467V23.3108H58.4766V16.9261H59.263C59.5704 16.9261 59.7039 17.0589 59.7396 17.803C59.9587 17.5216 60.2367 17.2911 60.5544 17.1274C60.8722 16.9637 61.2219 16.8707 61.5794 16.855C61.6963 16.8539 61.8127 16.8699 61.9249 16.9024V17.9286H61.6414C60.9364 17.9219 60.2545 18.1781 59.7301 18.6467Z" fill="#424A52"/>
<path d="M66.4085 22.6024C66.1687 22.8648 65.8732 23.071 65.5436 23.2063C65.2139 23.3415 64.8582 23.4024 64.502 23.3844C63.3343 23.3844 62.4883 22.7232 62.4883 21.4885C62.4883 20.1826 63.5321 19.5475 64.981 19.5475C65.4528 19.5438 65.923 19.6012 66.3799 19.7181V18.8673C66.3799 18.1089 65.9367 17.7795 65.0907 17.7795C64.4639 17.765 63.8487 17.9493 63.3343 18.3056H62.9411V17.3766C63.6519 17.0096 64.4422 16.8208 65.2432 16.8268C66.766 16.8268 67.6263 17.3766 67.6263 18.782V23.311H67.1354C66.654 23.311 66.4896 23.1759 66.4085 22.6024ZM66.3728 21.7966V20.441C65.9808 20.36 65.5815 20.3195 65.1812 20.3201C64.3233 20.3201 63.7084 20.6377 63.7084 21.4055C63.7084 22.1734 64.2113 22.5289 64.9 22.5289C65.1849 22.5278 65.4657 22.4619 65.721 22.3362C65.9763 22.2105 66.1992 22.0283 66.3728 21.8037V21.7966Z" fill="#424A52"/>
<path d="M69.1484 15.5092C69.1484 15.3149 69.226 15.1287 69.3641 14.9913C69.5022 14.854 69.6895 14.7769 69.8848 14.7769C70.0801 14.7769 70.2674 14.854 70.4055 14.9913C70.5436 15.1287 70.6212 15.3149 70.6212 15.5092C70.6212 15.7034 70.5436 15.8897 70.4055 16.027C70.2674 16.1643 70.0801 16.2415 69.8848 16.2415C69.6895 16.2415 69.5022 16.1643 69.3641 16.027C69.226 15.8897 69.1484 15.7034 69.1484 15.5092ZM69.2461 23.311V16.9264H69.9468C70.4353 16.9264 70.4973 17.071 70.4973 17.8744V23.311H69.2461Z" fill="#424A52"/>
<path d="M73.4332 17.732C74.1292 17.1703 74.9918 16.8521 75.8878 16.8267C76.7839 16.8267 77.5322 17.194 77.5322 18.5852V23.3108H76.281V18.879C76.281 18.0851 75.9236 17.8647 75.3111 17.8647C74.6105 17.8647 73.9599 18.1941 73.4332 18.4998V23.3108H72.1797V16.9262H72.9661C73.2735 16.9262 73.3999 17.0637 73.4332 17.732Z" fill="#424A52"/>
<path d="M79.0449 15.5092C79.0449 15.3149 79.1225 15.1287 79.2606 14.9913C79.3987 14.854 79.586 14.7769 79.7813 14.7769C79.9766 14.7769 80.1639 14.854 80.302 14.9913C80.4401 15.1287 80.5177 15.3149 80.5177 15.5092C80.5177 15.7034 80.4401 15.8897 80.302 16.027C80.1639 16.1643 79.9766 16.2415 79.7813 16.2415C79.586 16.2415 79.3987 16.1643 79.2606 16.027C79.1225 15.8897 79.0449 15.7034 79.0449 15.5092ZM79.1426 23.311V16.9264H79.8337C80.3247 16.9264 80.3866 17.071 80.3866 17.8744V23.311H79.1426Z" fill="#424A52"/>
<path d="M83.3304 17.732C84.0283 17.1688 84.8937 16.8505 85.7921 16.8267C86.6882 16.8267 87.4365 17.194 87.4365 18.5852V23.3108H86.1853V18.879C86.1853 18.0851 85.8279 17.8647 85.2154 17.8647C84.5148 17.8647 83.8642 18.1941 83.3375 18.4998V23.3108H82.084V16.9262H82.8704C83.1707 16.9262 83.3041 17.0637 83.3304 17.732Z" fill="#424A52"/>
<path d="M94.392 23.0904C94.392 24.5929 93.2243 25.3608 91.4322 25.3608C90.5777 25.3924 89.7291 25.2081 88.9656 24.8252V23.8772H89.366C89.9242 24.263 90.5932 24.4584 91.2725 24.4342C92.4402 24.4342 93.1504 24.0313 93.1504 23.0122V22.3202C92.8964 22.5865 92.5898 22.7978 92.2498 22.941C91.9099 23.0841 91.5439 23.1559 91.1748 23.152C89.8736 23.152 88.6701 22.2965 88.6701 20.1232C88.6511 17.7319 90.0094 16.8266 91.3583 16.8266C91.7005 16.8118 92.0421 16.8659 92.3628 16.9856C92.6835 17.1053 92.9765 17.2883 93.2243 17.5234C93.2982 17.1821 93.4626 16.9262 93.8153 16.9262H94.392V23.0904ZM93.1385 21.4314V18.3908C92.945 18.2016 92.7143 18.0541 92.4609 17.9574C92.2075 17.8608 91.9368 17.8171 91.6657 17.8291C90.8197 17.8291 89.9236 18.2675 89.9236 20.026C89.9236 21.7348 90.5742 22.2348 91.4941 22.2348C91.8078 22.2202 92.1152 22.1426 92.3978 22.0065C92.6804 21.8705 92.9324 21.6789 93.1385 21.4433V21.4314Z" fill="#424A52"/>
<path d="M98.3965 19.038C98.3965 16.2793 100.091 14.6938 102.324 14.6938C103.554 14.6938 104.166 14.9617 104.805 15.3764V16.4144H104.29C104.035 16.1705 103.732 15.9815 103.4 15.8592C103.069 15.7368 102.715 15.6838 102.362 15.7034C100.803 15.7034 99.7596 16.8387 99.7596 18.9882C99.7596 21.2468 100.68 22.382 102.264 22.382C102.678 22.3957 103.09 22.32 103.471 22.16C103.853 22 104.195 21.7596 104.473 21.4553H104.902V22.4673C104.153 23.0962 103.194 23.4234 102.214 23.3844C99.9312 23.3844 98.3965 21.8037 98.3965 19.038Z" fill="#14B4C9"/>
<path d="M107.102 20.3555C107.164 21.8699 107.851 22.4434 109.054 22.4434C109.698 22.4642 110.329 22.2567 110.834 21.8581H111.239V22.7231C110.541 23.1892 109.711 23.4209 108.87 23.3843C106.904 23.3843 105.811 22.1377 105.811 20.1446C105.811 18.1515 107.076 16.8267 108.744 16.8267C110.412 16.8267 111.432 17.8173 111.432 19.9076C111.432 20.0782 111.42 20.2963 111.42 20.346L107.102 20.3555ZM107.126 19.5379H110.196C110.172 18.1586 109.631 17.6822 108.747 17.6822C107.912 17.6822 107.262 18.1823 107.126 19.5379Z" fill="#14B4C9"/>
<path d="M113.93 17.732C114.626 17.1703 115.489 16.8521 116.385 16.8267C117.281 16.8267 118.029 17.194 118.029 18.5852V23.3108H116.773V18.879C116.773 18.0851 116.416 17.8647 115.803 17.8647C115.103 17.8647 114.452 18.1941 113.925 18.4998V23.3108H112.672V16.9262H113.458C113.77 16.9262 113.913 17.0637 113.93 17.732Z" fill="#14B4C9"/>
<path d="M119.049 16.9262H119.823V15.1914H121.074V16.9262H122.504V17.8031H121.074V21.595C121.074 22.2681 121.358 22.4624 121.997 22.4624H122.573V23.2682C122.24 23.3522 121.897 23.3936 121.553 23.3914C120.462 23.3914 119.823 22.9388 119.823 21.7325V17.8031H119.049V16.9262Z" fill="#14B4C9"/>
<path d="M124.525 20.3557C124.587 21.8701 125.276 22.4436 126.48 22.4436C127.123 22.4648 127.754 22.2573 128.257 21.8583H128.663V22.7233C127.968 23.1873 127.142 23.4189 126.306 23.3845C124.342 23.3845 123.248 22.1379 123.248 20.1353C123.248 18.1327 124.513 16.8174 126.184 16.8174C127.855 16.8174 128.872 17.808 128.872 19.8983C128.872 20.069 128.86 20.287 128.86 20.3368L124.525 20.3557ZM124.552 19.5381H127.621C127.595 18.1588 127.054 17.6824 126.172 17.6824C125.336 17.6824 124.685 18.1825 124.552 19.5381Z" fill="#14B4C9"/>
<path d="M131.353 18.6467V23.3108H130.102V16.9262H130.886C131.193 16.9262 131.329 17.0589 131.362 17.803C131.582 17.5216 131.86 17.291 132.178 17.1273C132.496 16.9636 132.847 16.8707 133.204 16.8551C133.321 16.8538 133.436 16.8697 133.548 16.9025V17.9286H133.266C132.561 17.922 131.878 18.1782 131.353 18.6467Z" fill="#14B4C9"/>
</g>
<defs>
<linearGradient id="paint0_linear_473_2" x1="0.00953164" y1="40.0095" x2="40.0303" y2="-0.231433" gradientUnits="userSpaceOnUse">
<stop stop-color="#251F4D"/>
<stop offset="1" stop-color="#4574B8"/>
</linearGradient>
<linearGradient id="paint1_linear_473_2" x1="145.328" y1="40" x2="145.328" y2="0" gradientUnits="userSpaceOnUse">
<stop stop-color="#243F90"/>
<stop offset="1" stop-color="#14B4C9"/>
</linearGradient>
<clipPath id="clip0_473_2">
<rect width="146" height="40" fill="white"/>
</clipPath>
</defs>
</svg>
