<svg width="146" height="56" viewBox="0 0 146 56" fill="none" xmlns="http://www.w3.org/2000/svg">
<g clip-path="url(#clip0_502_10)">
<path d="M145.902 0.00830078H144.097V55.9958H145.902V0.00830078Z" fill="url(#paint0_linear_502_10)"/>
<mask id="mask0_502_10" style="mask-type:luminance" maskUnits="userSpaceOnUse" x="144" y="0" width="2" height="56">
<path d="M145.902 0.00830078H144.097V55.9958H145.902V0.00830078Z" fill="white"/>
</mask>
<g mask="url(#mask0_502_10)">
<path d="M144.098 0.00582837L144.001 55.9974L145.904 56.0008L146.001 0.00916222L144.098 0.00582837Z" fill="url(#paint1_linear_502_10)"/>
</g>
<path d="M75.569 33.8294V23.3965H72.1653V22.0127H80.8173V23.3965H77.4136V33.8294H75.5669H75.569Z" fill="#184188"/>
<path d="M82.4451 27.3818V33.8294H80.7172V25.0006H81.801C82.2241 25.0006 82.4096 25.1855 82.4451 26.2161C83.037 25.5408 83.8853 24.9154 84.9858 24.9154C85.188 24.9154 85.3589 24.9487 85.459 24.9819V26.399C85.459 26.399 85.138 26.3824 85.0692 26.3824C83.8666 26.3824 83.0037 26.8894 82.4451 27.3776V27.3818Z" fill="#184188"/>
<path d="M91.3722 32.8508C90.7115 33.5593 89.9153 33.9312 88.7314 33.9312C87.1223 33.9312 85.9551 33.0191 85.9551 31.2986C85.9551 29.493 87.3953 28.614 89.3921 28.614C90.155 28.614 90.7136 28.6992 91.3222 28.8509V27.6852C91.3222 26.638 90.7136 26.183 89.5443 26.183C88.4938 26.183 87.6809 26.5029 87.1223 26.9081H86.5804V25.6261C87.3599 25.2375 88.3416 24.8656 89.7631 24.8656C91.862 24.8656 93.0647 25.6261 93.0647 27.5668V33.8294H92.3873C91.7099 33.8294 91.4723 33.6445 91.3722 32.8508ZM91.3222 31.737V29.8628C90.8303 29.761 90.2884 29.6945 89.6797 29.6945C88.4938 29.6945 87.6475 30.1329 87.6475 31.1968C87.6475 32.2607 88.3416 32.7489 89.29 32.7489C90.2383 32.7489 90.8136 32.3105 91.3222 31.737Z" fill="#184188"/>
<path d="M94.7572 23.0433C94.7572 22.4864 95.2303 22.0314 95.7723 22.0314C96.3142 22.0314 96.7873 22.4864 96.7873 23.0433C96.7873 23.6001 96.3142 24.0219 95.7723 24.0219C95.2303 24.0219 94.7572 23.5835 94.7572 23.0433ZM94.8927 33.8294V25.0006H95.8577C96.5351 25.0006 96.6206 25.2022 96.6206 26.318V33.8294H94.8927Z" fill="#184188"/>
<path d="M100.241 26.1144C101.104 25.4391 102.323 24.8656 103.628 24.8656C104.864 24.8656 105.898 25.3726 105.898 27.2967V33.8294H104.17V27.7019C104.17 26.6048 103.678 26.3014 102.832 26.3014C101.867 26.3014 100.968 26.7564 100.241 27.1782V33.8294H98.5131V25.0007H99.5969C100.02 25.0007 100.206 25.1856 100.241 26.1144Z" fill="#184188"/>
<path d="M107.607 23.0433C107.607 22.4864 108.08 22.0314 108.622 22.0314C109.164 22.0314 109.637 22.4864 109.637 23.0433C109.637 23.6001 109.164 24.0219 108.622 24.0219C108.08 24.0219 107.607 23.5835 107.607 23.0433ZM107.742 33.8294V25.0006H108.707C109.385 25.0006 109.47 25.2022 109.47 26.318V33.8294H107.742Z" fill="#184188"/>
<path d="M113.091 26.1144C113.954 25.4391 115.173 24.8656 116.478 24.8656C117.714 24.8656 118.748 25.3726 118.748 27.2967V33.8294H117.02V27.7019C117.02 26.6048 116.528 26.3014 115.682 26.3014C114.717 26.3014 113.818 26.7564 113.091 27.1782V33.8294H111.363V25.0007H112.447C112.87 25.0007 113.055 25.1856 113.091 26.1144Z" fill="#184188"/>
<path d="M128.039 33.5261C128.039 35.6018 126.43 36.6657 123.958 36.6657C122.435 36.6657 121.301 36.3457 120.555 35.9239V34.6232H121.113C121.689 35.0616 122.604 35.3837 123.721 35.3837C125.33 35.3837 126.312 34.8268 126.312 33.4076V32.4622C125.684 33.1209 124.755 33.6112 123.585 33.6112C121.791 33.6112 120.132 32.429 120.132 29.4244C120.132 26.1165 121.995 24.8656 123.856 24.8656C125.026 24.8656 125.838 25.2542 126.43 25.8276C126.533 25.356 126.768 25.0007 127.243 25.0007H128.039V33.5261ZM126.312 31.2467V27.0266C125.77 26.5196 125.178 26.2494 124.279 26.2494C123.112 26.2494 121.874 26.8562 121.874 29.2873C121.874 31.7183 122.772 32.3417 124.042 32.3417C124.957 32.3417 125.718 31.8513 126.312 31.2446V31.2467Z" fill="#184188"/>
<path d="M56.1535 0H0V55.9751H56.1535V0Z" fill="url(#paint2_linear_502_10)"/>
<path d="M7.56812 23.837H8.90833V32.1318H7.56812V35.9717H16.2493V32.1318H14.9049V23.837H16.2493V19.9993H7.56812V23.837Z" fill="white"/>
<path d="M24.8492 26.1351V23.8371H27.1649C27.7797 23.8371 28.2946 24.3669 28.2946 24.9819C28.2946 25.597 27.761 26.1351 27.1461 26.1351H24.8492ZM27.2462 32.1567H24.8492V29.7631H27.2545C27.9423 29.7631 28.4571 30.3469 28.4571 30.9578C28.4571 31.5687 27.9777 32.1567 27.2482 32.1567H27.2462ZM31.5753 27.6665C31.8817 27.5772 33.743 26.6671 33.743 23.9908C33.743 21.9254 32.1339 19.9972 29.3555 19.9972H17.998V23.835H19.3403V32.1297H17.998V35.9696H30.1475C32.211 35.9696 34.2786 34.06 34.2786 31.4835C34.2786 29.7381 33.201 28.3605 31.5711 27.7226V27.6665H31.5753Z" fill="white"/>
<path d="M41.4841 26.1351C40.815 26.1351 40.3356 25.545 40.3356 24.9819C40.3356 24.3482 40.8588 23.837 41.4841 23.837H43.781V24.9591H48.7166C48.7166 24.9591 48.7187 24.957 48.7208 24.9549V19.9993H40.4586C37.3488 19.9993 34.9143 21.8361 34.9143 24.9612C34.9143 27.679 37.1299 29.7547 39.8646 29.7547H43.1328C43.8268 29.7547 44.3354 30.3469 44.3354 30.962C44.3354 31.577 43.8143 32.1609 43.1328 32.1609H40.7275V31.0035H35.7439V35.9737H44.5501L44.8106 35.9779C47.564 35.9779 49.8005 33.7484 49.8005 31.0035C49.8005 28.2587 47.5515 26.1393 44.796 26.1393H41.482L41.4841 26.1351Z" fill="white"/>
</g>
<defs>
<linearGradient id="paint0_linear_502_10" x1="144.097" y1="28.001" x2="145.902" y2="28.001" gradientUnits="userSpaceOnUse">
<stop stop-color="#194187"/>
<stop offset="1" stop-color="#14B4C8"/>
</linearGradient>
<linearGradient id="paint1_linear_502_10" x1="145.006" y1="57.4778" x2="145.106" y2="0.799504" gradientUnits="userSpaceOnUse">
<stop stop-color="#194187"/>
<stop offset="1" stop-color="#14B4C8"/>
</linearGradient>
<linearGradient id="paint2_linear_502_10" x1="-7.73659e-08" y1="55.9751" x2="55.979" y2="-0.174034" gradientUnits="userSpaceOnUse">
<stop stop-color="#251F4D"/>
<stop offset="1" stop-color="#4574B8"/>
</linearGradient>
<clipPath id="clip0_502_10">
<rect width="146" height="56" fill="white"/>
</clipPath>
</defs>
</svg>
