<svg width="146" height="40" viewBox="0 0 146 40" fill="none" xmlns="http://www.w3.org/2000/svg">
<path d="M40.0403 0H0V40H40.0403V0Z" fill="#0827C4"/>
<path fill-rule="evenodd" clip-rule="evenodd" d="M29.0046 18.4296C29.157 18.5833 29.3629 18.6722 29.5792 18.6776H31.9373C32.4007 18.6688 32.8612 18.7521 33.2921 18.9225C33.7231 19.093 34.1159 19.3473 34.4479 19.6707C34.7799 19.994 35.0444 20.3801 35.2261 20.8064C35.4078 21.2328 35.5031 21.6909 35.5064 22.1543C35.5064 23.0972 35.1319 24.0014 34.4652 24.6681C33.7986 25.3347 32.8943 25.7093 31.9515 25.7093H25.4863V22.1543H29.0412V22.9791H30.7571C30.9771 22.9675 31.1843 22.872 31.336 22.7121C31.4877 22.5523 31.5722 22.3403 31.5722 22.12C31.5722 21.8996 31.4877 21.6877 31.336 21.5278C31.1843 21.368 30.9771 21.2724 30.7571 21.2609H28.425C26.4746 21.2609 24.8962 19.7773 24.8962 17.8363C24.8962 15.5943 26.6334 14.2814 28.8493 14.2814H34.741V17.8363H31.2168V17.0353H29.5792C29.3625 17.0359 29.1549 17.1222 29.0017 17.2754C28.8485 17.4286 28.7622 17.6362 28.7616 17.8529C28.7652 18.0693 28.8522 18.2759 29.0046 18.4296ZM5.39648 17.0352H6.35157V22.9625H5.39648V25.7069H11.5868V22.9625H10.627V17.0352H11.5868V14.2908H5.39648V17.0352ZM17.7177 18.6775V17.0352H19.3767C19.5911 17.0395 19.7953 17.1274 19.9459 17.2801C20.0964 17.4329 20.1813 17.6384 20.1825 17.8528C20.1777 18.0688 20.0903 18.2748 19.9381 18.4282C19.786 18.5817 19.5808 18.6709 19.3648 18.6775H17.7177ZM19.4336 22.9885H17.7177V21.2726H19.4336C19.6595 21.2751 19.8756 21.3656 20.0359 21.5249C20.1961 21.6843 20.2878 21.8999 20.2915 22.1258C20.2928 22.2391 20.2715 22.3514 20.2289 22.4563C20.1862 22.5612 20.1232 22.6566 20.0433 22.7369C19.9635 22.8172 19.8684 22.8808 19.7637 22.924C19.6591 22.9672 19.5468 22.9891 19.4336 22.9885ZM22.5145 19.7725C22.7349 19.7085 24.0597 19.0615 24.0597 17.1466C24.0597 15.6701 22.9127 14.3026 20.9314 14.3026H12.8356V17.0352H13.7836V22.96H12.8356V25.7044H21.4978C22.9695 25.7044 24.4436 24.3393 24.4436 22.4979C24.4436 21.2513 23.6734 20.2654 22.5121 19.8104L22.5145 19.7725Z" fill="white"/>
<path d="M145.192 0H143.857V40H145.192V0Z" fill="black"/>
<path fill-rule="evenodd" clip-rule="evenodd" d="M97.8539 19.0378C97.8539 16.2792 99.539 14.6937 101.76 14.6937C102.983 14.6937 103.592 14.9615 104.227 15.3762V16.4142H103.715C103.461 16.1703 103.16 15.9813 102.83 15.859C102.5 15.7366 102.149 15.6836 101.798 15.7033C100.248 15.7033 99.2095 16.8385 99.2095 18.988C99.2095 21.2466 100.124 22.3818 101.7 22.3818C102.112 22.3955 102.521 22.3198 102.901 22.1598C103.28 21.9998 103.62 21.7594 103.897 21.4551H104.324V22.4671C103.579 23.096 102.625 23.4232 101.651 23.3843C99.3802 23.3843 97.8539 21.8035 97.8539 19.0378ZM53.9787 15.765V23.3109H55.3082V15.765H57.7635V14.7649H51.5234V15.765H53.9787ZM59.4013 23.3107V18.6467C59.9228 18.1781 60.6009 17.9219 61.302 17.9286H61.584V16.9024C61.4724 16.8698 61.3566 16.8538 61.2403 16.855C60.8848 16.8707 60.537 16.9636 60.2211 17.1273C59.9051 17.291 59.6286 17.5216 59.4107 17.803C59.3752 17.0588 59.2425 16.9261 58.9367 16.9261H58.1547V23.3107H59.4013ZM66.0419 22.6022C65.8034 22.8646 65.5096 23.0709 65.1818 23.2061C64.8539 23.3414 64.5002 23.4022 64.146 23.3843C62.9847 23.3843 62.1434 22.7231 62.1434 21.4883C62.1434 20.1825 63.1814 19.5473 64.6223 19.5473C65.0915 19.5437 65.5591 19.6011 66.0135 19.718V18.8672C66.0135 18.1088 65.5727 17.7794 64.7314 17.7794C64.1081 17.7649 63.4963 17.9491 62.9847 18.3055H62.5937V17.3765C63.3006 17.0094 64.0865 16.8207 64.883 16.8266C66.3974 16.8266 67.253 17.3765 67.253 18.7819V23.3108H66.7648C66.286 23.3108 66.1225 23.1757 66.0419 22.6022ZM66.0064 21.7964V20.4408C65.6166 20.3599 65.2195 20.3194 64.8214 20.3199C63.9682 20.3199 63.3568 20.6375 63.3568 21.4054C63.3568 22.1732 63.8568 22.5287 64.5418 22.5287C64.8251 22.5277 65.1043 22.4618 65.3582 22.3361C65.6121 22.2104 65.8338 22.0282 66.0064 21.8035V21.7964ZM68.9818 14.9912C68.8444 15.1285 68.7673 15.3148 68.7673 15.509C68.7673 15.7032 68.8444 15.8895 68.9818 16.0268C69.1191 16.1641 69.3054 16.2413 69.4996 16.2413C69.6938 16.2413 69.8801 16.1641 70.0174 16.0268C70.1547 15.8895 70.2319 15.7032 70.2319 15.509C70.2319 15.3148 70.1547 15.1285 70.0174 14.9912C69.8801 14.8538 69.6938 14.7767 69.4996 14.7767C69.3054 14.7767 69.1191 14.8538 68.9818 14.9912ZM68.8644 16.9262V23.3109H70.1087V17.8742C70.1087 17.0708 70.047 16.9262 69.5612 16.9262H68.8644ZM73.0286 17.732C73.7208 17.1703 74.5786 16.8521 75.4697 16.8267C76.3608 16.8267 77.1049 17.194 77.1049 18.5852V23.3108H75.8607V18.879C75.8607 18.0851 75.5052 17.8647 74.8962 17.8647C74.1994 17.8647 73.5524 18.1941 73.0286 18.4998V23.3108H71.782V16.9262H72.5641C72.8698 16.9262 72.9955 17.0637 73.0286 17.732ZM78.8243 14.9912C78.687 15.1285 78.6098 15.3148 78.6098 15.509C78.6098 15.7032 78.687 15.8895 78.8243 16.0268C78.9616 16.1641 79.1479 16.2413 79.3421 16.2413C79.5363 16.2413 79.7226 16.1641 79.8599 16.0268C79.9973 15.8895 80.0744 15.7032 80.0744 15.509C80.0744 15.3148 79.9973 15.1285 79.8599 14.9912C79.7226 14.8538 79.5363 14.7767 79.3421 14.7767C79.1479 14.7767 78.9616 14.8538 78.8243 14.9912ZM78.707 16.9262V23.3109H79.9441V17.8742C79.9441 17.0708 79.8825 16.9262 79.3943 16.9262H78.707ZM82.8708 17.732C83.5649 17.1688 84.4255 16.8505 85.319 16.8267C86.2101 16.8267 86.9543 17.194 86.9543 18.5852V23.3108H85.71V18.879C85.71 18.0851 85.3545 17.8647 84.7455 17.8647C84.0487 17.8647 83.4017 18.1941 82.8779 18.4998V23.3108H81.6313V16.9262H82.4134C82.712 16.9262 82.8448 17.0637 82.8708 17.732ZM90.9287 25.3609C92.7109 25.3609 93.8722 24.593 93.8722 23.0905V16.9262H93.2986C92.9479 16.9262 92.7843 17.1822 92.7109 17.5235C92.4644 17.2883 92.173 17.1054 91.8542 16.9857C91.5353 16.866 91.1955 16.8119 90.8552 16.8267C89.5138 16.8267 88.1629 17.732 88.1819 20.1233C88.1819 22.2965 89.3787 23.1521 90.6727 23.1521C91.0398 23.156 91.4038 23.0842 91.7418 22.9411C92.0799 22.7979 92.3848 22.5866 92.6374 22.3202V23.0123C92.6374 24.0313 91.9312 24.4342 90.7699 24.4342C90.0943 24.4585 89.4291 24.2631 88.8739 23.8773H88.4758V24.8253C89.235 25.2082 90.0789 25.3925 90.9287 25.3609ZM92.6256 18.3909V21.4315V21.4434C92.4206 21.679 92.17 21.8706 91.889 22.0066C91.6079 22.1427 91.3022 22.2203 90.9903 22.2349C90.0755 22.2349 89.4285 21.7349 89.4285 20.0261C89.4285 18.2676 90.3196 17.8292 91.1609 17.8292C91.4305 17.8172 91.6997 17.8609 91.9517 17.9575C92.2037 18.0542 92.4331 18.2017 92.6256 18.3909ZM108.452 22.4434C107.256 22.4434 106.573 21.8699 106.511 20.3555L110.806 20.346C110.806 20.3286 110.807 20.2906 110.809 20.2411V20.2411V20.241V20.241V20.2409C110.813 20.1492 110.818 20.0184 110.818 19.9076C110.818 17.8173 109.803 16.8267 108.144 16.8267C106.485 16.8267 105.227 18.1515 105.227 20.1446C105.227 22.1377 106.315 23.3843 108.27 23.3843C109.106 23.4209 109.931 23.1892 110.626 22.7231V21.8581H110.223C109.721 22.2567 109.093 22.4642 108.452 22.4434ZM109.588 19.5379H106.535C106.67 18.1823 107.317 17.6822 108.147 17.6822C109.026 17.6822 109.564 18.1586 109.588 19.5379ZM113.301 17.732C113.993 17.1703 114.851 16.8521 115.742 16.8267C116.633 16.8267 117.378 17.194 117.378 18.5852V23.3108H116.129V18.879C116.129 18.0851 115.773 17.8647 115.164 17.8647C114.467 17.8647 113.82 18.1941 113.296 18.4998V23.3108H112.05V16.9262H112.832C113.142 16.9262 113.285 17.0637 113.301 17.732ZM119.162 16.9261H118.392V17.8029H119.162V21.7323C119.162 22.9386 119.797 23.3913 120.883 23.3913C121.225 23.3934 121.566 23.352 121.897 23.268V22.4623H121.324C120.688 22.4623 120.406 22.2679 120.406 21.5949V17.8029H121.828V16.9261H120.406V15.1913H119.162V16.9261ZM123.838 20.3554C123.9 21.8698 124.585 22.4433 125.781 22.4433C126.422 22.4645 127.048 22.257 127.549 21.858H127.952V22.723C127.261 23.187 126.44 23.4186 125.608 23.3842C123.656 23.3842 122.568 22.1376 122.568 20.135C122.568 18.1324 123.826 16.8171 125.488 16.8171C127.149 16.8171 128.161 17.8077 128.161 19.898C128.161 20.0088 128.156 20.1395 128.152 20.2313V20.2313C128.15 20.2809 128.149 20.319 128.149 20.3365L123.838 20.3554ZM123.864 19.5378H126.917C126.891 18.1585 126.353 17.6821 125.476 17.6821C124.644 17.6821 123.997 18.1822 123.864 19.5378ZM130.628 23.3107V18.6467C131.15 18.1781 131.829 17.922 132.531 17.9286H132.811V16.9024C132.7 16.8697 132.585 16.8537 132.469 16.855C132.114 16.8707 131.765 16.9636 131.449 17.1273C131.133 17.291 130.856 17.5215 130.637 17.803C130.604 17.0588 130.469 16.9261 130.163 16.9261H129.384V23.3107H130.628Z" fill="black"/>
</svg>
