<svg width="22" height="22" viewBox="0 0 22 22" fill="none" xmlns="http://www.w3.org/2000/svg">
    <path fill-rule="evenodd" clip-rule="evenodd" d="M18.8339 10.0896C18.8339 14.919 14.919 18.8339 10.0896 18.8339C5.26024 18.8339 1.34528 14.919 1.34528 10.0896C1.34528 5.26024 5.26024 1.34528 10.0896 1.34528C14.919 1.34528 18.8339 5.26024 18.8339 10.0896ZM16.7326 17.6838C14.9579 19.2376 12.6336 20.1792 10.0896 20.1792C4.51725 20.1792 0 15.6619 0 10.0896C0 4.51725 4.51725 0 10.0896 0C15.6619 0 20.1792 4.51725 20.1792 10.0896C20.1792 12.6336 19.2376 14.9579 17.6838 16.7326L22 21.0488L21.0488 22.0001L16.7326 17.6838Z" fill="black"/>
</svg>
