<svg width="25" height="24" viewBox="0 0 25 24" fill="none" xmlns="http://www.w3.org/2000/svg">
<path fill-rule="evenodd" clip-rule="evenodd" d="M19.8339 11.0896C19.8339 15.919 15.919 19.8339 11.0896 19.8339C6.26024 19.8339 2.34528 15.919 2.34528 11.0896C2.34528 6.26024 6.26024 2.34528 11.0896 2.34528C15.919 2.34528 19.8339 6.26024 19.8339 11.0896ZM17.7326 18.6838C15.9579 20.2376 13.6336 21.1792 11.0896 21.1792C5.51725 21.1792 1 16.6619 1 11.0896C1 5.51725 5.51725 1 11.0896 1C16.6619 1 21.1792 5.51725 21.1792 11.0896C21.1792 13.6336 20.2376 15.9579 18.6838 17.7326L23 22.0488L22.0488 23.0001L17.7326 18.6838Z" fill="black"/>
</svg>
