<?xml version="1.0" encoding="utf-8"?>
<!-- Generator: Adobe Illustrator 20.1.0, SVG Export Plug-In . SVG Version: 6.00 Build 0)  -->
<svg version="1.0" id="Слой_1" xmlns="http://www.w3.org/2000/svg" xmlns:xlink="http://www.w3.org/1999/xlink" x="0px" y="0px"
	 viewBox="0 0 595 842" style="enable-background:new 0 0 595 842;" xml:space="preserve">
<style type="text/css">
	.st0{fill-rule:evenodd;clip-rule:evenodd;fill:#003C7B;}
</style>
<g>
	<path class="st0" d="M72.3,224.8c0,4.6,11.6,29.8,14.1,35.9l29.8,70.2c2.6,5.9,4.8,11.2,7.5,17.5c2.1,5.1,4.3,12.4,12.6,12.4h136
		c10.8,0,13.3-17.8-0.9-18.1c-39.9-0.8-89.6,0.1-130.1,0.1L92.9,228.2c-2.6-5.9-3.6-12.3-11.7-12.3
		C76.3,215.9,72.3,219.9,72.3,224.8z"/>
	<path class="st0" d="M124.3,265.8h180c3.7,0,5.4-7.1,6.7-10.3c1.2-2.9,7-10.7,1.3-10.7h-196c-5.7,0,0.1,6.8,3.8,16.2
		C121.1,263.7,121.1,265.8,124.3,265.8z"/>
	<path class="st0" d="M136.2,297.8h156c1.6-3,7.7-16.5,8-20h-172C128.7,283.5,134.9,292,136.2,297.8z"/>
	<path class="st0" d="M153.2,330.8h122c3.4,0,5.8-7.6,6.9-10.1c1.5-3.6,6.9-10.9,1.1-10.9h-138c-4.7,0-1.9,4,1,10
		C147.8,323,149.6,330.8,153.2,330.8z"/>
	<path class="st0" d="M135.2,387.8c0,27.1,36,23.1,36,1C171.2,367.1,135.2,364.2,135.2,387.8z"/>
	<path class="st0" d="M235.2,388.8c0,23.9,36,23.7,36,0C271.2,365.8,235.2,365.2,235.2,388.8z"/>
</g>
</svg>
