<svg width="23" height="21" viewBox="0 0 23 21" fill="none" xmlns="http://www.w3.org/2000/svg">
<path d="M18.6357 0.0998535L13.6357 4.59985V15.5999L18.6357 11.0999V0.0998535ZM6.13574 3.09985C4.18574 3.09985 2.08574 3.49985 0.635742 4.59985V19.2599C0.635742 19.5099 0.885742 19.7599 1.13574 19.7599C1.23574 19.7599 1.28574 19.6899 1.38574 19.6899C2.73574 19.0399 4.68574 18.5999 6.13574 18.5999C8.08574 18.5999 10.1857 18.9999 11.6357 20.0999C12.9857 19.2499 15.4357 18.5999 17.1357 18.5999C18.7857 18.5999 20.4857 18.9099 21.8857 19.6599C21.9857 19.7099 22.0357 19.6899 22.1357 19.6899C22.3857 19.6899 22.6357 19.4399 22.6357 19.1899V4.59985C22.0357 4.14985 21.3857 3.84985 20.6357 3.59985V17.0999C19.5357 16.7499 18.3357 16.5999 17.1357 16.5999C15.4357 16.5999 12.9857 17.2499 11.6357 18.0999V4.59985C10.1857 3.49985 8.08574 3.09985 6.13574 3.09985Z" fill="#F17227"/>
</svg>
