<svg width="24" height="24" viewBox="0 0 24 24" fill="none" xmlns="http://www.w3.org/2000/svg">
<path fill-rule="evenodd" clip-rule="evenodd" d="M12 2L14.4697 9.60081H22.4616L15.996 14.2984L18.4657 21.8992L12 17.2016L5.53439 21.8992L8.00404 14.2984L1.53841 9.60081H9.53037L12 2ZM23 4.00001L19 8.00001L18.2929 7.29291L22.2929 3.29291L23 4.00001ZM5 8.00001L1 4.00001L1.70711 3.29291L5.70711 7.29291L5 8.00001ZM23 19L19 15L18.2929 15.7071L22.2929 19.7071L23 19ZM5 15L1 19L1.70711 19.7071L5.70711 15.7071L5 15Z" fill="black"/>
</svg>
