<svg width="24" height="24" viewBox="0 0 24 24" fill="none" xmlns="http://www.w3.org/2000/svg">
    <circle cx="12" cy="12" r="10.5" stroke="currentColor"/>
    <path d="M8.41016 18V6.36365H15.4329V7.61365H9.81925V11.25H12.7738C13.6071 11.25 14.3098 11.3864 14.8817 11.6591C15.4575 11.9318 15.8931 12.3163 16.1886 12.8125C16.4878 13.3087 16.6374 13.894 16.6374 14.5682C16.6374 15.2424 16.4878 15.8371 16.1886 16.3523C15.8931 16.8674 15.4575 17.2708 14.8817 17.5625C14.3098 17.8542 13.6071 18 12.7738 18H8.41016ZM9.81925 16.7727H12.7738C13.3041 16.7727 13.753 16.6667 14.1204 16.4546C14.4916 16.2386 14.7719 15.9621 14.9613 15.625C15.1545 15.2841 15.2511 14.9243 15.2511 14.5455C15.2511 13.9886 15.0371 13.5095 14.609 13.108C14.181 12.7027 13.5692 12.5 12.7738 12.5H9.81925V16.7727Z" fill="currentColor"/>
</svg>
