<svg width="20" height="20" viewBox="0 0 25 20" fill="none" xmlns="http://www.w3.org/2000/svg">
    <path d="M7.66211 15.3691C8.81464 15.4862 9.71387 16.4601 9.71387 17.6436L9.70215 17.877C9.58498 19.0293 8.61189 19.9285 7.42871 19.9287L7.19434 19.917C6.11891 19.8075 5.26362 18.9524 5.1543 17.877L5.14258 17.6436C5.14258 16.3813 6.16647 15.3576 7.42871 15.3574L7.66211 15.3691ZM15.6621 15.3691C16.8146 15.4862 17.7139 16.4601 17.7139 17.6436L17.7021 17.877C17.585 19.0293 16.6119 19.9285 15.4287 19.9287L15.1943 19.917C14.1189 19.8075 13.2636 18.9524 13.1543 17.877L13.1426 17.6436C13.1426 16.3813 14.1665 15.3576 15.4287 15.3574L15.6621 15.3691ZM15.4287 16.3574C14.7188 16.3576 14.1426 16.9336 14.1426 17.6436C14.1429 18.3533 14.7189 18.9286 15.4287 18.9287C16.1384 18.9285 16.7136 18.3532 16.7139 17.6436C16.7139 16.9336 16.1386 16.3576 15.4287 16.3574ZM7.42871 16.3574C6.71876 16.3576 6.14258 16.9336 6.14258 17.6436C6.14288 18.3533 6.71894 18.9286 7.42871 18.9287C8.13841 18.9285 8.71357 18.3532 8.71387 17.6436C8.71387 16.9336 8.1386 16.3576 7.42871 16.3574ZM3.33984 0.368164L4.1748 3.42871H19.4971L19.3418 4.0498L17.0566 13.1924L16.9619 13.5713H5.9043L5.80371 13.2031L2.47559 1H0V0H3.23926L3.33984 0.368164ZM6.66797 12.5713H16.1807L18.2168 4.42871H4.44727L6.66797 12.5713Z" fill="#2B418B"/>
</svg>
