<svg width="72" height="72" viewBox="0 0 72 72" fill="none" xmlns="http://www.w3.org/2000/svg">
<rect x="5.89844" y="19.4434" width="60.5" height="32.2378" stroke="#0827C4" stroke-width="1.5" stroke-linejoin="bevel"/>
<path d="M15 35.3931H21.2061" stroke="#0827C4" stroke-width="1.5" stroke-linejoin="bevel"/>
<path d="M51.1953 35.3931H57.4014" stroke="#0827C4" stroke-width="1.5" stroke-linejoin="bevel"/>
<circle cx="36.1505" cy="35.1622" r="8.33801" stroke="#0827C4" stroke-width="1.5" stroke-linejoin="bevel"/>
<path d="M14.2365 52.4308C14.2365 51.2373 14.0014 50.0556 13.5447 48.953C13.088 47.8503 12.4185 46.8485 11.5746 46.0046C10.7307 45.1607 9.72888 44.4913 8.62627 44.0346C7.52366 43.5778 6.34189 43.3428 5.14844 43.3428" stroke="#0827C4" stroke-width="1.5" stroke-linejoin="bevel"/>
<path d="M67.1505 43.3431C65.9571 43.3431 64.7753 43.5782 63.6727 44.0349C62.5701 44.4916 61.5682 45.1611 60.7243 46.005C59.8804 46.8489 59.211 47.8507 58.7543 48.9533C58.2976 50.0559 58.0625 51.2377 58.0625 52.4312" stroke="#0827C4" stroke-width="1.5" stroke-linejoin="bevel"/>
<path d="M58.0604 18.6932C58.0604 19.8867 58.2955 21.0685 58.7522 22.1711C59.2089 23.2737 59.8783 24.2755 60.7222 25.1194C61.5661 25.9633 62.568 26.6328 63.6706 27.0895C64.7732 27.5462 65.955 27.7812 67.1484 27.7812" stroke="#0827C4" stroke-width="1.5" stroke-linejoin="bevel"/>
<path d="M5.15417 27.7814C6.34763 27.7814 7.5294 27.5463 8.63201 27.0896C9.73461 26.6329 10.7365 25.9635 11.5804 25.1196C12.4243 24.2757 13.0937 23.2738 13.5504 22.1712C14.0071 21.0686 14.2422 19.8868 14.2422 18.6934" stroke="#0827C4" stroke-width="1.5" stroke-linejoin="bevel"/>
<path d="M32.8125 51.9856C41.7266 55.024 59.5547 61.1006 59.5547 61.1006L62.6056 51.9856M66.612 40.0552L70.483 29.1974L66.612 27.7812" stroke="#0827C4" stroke-width="1.5" stroke-linejoin="bevel"/>
<path d="M39.4297 19.1384C30.5156 16.1001 12.6875 10.0234 12.6875 10.0234L9.63658 19.1384M5.63022 31.0689L1.75918 41.9266L5.63022 43.3428" stroke="#0827C4" stroke-width="1.5" stroke-linejoin="bevel"/>
</svg>
