<svg width="72" height="72" viewBox="0 0 72 72" fill="none" xmlns="http://www.w3.org/2000/svg">
<path fill-rule="evenodd" clip-rule="evenodd" d="M21.0077 63H42.5732V56.7502H49.4843L52.6483 46.133H60.7887L52.5786 29.4171C52.3778 18.1251 43.1297 9 31.7904 9C20.326 9 10.999 18.327 10.999 29.7914C10.999 37.0828 14.8103 43.81 21.0077 47.5711V63ZM39.4091 59.8359H24.1718L24.1716 45.7188L23.3481 45.2689C17.6827 42.1734 14.1631 36.2428 14.1631 29.7914C14.1631 20.0717 22.0707 12.1641 31.7904 12.1641C41.5102 12.1641 49.4178 20.0717 49.4179 29.7914V30.1589L55.7095 42.969H50.2897L47.1257 53.5862H39.4091V59.8359ZM28.6455 36.6743L31.8325 22.3403L34.9206 23.0269L31.7336 37.3609L28.6455 36.6743ZM18.2959 29.8519L23.8892 35.4451L26.1265 33.2078L22.7706 29.8519L26.1265 26.4959L23.8892 24.2585L18.2959 29.8519ZM37.4498 33.2078L39.6871 35.4451L45.2804 29.8519L39.6871 24.2585L37.4498 26.4959L40.8058 29.8519L37.4498 33.2078Z" fill="url(#paint0_linear_2667_16101)"/>
<path fill-rule="evenodd" clip-rule="evenodd" d="M42.5732 56.7502H49.4843L52.6483 46.133H60.7887L52.5786 29.4171C52.3778 18.1251 43.1297 9 31.7904 9C20.326 9 10.999 18.327 10.999 29.7914C10.999 37.0828 14.8103 43.81 21.0077 47.5711V63H42.5732V56.7502ZM41.5732 62V55.7502H48.7388L51.9029 45.133H59.1835L51.5827 29.6578L51.5788 29.4348C51.3876 18.687 42.5832 10 31.7904 10C20.8783 10 11.999 18.8793 11.999 29.7914C11.999 36.7321 15.6269 43.1357 21.5265 46.7162L22.0077 47.0082V62H41.5732ZM23.1718 60.8359L23.1717 46.312L22.8687 46.1465L23.3481 45.2689L24.1716 45.7188L24.1718 59.8359H39.4091V53.5862H47.1257L50.2897 42.969H55.7095L49.4179 30.1589V29.7914C49.4178 20.0717 41.5102 12.1641 31.7904 12.1641C22.0707 12.1641 14.1631 20.0717 14.1631 29.7914C14.1631 36.2428 17.6827 42.1734 23.3481 45.2689L22.8687 46.1465C16.8826 42.8758 13.1631 36.6088 13.1631 29.7914C13.1631 19.5194 21.5184 11.1641 31.7904 11.1641C42.0625 11.1641 50.4178 19.5194 50.4179 29.7914V29.9266L57.3148 43.969H51.0352L47.8711 54.5862H40.4091V60.8359H23.1718ZM26.1265 26.4959L23.8892 24.2585L18.2959 29.8519L23.8892 35.4451L26.1265 33.2078L22.7706 29.8519L26.1265 26.4959ZM24.7123 33.2078L21.3564 29.8519L24.7123 26.4959L23.8892 25.6728L19.7101 29.8519L23.8892 34.0309L24.7123 33.2078ZM37.4498 33.2078L39.6871 35.4451L45.2804 29.8519L39.6871 24.2585L37.4498 26.4959L40.8058 29.8519L37.4498 33.2078ZM38.864 26.4959L42.22 29.8519L38.864 33.2078L39.6871 34.0309L43.8662 29.8519L39.6871 25.6728L38.864 26.4959ZM28.6455 36.6743L31.8325 22.3403L34.9206 23.0269L31.7336 37.3609L28.6455 36.6743ZM29.8387 35.9151L30.9745 36.1677L33.7274 23.7861L32.5916 23.5335L29.8387 35.9151Z" fill="white"/>
<defs>
<linearGradient id="paint0_linear_2667_16101" x1="10.999" y1="36" x2="60.7887" y2="36" gradientUnits="userSpaceOnUse">
<stop stop-color="#2F6298"/>
<stop offset="1" stop-color="#438DB0"/>
</linearGradient>
</defs>
</svg>
