<svg width="72" height="72" viewBox="0 0 72 72" fill="none" xmlns="http://www.w3.org/2000/svg">
<path fill-rule="evenodd" clip-rule="evenodd" d="M21.0087 63H42.5742V56.7502H49.4852L52.6493 46.133H60.7897L52.5796 29.4171C52.3788 18.1251 43.1306 9 31.7914 9C20.327 9 11 18.327 11 29.7914C11 37.0828 14.8113 43.81 21.0087 47.5711V63ZM39.4101 59.8359H24.1727L24.1726 45.7188L23.3491 45.2689C17.6837 42.1734 14.1641 36.2428 14.1641 29.7914C14.1641 20.0717 22.0717 12.1641 31.7914 12.1641C41.5112 12.1641 49.4188 20.0717 49.4189 29.7914V30.1589L55.7105 42.969H50.2907L47.1266 53.5862H39.4101V59.8359ZM28.6465 36.6743L31.8334 22.3403L34.9216 23.0269L31.7346 37.3609L28.6465 36.6743ZM18.2969 29.8519L23.8902 35.4451L26.1275 33.2078L22.7716 29.8519L26.1275 26.4959L23.8902 24.2585L18.2969 29.8519ZM37.4507 33.2078L39.6881 35.4451L45.2814 29.8519L39.6881 24.2585L37.4507 26.4959L40.8068 29.8519L37.4507 33.2078Z" fill="#0827C4"/>
<path fill-rule="evenodd" clip-rule="evenodd" d="M42.5742 56.7502H49.4852L52.6493 46.133H60.7897L52.5796 29.4171C52.3788 18.1251 43.1306 9 31.7914 9C20.327 9 11 18.327 11 29.7914C11 37.0828 14.8113 43.81 21.0087 47.5711V63H42.5742V56.7502ZM41.5742 62V55.7502H48.7398L51.9038 45.133H59.1844L51.5837 29.6578L51.5797 29.4348C51.3886 18.687 42.5842 10 31.7914 10C20.8793 10 12 18.8793 12 29.7914C12 36.7321 15.6278 43.1357 21.5275 46.7162L22.0087 47.0082V62H41.5742ZM23.1727 60.8359L23.1726 46.312L22.8697 46.1465L23.3491 45.2689L24.1726 45.7188L24.1727 59.8359H39.4101V53.5862H47.1266L50.2907 42.969H55.7105L49.4189 30.1589V29.7914C49.4188 20.0717 41.5112 12.1641 31.7914 12.1641C22.0717 12.1641 14.1641 20.0717 14.1641 29.7914C14.1641 36.2428 17.6837 42.1734 23.3491 45.2689L22.8697 46.1465C16.8836 42.8758 13.1641 36.6088 13.1641 29.7914C13.1641 19.5194 21.5194 11.1641 31.7914 11.1641C42.0634 11.1641 50.4188 19.5194 50.4189 29.7914V29.9266L57.3158 43.969H51.0361L47.8721 54.5862H40.4101V60.8359H23.1727ZM26.1275 26.4959L23.8902 24.2585L18.2969 29.8519L23.8902 35.4451L26.1275 33.2078L22.7716 29.8519L26.1275 26.4959ZM24.7133 33.2078L21.3574 29.8519L24.7133 26.4959L23.8902 25.6728L19.7111 29.8519L23.8902 34.0309L24.7133 33.2078ZM37.4507 33.2078L39.6881 35.4451L45.2814 29.8519L39.6881 24.2585L37.4507 26.4959L40.8068 29.8519L37.4507 33.2078ZM38.865 26.4959L42.221 29.8519L38.865 33.2078L39.6881 34.0309L43.8672 29.8519L39.6881 25.6728L38.865 26.4959ZM28.6465 36.6743L31.8334 22.3403L34.9216 23.0269L31.7346 37.3609L28.6465 36.6743ZM29.8397 35.9151L30.9755 36.1677L33.7284 23.7861L32.5926 23.5335L29.8397 35.9151Z" fill="white"/>
</svg>
