<svg width="145" height="127" viewBox="0 0 145 127" fill="none" xmlns="http://www.w3.org/2000/svg">
<path d="M144.061 116.561C144.646 115.975 144.646 115.025 144.061 114.439L134.515 104.893C133.929 104.308 132.979 104.308 132.393 104.893C131.808 105.479 131.808 106.429 132.393 107.015L140.879 115.5L132.393 123.985C131.808 124.571 131.808 125.521 132.393 126.107C132.979 126.692 133.929 126.692 134.515 126.107L144.061 116.561ZM2 0H0.5V75.5H2H3.5V0H2ZM42 115.5V117H143V115.5V114H42V115.5ZM2 75.5H0.5C0.5 98.4198 19.0802 117 42 117V115.5V114C20.737 114 3.5 96.763 3.5 75.5H2Z" fill="url(#paint0_linear_2240_13855)"/>
<defs>
<linearGradient id="paint0_linear_2240_13855" x1="2.00002" y1="115.5" x2="162.654" y2="44.4276" gradientUnits="userSpaceOnUse">
<stop stop-color="#2C4689"/>
<stop offset="1" stop-color="#4CA069"/>
</linearGradient>
</defs>
</svg>
