<?xml version="1.0" encoding="UTF-8"?>
<svg id="_Слой_1" data-name="Слой 1" xmlns="http://www.w3.org/2000/svg" xmlns:xlink="http://www.w3.org/1999/xlink" viewBox="0 0 700.47 269.51">
  <defs>
    <style>
      .cls-1 {
        fill: url(#linear-gradient);
      }

      .cls-1, .cls-2, .cls-3, .cls-4, .cls-5 {
        stroke-width: 0px;
      }

      .cls-2, .cls-6 {
        fill: url(#_Безымянный_градиент_4);
      }

      .cls-3 {
        fill: #184188;
      }

      .cls-4 {
        fill: #fff;
      }

      .cls-5 {
        fill: url(#_Безымянный_градиент_4-2);
      }

      .cls-7 {
        clip-path: url(#clippath);
      }
    </style>
    <linearGradient id="_Безымянный_градиент_4" data-name="Безымянный градиент 4" x1="691.34" y1="134.76" x2="700" y2="134.76" gradientUnits="userSpaceOnUse">
      <stop offset="0" stop-color="#194187"/>
      <stop offset="1" stop-color="#14b4c8"/>
    </linearGradient>
    <clipPath id="clippath">
      <rect class="cls-2" x="691.34" y=".04" width="8.66" height="269.45"/>
    </clipPath>
    <linearGradient id="_Безымянный_градиент_4-2" data-name="Безымянный градиент 4" x1="-2159.63" y1="1087.6" x2="-2155.88" y2="1087.6" gradientTransform="translate(157645.3 79247.06) scale(72.74 -72.74)" xlink:href="#_Безымянный_градиент_4"/>
    <linearGradient id="linear-gradient" x1="0" y1="269.39" x2="269.41" y2="0" gradientUnits="userSpaceOnUse">
      <stop offset="0" stop-color="#251f4d"/>
      <stop offset="1" stop-color="#4574b8"/>
    </linearGradient>
  </defs>
  <g>
    <rect class="cls-6" x="691.34" y=".04" width="8.66" height="269.45"/>
    <g class="cls-7">
      <rect class="cls-5" x="560.93" y="130.2" width="269.47" height="9.13" transform="translate(559.7 830.2) rotate(-89.9)"/>
    </g>
  </g>
  <g>
    <path class="cls-3" d="m362.56,162.81v-50.21h-16.33v-6.66h41.51v6.66h-16.33v50.21h-8.86Z"/>
    <path class="cls-3" d="m395.55,131.78v31.03h-8.29v-42.49h5.2c2.03,0,2.92.89,3.09,5.85,2.84-3.25,6.91-6.26,12.19-6.26.97,0,1.79.16,2.27.32v6.82s-1.54-.08-1.87-.08c-5.77,0-9.91,2.44-12.59,4.79Z"/>
    <path class="cls-3" d="m438.38,158.1c-3.17,3.41-6.99,5.2-12.67,5.2-7.72,0-13.32-4.39-13.32-12.67,0-8.69,6.91-12.92,16.49-12.92,3.66,0,6.34.41,9.26,1.14v-5.61c0-5.04-2.92-7.23-8.53-7.23-5.04,0-8.94,1.54-11.62,3.49h-2.6v-6.17c3.74-1.87,8.45-3.66,15.27-3.66,10.07,0,15.84,3.66,15.84,13v30.14h-3.25c-3.25,0-4.39-.89-4.87-4.71Zm-.24-5.36v-9.02c-2.36-.49-4.96-.81-7.88-.81-5.69,0-9.75,2.11-9.75,7.23s3.33,7.47,7.88,7.47,7.31-2.11,9.75-4.87Z"/>
    <path class="cls-3" d="m454.62,110.9c0-2.68,2.27-4.87,4.87-4.87s4.87,2.19,4.87,4.87-2.27,4.71-4.87,4.71-4.87-2.11-4.87-4.71Zm.65,51.91v-42.49h4.63c3.25,0,3.66.97,3.66,6.34v36.15h-8.29Z"/>
    <path class="cls-3" d="m480.93,125.68c4.14-3.25,9.99-6.01,16.25-6.01,5.93,0,10.89,2.44,10.89,11.7v31.44h-8.29v-29.49c0-5.28-2.36-6.74-6.42-6.74-4.63,0-8.94,2.19-12.43,4.22v32.01h-8.29v-42.49h5.2c2.03,0,2.92.89,3.09,5.36Z"/>
    <path class="cls-3" d="m516.27,110.9c0-2.68,2.27-4.87,4.87-4.87s4.87,2.19,4.87,4.87-2.27,4.71-4.87,4.71-4.87-2.11-4.87-4.71Zm.65,51.91v-42.49h4.63c3.25,0,3.66.97,3.66,6.34v36.15h-8.29Z"/>
    <path class="cls-3" d="m542.58,125.68c4.14-3.25,9.99-6.01,16.25-6.01,5.93,0,10.89,2.44,10.89,11.7v31.44h-8.29v-29.49c0-5.28-2.36-6.74-6.42-6.74-4.63,0-8.94,2.19-12.43,4.22v32.01h-8.29v-42.49h5.2c2.03,0,2.92.89,3.09,5.36Z"/>
    <path class="cls-3" d="m614.3,161.35c0,9.99-7.72,15.11-19.58,15.11-7.31,0-12.75-1.54-16.33-3.57v-6.26h2.68c2.76,2.11,7.15,3.66,12.51,3.66,7.72,0,12.43-2.68,12.43-9.51v-4.55c-3.01,3.17-7.47,5.53-13.08,5.53-8.61,0-16.57-5.69-16.57-20.15,0-15.92,8.94-21.94,17.87-21.94,5.61,0,9.51,1.87,12.35,4.63.49-2.27,1.62-3.98,3.9-3.98h3.82v41.03Zm-8.29-10.97v-20.31c-2.6-2.44-5.44-3.74-9.75-3.74-5.6,0-11.54,2.92-11.54,14.62s4.31,14.7,10.4,14.7c4.39,0,8.04-2.36,10.89-5.28Z"/>
  </g>
  <g>
    <rect class="cls-1" width="269.41" height="269.39"/>
    <polygon class="cls-4" points="36.31 114.72 42.74 114.72 42.74 154.64 36.31 154.64 36.31 173.12 77.96 173.12 77.96 154.64 71.51 154.64 71.51 114.72 77.96 114.72 77.96 96.25 36.31 96.25 36.31 114.72"/>
    <path class="cls-4" d="m119.22,125.78v-11.06h11.11c2.95,0,5.42,2.55,5.42,5.51s-2.56,5.55-5.51,5.55h-11.02Zm11.5,28.98h-11.5v-11.52h11.54c3.3,0,5.77,2.81,5.77,5.75s-2.3,5.77-5.8,5.77Zm20.77-21.61c1.47-.43,10.4-4.81,10.4-17.69,0-9.94-7.72-19.22-21.05-19.22h-54.49v18.47h6.44v39.92h-6.44v18.48h58.29c9.9,0,19.82-9.19,19.82-21.59,0-8.4-5.17-15.03-12.99-18.1v-.27Z"/>
    <path class="cls-4" d="m199.03,125.78c-3.21,0-5.51-2.84-5.51-5.55,0-3.05,2.51-5.51,5.51-5.51h11.02v5.4h23.68s.01-.01.02-.02v-23.85h-39.64c-14.92,0-26.6,8.84-26.6,23.88,0,13.08,10.63,23.07,23.75,23.07h15.68c3.33,0,5.77,2.85,5.77,5.81s-2.5,5.77-5.77,5.77h-11.54v-5.57h-23.91v23.92h42.25l1.25.02c13.21,0,23.94-10.73,23.94-23.94s-10.79-23.41-24.01-23.41h-15.9Z"/>
  </g>
</svg>