<svg width="72" height="72" viewBox="0 0 72 72" fill="none" xmlns="http://www.w3.org/2000/svg">
<path d="M36 8.2998C39.7567 8.2998 42.8132 11.3567 42.8135 15.1133C42.8135 17.0489 42.0011 18.7977 40.6992 20.04L40.4092 20.3174L40.7568 20.5176C43.6203 22.1694 45.5508 25.2626 45.5508 28.7969V37.3701H37.3408V41.2568H57.1025V47.8242H63.7002V63.7002H47.8242V47.8242H54.4219V43.9375H37.3408V47.8242H43.9375V63.7002H28.0625V47.8242H34.6592V43.9375H17.5781V47.8242H24.1758V63.7002H8.2998V47.8242H14.8975V41.2568H34.6592V37.3701H26.4492V28.7969C26.4492 25.2626 28.3797 22.1694 31.2432 20.5176L31.5908 20.3174L31.3008 20.04C29.9989 18.7977 29.1865 17.0488 29.1865 15.1133C29.1868 11.3567 32.2433 8.2998 36 8.2998ZM10.9814 61.0186H21.4941V50.5059H10.9814V61.0186ZM30.7432 61.0186H41.2568V50.5059H30.7432V61.0186ZM50.5059 61.0186H61.0186V50.5059H50.5059V61.0186ZM36 21.9277C32.2121 21.9277 29.1309 25.009 29.1309 28.7969V34.6885H42.8691V28.7969C42.8691 25.0089 39.7879 21.9277 36 21.9277ZM36 10.9814C33.7212 10.9814 31.8674 12.8346 31.8672 15.1133C31.8672 17.3922 33.7211 19.2461 36 19.2461C38.2789 19.2461 40.1328 17.3922 40.1328 15.1133C40.1326 12.8346 38.2788 10.9814 36 10.9814Z" fill="#0827C4" stroke="white" stroke-width="0.6"/>
</svg>
