<svg xmlns="http://www.w3.org/2000/svg" viewBox="0 0 518.32 524.09"><defs><style>.cls-1{fill:#89c9c6;}.cls-2{fill:#e0eaec;}.cls-3{fill:#ddf1ea;}.cls-4{fill:#cc7322;}.cls-5{fill:#f78b29;}.cls-6{fill:#f5f5f5;}.cls-7{fill:#1f686e;}.cls-8{fill:#2e99a1;}.cls-9{fill:#58a6ba;}.cls-10{fill:#376773;}.cls-11{fill:#3c767c;}.cls-12{fill:#727481;}.cls-13{fill:#2f3245;}.cls-14{fill:#fff;stroke:#f78b29;stroke-miterlimit:10;stroke-width:4px;}</style></defs><title>Layer 2 (3)</title><g id="Layer_2" data-name="Layer 2"><g id="Layer_2-2" data-name="Layer 2"><path class="cls-1" d="M240.05,0C136,0,51.72,84.32,51.72,188.33S136,376.66,240.05,376.66s188.33-84.32,188.33-188.33S344.07,0,240.05,0Z"/><path class="cls-2" d="M173.58,49.63a3.73,3.73,0,0,0,3.78-3.34c2.56-2.83,3-6.15,3-10.08,0-5.09,5.45-7.87,9.5-9.75,4.65-2.16.61-9-4-6.86a34.35,34.35,0,0,0-7.3,4.46,4,4,0,0,0-2.64.93c-4.48,3.63-9.05,5.91-14.86,6.19-5.54.27-10.42-3.07-15.52-4.69-5.72-1.83-12.37-.89-18,1.4A192.92,192.92,0,0,0,65.88,98.61c-2.25,7.32-3,14.1-.87,19,1.92,4.5,3.78,7.92,3.08,13a24.62,24.62,0,0,0,0,8.73c1.69,8.21,12.74,8.86,13.91,17a3.18,3.18,0,0,0,4.1,2.77,7,7,0,0,0-.45,1.67c-.61,4.68,2.09,7.64,4.69,11.2a4,4,0,0,0,3.23,1.72c-.24.41-.48.83-.7,1.25-2.51,4.76-3.71,8.81-5.28,13.61a25.59,25.59,0,0,0-2.49,4.57,4.12,4.12,0,0,0-.76,1.71,4.28,4.28,0,0,0-.53.87c-4.22,9.57-1.3,18.82,5,27.19,3.6,4.74,8,8.92,12,13.24,4.76,5.05,6.74,10.31,9.5,16.38,1.69,3.72,6.75,3.47,7.13,8,.58,6.89.46,12.77,2.36,19.58,3.85,13.86,11.22,25.52,11.88,40.32a3.79,3.79,0,0,0,1.16,2.66,4.43,4.43,0,0,0,7,.14c3.1-4.05,6.47-7.36,7.75-12.43a12.53,12.53,0,0,0-.19-6.52c-.67-1.8-4.09-7-3.29-7.66a10.47,10.47,0,0,0,3.59-9.4,14.38,14.38,0,0,0-1.73-4.49c-2-3.64,3.45-8.18,5.63-10.79,7.76-9.29,13.41-25.58,13.91-37.57.18-4.15-.5-7.34,1.81-11.18a39.24,39.24,0,0,0,4.17-7.93c1.26-3.75-.91-7.56-3.35-10.18-6.58-7.09-19.22-5.77-24.34-14.23-1.87-3.1-3.86-8.65-7.92-9.64-2.08-.51-6.18.18-7.55-1.7-1.79-2.48-2.46-5.64-4.44-8s-4.28-3.07-7.27-3.61c-3.56-.65-8.46-4.93-12.23-3.63a18.83,18.83,0,0,0-6.92,4.4,4.13,4.13,0,0,0-.37-.63c-1-1.32-4.35-5.22-2.87-6.81a7.57,7.57,0,0,0,2.08-4.42c.28-1.93-.18-4.67-1.88-6h0a6.55,6.55,0,0,0,2.52-2.85c1.3-2.92-.3-5.1-2.1-7.32-1.46-1.8-4.08-1.25-5.61,0-3,2.42-4.88,4.3-5.2-.23A25.67,25.67,0,0,1,86,130.14c1.61-4.6,5.65-8.18,9.68-10.64,6.43-3.91,8,9,8.54,12.19.79,4.33,6.33,3.18,7.65,0,2.83-6.79,2.15-12.48,7.37-18.46,3.59-4.12,7.45-7.77,10.5-12.36,2.56-3.85,4-5.65,8.22-7.63,3.74-1.74,7.38-3.7,10.21-6.74,3.18-3.42,3.25-6.61,7.92-3.67,1.86,1.17,4.73,1.72,6.71.53,6-3.62,7-12.14,7.67-18.45.49-4.73-1.5-14.7-8.46-12.78-4.48,1.23-15.11,20.36-19.15,10.19S167.91,49.7,173.58,49.63Z"/><path class="cls-2" d="M196.19,34.52a20.11,20.11,0,0,0-5.1,14.32c.2,5.1,8.14,5.12,7.94,0,0-.09,0-.17,0-.25,6.09-4.65,11.58-9.32,18.79-12.33a18.87,18.87,0,0,0,9.25-8.15c4.15-6.79,6.09-17.73-2-22.35-8.75-5-21,4.21-20.38,13.48C205.15,25.84,200.07,29.91,196.19,34.52Z"/><path class="cls-2" d="M307.68,257.44c9.68,4.56,12.59-19.84,12.38-24.29v0c.35-.5.69-1,1-1.49,2.76-4.13-3.9-8-6.64-3.88a40.26,40.26,0,0,0-5.05,9.52c-.91,2.71,1.09,6.48-1.07,8.48C305.51,248.35,302.83,255.16,307.68,257.44Z"/><path class="cls-2" d="M320.43,134.41a6.94,6.94,0,0,0-6.52.1,3.29,3.29,0,0,1-3.16.32c-.84-1-1.69-2-2.61-3-5.9-6.28-10.91-12-20.2-12.42-11.89-.56-24.3,4.79-35.7-.53-7-3.24-9.69-12.91-18.19-13.83-3.38-.36-5.7,2.09-8.75,3.24-4.16,1.56-8.8,1.56-12.42,4.41-6.27,4.93-8.25,14-13.59,20.07-5.81,6.56-10.19,12.53-11.26,21.43-1.5,12.59,11.87,22.76,21.88,27,5.2,2.19,11.42,2.13,17,2.41,8.54.43,12.91,5.37,17.16,12.46,4.51,7.54,7.53,16.07,7.65,24.89.09,6.85-4.35,12.2-3.19,19.28,1.88,11.38,14.94,25.2,8.11,36.44a4,4,0,0,0-.62,2.39c-2,2.6.29,7.65,4.54,6.77,13.41-2.78,27.09-18.18,27.19-32,0-4.34-1.27-4.83,2.13-8.38a29.31,29.31,0,0,0,6.26-9.31c3.66-9.43,1.56-19.66,6.12-29,2.18-4.46,5.41-8.33,8.13-12.46,2.81-4.28,3.82-9,5.88-13.57,1.68-3.77,3.49-13.61-2.55-14.9-6.75-1.45,1.72-7.75,3.93-9.65,3.73-3.22,8.09-6.51,9.42-11.5S324.35,136.44,320.43,134.41Z"/><path class="cls-2" d="M368.71,148.65c1.94-8.2,7.68-5.18,11.44-.65,2.06,2.49,5.19,3.73,8.15,4.72,8.76,2.92,11.87,10.08,12.87,17.94a3.43,3.43,0,0,0,.11,1,78.31,78.31,0,0,1,.25,10.25c-.26,8.65,2,15.85,6.24,23.29,2.18,3.8,17.31,20.47,18.84,7.34a10.86,10.86,0,0,0-1.3-6.4,30.73,30.73,0,0,0-2.66-3.58c-2-2.41,2.26-4.18,3.25-5.21,5-5.24,5.82-12.27,3.46-18.94-.94-2.66-4.61-4.25-6.76-1.79-6.65,7.63-10.09-1.42-12.17-8.84,1.51-4.5,2.88-9.39.63-13.72-2.79-5.35-7.55-9-11.15-13.62a4.07,4.07,0,0,0-.48-1.41,6.73,6.73,0,0,1-1.25-5.69,16.87,16.87,0,0,0,2.46.43,13.75,13.75,0,0,0,7.39-1.61c4.18-2.58,6.74-6.63,5.93-11.72-1.2-7.39-5.62-12.63-10.52-18-1.37-1.51-3.12-3.37-4.84-5.4,3.28,2,7.36-2.47,5.28-5.67-7.79-12-13.27-25.53-21.57-37.17-3.16-4.41-7.44-7.2-12.09-9.83a65.84,65.84,0,0,1-9.06-5.68c-3.56-2.86-4.8-7.61-7.41-11.2-7.48-10.29-19.22-17-32-16-6.05.44-11.79,3.06-17.44,5-4,1.41-7.85,2.23-12.09,1.18-3.45-.85-6.44-2.44-10-2.95-2-.28-4.58.46-5,2.83C275.83,26,271,31.09,263.07,34.11a4.15,4.15,0,0,0-1.73,1.23c-.35,0-.69.06-1,.07-3.71.18-5.38-2.14-8.53-3.07-3.51-1-5.62.14-8.28,2.4a18.7,18.7,0,0,0-1.42,1.62A14,14,0,0,0,240,41.45c-.65,3-1.09,7.87-1.12,8.21a6.28,6.28,0,0,0-1.1,1.26c-.82,1.74-2.26,2.27-4.24,2.85a3.89,3.89,0,0,0-.92,7,12.33,12.33,0,0,0,5.29,1.88l0,0c.12.13.65.82.22.15a4.36,4.36,0,0,0,.68.8c.07.42.12.83.21,1.26,1.09,5.4-6.41,8.61-9.8,11.73a11.62,11.62,0,0,0-3.66,9.67c.27,5.38-5,4.94-7,9.46-.88,2-.63,4.36,1.45,5.53,5.63,3.19,10.19.72,14-3.87,3.06-3.62,5-9,10.7-6,4.44,2.26,7.73,7.56,10.83,11.31,2.69,3.26,7.72-.25,6.75-3.93a32.26,32.26,0,0,0-1.7-4.58c-2.68-6.34,4-.89,6.22,1.21s4,5,6.53,6.72c3.79,2.6,7.78,3.62,11.89,5.62,3,1.47,5.48,4.47,8.51,6.12,2.67,1.45,5.88,1.75,8.84,2.13,8.94,1.13,13.92,9,21.43,13.11,3,1.64,6.41,1.85,9.72,2.41,5.21.87,3.88,4.2,5.77,7.43a7.78,7.78,0,0,0,10.48,3.16c1.84-.9,2.31-4.21,2.33-1.3a34.24,34.24,0,0,0,1,8.31A41.26,41.26,0,0,0,364,167.41c2.28,2.32,5.72,1,6.75-1.78C373.17,159.11,367.29,154.63,368.71,148.65Z"/><path class="cls-2" d="M420.33,235.39c-4.48.19-7.78,4.05-10.29,7.37-4.52,6-6.77-2.57-11.62.27-6,3.5-6.25,14.12-10.52,19.08-3.19,3.7-7.67,7.15-6.74,12.56,1,5.6,8.74,4.22,14.58,2.24-.7,5.58-6.21,12.1-2.12,17.12a5.13,5.13,0,0,0,5.14,1.88A149.09,149.09,0,0,0,426.37,248a3,3,0,0,0-.53-.34C426.06,242.17,425.83,235.16,420.33,235.39Z"/><rect class="cls-3" x="401.49" y="336.94" width="96.02" height="53.16"/><ellipse class="cls-3" cx="414.2" cy="363.5" rx="10.24" ry="22.18"/><rect class="cls-4" x="413.43" y="336.94" width="93.08" height="4.41"/><rect class="cls-4" x="413.43" y="385.68" width="93.08" height="4.41"/><path class="cls-5" d="M239.16,363.52c0,14.67-4.58,26.57-10.23,26.57s-10.24-11.9-10.24-26.57,4.58-26.58,10.24-26.58S239.16,348.84,239.16,363.52Z"/><path class="cls-3" d="M424.44,363.5c0-11.95-4.37-21.69-9.83-22.15v44.31C420.07,385.2,424.44,375.45,424.44,363.5Z"/><path class="cls-5" d="M414.61,336.94h0Z"/><path class="cls-5" d="M228.93,336.94v53.15H414.61v-4.43l-.41,0c-5.66,0-10.24-9.93-10.24-22.18s4.58-22.17,10.24-22.17a2.82,2.82,0,0,1,.41,0v-4.41Z"/><rect class="cls-5" x="401.49" y="349.78" width="96.02" height="0.9"/><rect class="cls-5" x="401.49" y="366.92" width="96.02" height="0.9"/><rect class="cls-5" x="401.49" y="355.87" width="96.02" height="0.56"/><rect class="cls-5" x="401.49" y="370.26" width="96.02" height="0.56"/><rect class="cls-5" x="404.82" y="380.01" width="92.69" height="0.56"/><path class="cls-4" d="M414.2,385.68c-5.66,0-10.24-9.93-10.24-22.18s4.58-22.17,10.24-22.17a2.82,2.82,0,0,1,.41,0V337h-.41c-2.63,0-7.59,1.17-11.23,9a46.84,46.84,0,0,0,0,35c3.64,7.87,8.6,9.05,11.23,9.05h.41v-4.4Z"/><path class="cls-5" d="M252.13,336.94h0Z"/><path class="cls-5" d="M252.13,390.07h0Z"/><path class="cls-6" d="M337.59,381a46.71,46.71,0,0,1,0-35c3.45-7.48,8.1-8.91,10.81-9H337.67c-2.63,0-7.59,1.17-11.23,9a46.84,46.84,0,0,0,0,35c3.64,7.87,8.6,9.05,11.23,9.05h10.78C345.75,390,341.06,388.55,337.59,381Z"/><path class="cls-6" d="M355.06,381a37.69,37.69,0,0,1,0-35c4.37-7.48,10.27-8.91,13.7-9h-13.6c-3.33,0-9.62,1.17-14.22,9a37.69,37.69,0,0,0,0,35c4.6,7.87,10.89,9.05,14.22,9.05h13.67C365.4,390,359.46,388.55,355.06,381Z"/><path class="cls-6" d="M243.77,381a46.84,46.84,0,0,1,0-35c3.46-7.48,8.11-8.91,10.82-9H243.86c-2.64,0-7.59,1.17-11.23,9a46.84,46.84,0,0,0,0,35c3.64,7.87,8.59,9.05,11.23,9.05h10.78C251.94,390,247.25,388.55,243.77,381Z"/><path class="cls-5" d="M278.63,336.94h0Z"/><path class="cls-5" d="M278.63,390.07h0Z"/><rect class="cls-3" x="351.05" y="268.1" width="111.15" height="68.71"/><path class="cls-3" d="M380.72,302.44c0,15.83-5.92,28.66-13.23,28.66s-13.24-12.83-13.24-28.66,5.93-28.67,13.24-28.67S380.72,286.6,380.72,302.44Z"/><rect class="cls-7" x="363.01" y="268.1" width="105.35" height="5.7"/><rect class="cls-7" x="363.01" y="331.1" width="105.35" height="5.71"/><ellipse class="cls-8" cx="200.31" cy="302.45" rx="13.23" ry="34.36"/><path class="cls-3" d="M380.72,302.44c0-15.45-5.64-28.05-12.7-28.65v57.29C375.08,330.48,380.72,317.88,380.72,302.44Z"/><path class="cls-9" d="M368,268.1h0Z"/><path class="cls-8" d="M200.31,268.1v68.71H368v-5.73l-.53,0c-7.31,0-13.24-12.83-13.24-28.66s5.93-28.67,13.24-28.67l.53,0V268.1Z"/><rect class="cls-9" x="351.05" y="284.7" width="111.15" height="1.17"/><rect class="cls-9" x="351.05" y="306.85" width="111.15" height="1.17"/><rect class="cls-9" x="351.05" y="292.57" width="111.15" height="0.73"/><rect class="cls-9" x="351.05" y="311.17" width="111.15" height="0.73"/><rect class="cls-9" x="354.39" y="323.78" width="107.82" height="0.73"/><path class="cls-7" d="M367.49,331.1c-7.31,0-13.24-12.83-13.24-28.66s5.93-28.67,13.24-28.67l.53,0v-5.68h-.53c-3.41,0-9.82,1.51-14.51,11.69-2.84,6.14-4.4,14.18-4.4,22.65s1.56,16.5,4.4,22.64c4.69,10.18,11.1,11.7,14.51,11.7l.53,0v-5.68Z"/><path class="cls-10" d="M251.66,268.1h0Z"/><path class="cls-10" d="M251.66,336.78l.53,0h-.53Z"/><path class="cls-7" d="M288.56,325.08c-2.84-6.14-4.4-14.18-4.4-22.64s1.56-16.51,4.4-22.65c4.47-9.67,10.48-11.52,14-11.68H262.17c-3.4,0-9.81,1.51-14.51,11.69-2.84,6.14-4.4,14.18-4.4,22.65s1.56,16.5,4.4,22.64c4.7,10.18,11.11,11.7,14.51,11.7h40.44C299.11,336.63,293.05,334.81,288.56,325.08Z"/><path class="cls-10" d="M285.91,268.1h0Z"/><path class="cls-10" d="M285.91,336.78l.53,0h-.53Z"/><path class="cls-11" d="M103.9,393.34H106a1.27,1.27,0,0,0,.27-.82c0-.53-1-53.86-8-101.74-1.64-11.18-5.7-23-12.07-35.1a187.62,187.62,0,0,0-19.47-29.35A227.83,227.83,0,0,0,40.63,198.6a1.33,1.33,0,1,0-1.73,2A226.07,226.07,0,0,1,64.7,228c12.13,15.19,27.34,38.47,31,63.14,7,47.7,8,100.86,8,101.39A1.27,1.27,0,0,0,103.9,393.34Z"/><path class="cls-11" d="M98.59,305.2S125.1,276,134.48,272.52s13.39,0,7.5,8.84S97.52,313.77,98.59,305.2Z"/><path class="cls-11" d="M99.57,306.12s-32.39-21.69-42.25-22.53S43.24,287,51.13,296,98.16,310.06,99.57,306.12Z"/><path class="cls-11" d="M42.37,200.69S16.67,178,8.62,176.84-3,179.77,3.07,189,41.06,204.58,42.37,200.69Z"/><path class="cls-11" d="M96.8,283.4S65.28,264.94,55.88,263s-21.66,1.45-6.34,12S97.18,286.63,96.8,283.4Z"/><path class="cls-11" d="M102.72,331.89s-31.53-18.45-40.92-20.4-21.66,1.45-6.35,12S103.1,335.12,102.72,331.89Z"/><path class="cls-11" d="M89.91,264.47S61.71,246.71,53.23,245s-19.65,1.87-6,12.06S90.19,267.68,89.91,264.47Z"/><path class="cls-11" d="M104.1,357.91s-28.2-17.76-36.67-19.52-19.65,1.87-6,12.06S104.38,361.12,104.1,357.91Z"/><path class="cls-11" d="M114.67,250.3c-2.36,2.34-20.67,28.82-19.6,32.91.36,1.38,12.92-2,25.55-18C133.75,248.68,121.82,243.24,114.67,250.3Z"/><path class="cls-11" d="M122.36,308.85c-2.36,2.33-20.68,28.82-19.6,32.91.36,1.38,12.92-2,25.55-18C141.44,307.23,129.51,301.79,122.36,308.85Z"/><path class="cls-11" d="M107.66,226.18c-2.32,2.86-19.27,34.22-17.59,38.59.57,1.48,14-3.79,25.94-22.86C128.46,222.09,114.67,217.54,107.66,226.18Z"/><path class="cls-11" d="M74.27,190.59c-1.6,2.94-11.49,33.87-9.26,37.5.76,1.23,11.87-5.75,19.38-24.83C92.2,183.42,79.09,181.67,74.27,190.59Z"/><path class="cls-11" d="M88.31,198.28c-1.76,3.53-12.29,40.79-9.55,45.28.92,1.52,13.69-6.58,21.82-29.53C109.05,190.18,93.65,187.61,88.31,198.28Z"/><path class="cls-11" d="M42.19,176.34c-.13,2.87,3.69,30.22,6.72,32.06,1,.63,6.92-9.11,5.63-26.54C53.2,163.73,42.59,167.67,42.19,176.34Z"/><path class="cls-11" d="M16.59,204.57c2.84-.36,30.41,1.23,32.49,4.11.71,1-8.52,7.63-26,7.75C4.9,216.55,8,205.66,16.59,204.57Z"/><path class="cls-11" d="M24.65,220c3.23-.59,34.78-.42,37.3,2.76.85,1.07-9.38,9.29-29.34,10.49C11.86,234.52,14.87,221.8,24.65,220Z"/><polygon class="cls-12" points="236.01 266.92 426.19 266.92 446.75 137.56 257 134.13 236.01 266.92"/><path class="cls-12" d="M179.79,270.8H432.51v-9.69s-178.39-4.3-248,.46C174.65,262.25,179.79,270.8,179.79,270.8Z"/><path class="cls-13" d="M244.9,264.5H435.08s19.84-127.57,17.76-127.86c-12.59-1.8-186.72-2.56-186.72-2.56Z"/><circle class="cls-6" cx="363.43" cy="166.95" r="8.61" transform="translate(-11.61 305.88) rotate(-45)"/><rect class="cls-14" x="7.31" y="423.08" width="509.01" height="99.01" rx="24.73"/><path class="cls-5" d="M64.44,460.42H56.37v22.9H48.81V453.91H72v29.41H64.44Z"/><path class="cls-5" d="M90.82,483.15a7.65,7.65,0,0,1-6.22-1v9.15H77.54V462H83l.55,2.31c1.55-2.73,5.54-3,8.06-1.89A10.86,10.86,0,0,1,98,472.56C98,477.48,95.39,481.84,90.82,483.15Zm-6.22-6c3.69,1.93,6.38-.72,6.34-4.33,0-3.23-1.55-5-4.24-5a3.53,3.53,0,0,0-2.1.93Z"/><path class="cls-5" d="M114.42,483.32l-.72-2.15a6.56,6.56,0,0,1-5.29,2.65c-5.33,0-7.81-3.7-7.81-7.48,0-6,7.56-8.19,12.39-6.13v-.67c0-3-6.55-2.61-9-1L101.9,464a13,13,0,0,1,8.61-2.77c4.92,0,9.58,2.48,9.58,8.78v13.28ZM109.88,478a4.87,4.87,0,0,0,3.24-1v-2.31a8.13,8.13,0,0,0-3.11-.54C106.77,474.12,106.61,478,109.88,478Z"/><path class="cls-5" d="M124.12,462h9.74c3.36,0,6.47.92,7.73,3.57,1,2.31.55,5.8-2.06,6.72a5.3,5.3,0,0,1,3.24,6.34c-.84,4.12-4.83,4.67-8.36,4.67H124.12Zm6.68,5.25V470H134a1.37,1.37,0,0,0,0-2.73Zm0,7.69v3.15H134c2.44,0,2.35-3.15,0-3.15Z"/><path class="cls-5" d="M161.67,470.63,159.4,475l-5.63,8.32h-7.31V462h6.89v7.14l-.25,5,.13,0,1.84-3.86,5.3-8.36h8v21.3h-6.85v-7.78l.26-4.87Z"/><path class="cls-5" d="M174.69,484l-3.57-4.41c2.94-1.89,2.89-3.74,2.85-5.42V462h19.28v21.3H186.2V468.07h-5.3v6.13C180.9,477.9,179.47,482.22,174.69,484Z"/><path class="cls-5" d="M210.35,483.32l-.72-2.15a6.57,6.57,0,0,1-5.29,2.65c-5.34,0-7.81-3.7-7.81-7.48,0-6,7.56-8.19,12.39-6.13v-.67c0-3-6.55-2.61-9-1L197.83,464a13,13,0,0,1,8.61-2.77c4.91,0,9.58,2.48,9.58,8.78v13.28ZM205.81,478a4.83,4.83,0,0,0,3.23-1v-2.31a8.05,8.05,0,0,0-3.1-.54C202.7,474.12,202.53,478,205.81,478Z"/><path class="cls-5" d="M249.78,462v21.3h-7.05V468.11h-5.88v15.21h-7V462Z"/><path class="cls-5" d="M267.09,483.15a7.65,7.65,0,0,1-6.22-1v9.15h-7.06V462h5.46l.55,2.31c1.55-2.73,5.55-3,8.07-1.89a10.87,10.87,0,0,1,6.34,10.12C274.23,477.48,271.67,481.84,267.09,483.15Zm-6.22-6c3.7,1.93,6.39-.72,6.34-4.33,0-3.23-1.55-5-4.24-5a3.53,3.53,0,0,0-2.1.93Z"/><path class="cls-5" d="M276.75,472.69c0-15.21,22.81-15.25,22.81,0C299.56,487.47,276.75,487.81,276.75,472.69Zm15.75,0c0-6.72-8.7-6.68-8.7,0S292.5,479.41,292.5,472.69Z"/><path class="cls-5" d="M320.05,462h8.57v21.3h-6.89v-6.64l.72-5.93-.21,0-2.48,5.63-2,3.78h-4l-2-3.78-2.43-5.63-.21,0,.67,5.93v6.64h-6.89V462h8.57l4.32,8.52Z"/><path class="cls-5" d="M331.76,472.69c0-15.21,22.82-15.25,22.82,0C354.58,487.47,331.76,487.81,331.76,472.69Zm15.76,0c0-6.72-8.7-6.68-8.7,0S347.52,479.41,347.52,472.69Z"/><path class="cls-5" d="M371,483.32l-.72-2.15a6.56,6.56,0,0,1-5.29,2.65c-5.33,0-7.81-3.7-7.81-7.48,0-6,7.56-8.19,12.39-6.13v-.67c0-3-6.55-2.61-9-1L358.52,464a13,13,0,0,1,8.61-2.77c4.92,0,9.58,2.48,9.58,8.78v13.28ZM366.5,478a4.87,4.87,0,0,0,3.24-1v-2.31a8.13,8.13,0,0,0-3.11-.54C363.39,474.12,363.22,478,366.5,478Z"/><path class="cls-5" d="M388,483.32h-7V462h7Zm0-12.06,6.68-9.24h7.94l-6.8,9.28,7.18,12h-7.77Z"/><path class="cls-5" d="M424.34,462v15.46h2.56v9.91h-6.26v-4.07h-16V462h7v15.46h5.84V462Z"/><path class="cls-5" d="M444.79,470.63,442.52,475l-5.63,8.32h-7.31V462h6.89v7.14l-.25,5,.13,0,1.84-3.86,5.3-8.36h8v21.3h-6.85v-7.78l.25-4.87Z"/><path class="cls-5" d="M470.83,470.63,468.56,475l-5.63,8.32h-7.31V462h6.89v7.14l-.25,5,.13,0,1.84-3.86,5.3-8.36h8v21.3H470.7v-7.78l.25-4.87Z"/></g></g></svg>