<svg width="45" height="45" viewBox="0 0 45 45" fill="none" xmlns="http://www.w3.org/2000/svg">
<path d="M22.5 31.1001V37.55" stroke="#0827C4" stroke-width="1.5" stroke-linecap="round"/>
<path d="M30.0266 43.9999H14.9766L15.7076 40.3536C15.8049 39.8664 16.0681 39.4279 16.4522 39.1128C16.8363 38.7977 17.3177 38.6253 17.8146 38.625H27.1886C27.6854 38.6253 28.1668 38.7977 28.5509 39.1128C28.9351 39.4279 29.1982 39.8664 29.2956 40.3536L30.0266 43.9999Z" stroke="#0827C4" stroke-width="1.5" stroke-linecap="round" stroke-linejoin="round"/>
<path d="M37.55 7.45044L39.5904 8.12983C41.7189 8.83932 42.7831 9.19407 43.3915 10.039C44 10.8839 44 12.0084 44 14.2487V14.4056C44 16.2546 44 17.1812 43.555 17.938C43.1099 18.6948 42.2994 19.1442 40.6826 20.045L34.325 23.5753M7.45 7.45044L5.40965 8.12983C3.28115 8.83932 2.2169 9.19407 1.60845 10.039C1 10.8839 1 12.0084 1 14.2487V14.4056C1 16.2546 1 17.1812 1.44505 17.938C1.8901 18.6948 2.70065 19.1442 4.31745 20.045L10.675 23.5753M20.6639 9.64986C21.4809 8.18143 21.8894 7.45044 22.5 7.45044C23.1106 7.45044 23.5191 8.18143 24.3361 9.64986L24.5468 10.0283C24.779 10.4454 24.8951 10.6518 25.0757 10.7894C25.2585 10.9269 25.4842 10.9785 25.9357 11.0796L26.3442 11.1742C27.9309 11.5332 28.7243 11.7117 28.9135 12.318C29.1027 12.9243 28.5609 13.5585 27.4794 14.8227L27.1999 15.1495C26.8925 15.5085 26.7377 15.687 26.6689 15.9106C26.6001 16.1342 26.6237 16.3728 26.6689 16.8523L26.7119 17.2887C26.8753 18.9765 26.957 19.8214 26.4646 20.1955C25.9701 20.5696 25.2262 20.2277 23.7406 19.544L23.3579 19.3678C22.9343 19.1743 22.7236 19.0775 22.5 19.0775C22.2764 19.0775 22.0657 19.1743 21.6422 19.3678L21.2595 19.544C19.7738 20.2299 19.0299 20.5696 18.5354 20.1955C18.0409 19.8214 18.1248 18.9765 18.2882 17.2887L18.3312 16.8523C18.3763 16.3728 18.4 16.1342 18.3312 15.9106C18.2624 15.687 18.1076 15.5085 17.8001 15.1495L17.5206 14.8227C16.4392 13.5585 15.8974 12.9264 16.0866 12.318C16.2758 11.7117 17.0691 11.5332 18.6558 11.1742L19.0643 11.0796C19.5158 10.9785 19.7416 10.9291 19.9243 10.7894C20.1049 10.6518 20.221 10.4454 20.4532 10.0283L20.6639 9.64986Z" stroke="#0827C4" stroke-width="1.5"/>
<path d="M35.4001 44H9.60012M33.2501 1.98088C34.8433 2.28403 35.7893 2.61943 36.6041 3.62562C37.6297 4.8855 37.5759 6.24644 37.4663 8.9683C37.0793 18.7571 34.8863 31.1002 22.5023 31.1002C10.1183 31.1002 7.92312 18.7593 7.53182 8.9683C7.42432 6.24644 7.37057 4.88335 8.39182 3.62562C9.41522 2.36573 10.6386 2.15933 13.0874 1.74654C16.1988 1.23687 19.3473 0.987322 22.5001 1.0005C24.0453 1.00336 25.4786 1.0521 26.8001 1.14669" stroke="#0827C4" stroke-width="1.5" stroke-linecap="round"/>
</svg>
