<svg width="49" height="44" viewBox="0 0 49 44" fill="none" xmlns="http://www.w3.org/2000/svg">
<path d="M0 0V38.475H31.105V43.0226L36.6767 41.2069L42.2484 43.0226V38.475H49V0H0ZM39.3772 39.0672L36.6766 38.1872L33.9759 39.0672V35.7823C34.8101 36.1227 35.7215 36.3119 36.6766 36.3119C37.6317 36.3119 38.5431 36.1227 39.3772 35.7823V39.0672ZM36.6766 33.4409C34.305 33.4409 32.3756 31.5114 32.3756 29.1399C32.3756 26.7684 34.3051 24.8389 36.6766 24.8389C39.0481 24.8389 40.9776 26.7684 40.9776 29.1399C40.9776 31.5114 39.0482 33.4409 36.6766 33.4409ZM46.1289 35.6039H42.2483V33.6492C43.2481 32.4163 43.8488 30.8471 43.8488 29.1398C43.8488 25.185 40.6313 21.9677 36.6767 21.9677C32.722 21.9677 29.5046 25.1851 29.5046 29.1398C29.5046 30.8471 30.1052 32.4163 31.105 33.6492V35.6039H2.87109V2.87109H46.1289V35.6039Z" fill="#0827C4"/>
<path fill-rule="evenodd" clip-rule="evenodd" d="M31.905 37.675V41.9205L36.6767 40.3655L41.4484 41.9205V37.675H48.2V0.8H0.8V37.675H31.905ZM0 0H49V38.475H42.2484V43.0226L36.6767 41.2069L31.105 43.0226V38.475H0V0ZM40.1772 40.1692L36.6766 39.0286L33.1759 40.1692V34.5917L34.2782 35.0416C35.0192 35.3439 35.8281 35.5119 36.6766 35.5119C37.5251 35.5119 38.334 35.3439 39.075 35.0416L40.1772 34.5917V40.1692ZM36.6766 38.1872L39.3772 39.0672V35.7823C39.1177 35.8882 38.8507 35.9794 38.5772 36.0549C37.9717 36.2221 37.3345 36.3119 36.6766 36.3119C36.0186 36.3119 35.3814 36.2221 34.776 36.0549C34.5025 35.9794 34.2355 35.8882 33.9759 35.7823V39.0672L36.6766 38.1872ZM46.9289 36.4039H41.4483V33.3656L41.627 33.1453C42.5161 32.0489 43.0488 30.6561 43.0488 29.1398C43.0488 25.6269 40.1895 22.7677 36.6767 22.7677C33.1639 22.7677 30.3046 25.627 30.3046 29.1398C30.3046 30.6561 30.8373 32.0489 31.7264 33.1453L31.905 33.3656V36.4039H2.07109V2.07109H46.9289V36.4039ZM36.6766 34.2409C33.8631 34.2409 31.5756 31.9532 31.5756 29.1399C31.5756 26.3265 33.8632 24.0389 36.6766 24.0389C39.4899 24.0389 41.7776 26.3265 41.7776 29.1399C41.7776 31.9532 39.4901 34.2409 36.6766 34.2409ZM32.3756 29.1399C32.3756 31.5114 34.305 33.4409 36.6766 33.4409C39.0482 33.4409 40.9776 31.5114 40.9776 29.1399C40.9776 26.7684 39.0481 24.8389 36.6766 24.8389C34.3051 24.8389 32.3756 26.7684 32.3756 29.1399ZM46.1289 35.6039V2.87109H2.87109V35.6039H31.105V33.6492C30.1052 32.4163 29.5046 30.8471 29.5046 29.1398C29.5046 25.1851 32.722 21.9677 36.6767 21.9677C40.6313 21.9677 43.8488 25.185 43.8488 29.1398C43.8488 30.8471 43.2481 32.4163 42.2483 33.6492V35.6039H46.1289Z" fill="#F8F7F7"/>
<path d="M40.3867 7.85828H8.61328V10.7294H40.3867V7.85828Z" fill="#0827C4"/>
<path fill-rule="evenodd" clip-rule="evenodd" d="M39.5867 8.65828H9.41328V9.92937H39.5867V8.65828ZM40.3867 7.85828V10.7294H8.61328V7.85828H40.3867Z" fill="white"/>
<path d="M40.3867 14.5431H8.61328V17.4142H40.3867V14.5431Z" fill="#0827C4"/>
<path fill-rule="evenodd" clip-rule="evenodd" d="M39.5867 15.3431H9.41328V16.6142H39.5867V15.3431ZM40.3867 14.5431V17.4142H8.61328V14.5431H40.3867Z" fill="white"/>
<path d="M24.5 21.228H8.61328V24.0991H24.5V21.228Z" fill="#0827C4"/>
<path fill-rule="evenodd" clip-rule="evenodd" d="M23.7 22.028H9.41328V23.2991H23.7V22.028ZM24.5 21.228V24.0991H8.61328V21.228H24.5Z" fill="white"/>
</svg>
