<svg width="47" height="47" viewBox="0 0 47 47" fill="none" xmlns="http://www.w3.org/2000/svg">
<path d="M23.5 0C10.5211 0 0 10.5211 0 23.5C0 36.4785 10.5211 47 23.5 47C36.4785 47 47 36.4785 47 23.5C46.9846 10.5276 36.4724 0.015419 23.5 0ZM23.5 44.0625C12.1437 44.0625 2.9375 34.8563 2.9375 23.5C2.9375 12.1437 12.1437 2.9375 23.5 2.9375C34.8563 2.9375 44.0625 12.1437 44.0625 23.5C44.0503 34.8513 34.8513 44.0503 23.5 44.0625Z" fill="#0827C4"/>
<path fill-rule="evenodd" clip-rule="evenodd" d="M23.5009 44.8625H23.5C11.7019 44.8625 2.1375 35.2981 2.1375 23.5C2.1375 11.7019 11.7019 2.1375 23.5 2.1375C35.2981 2.1375 44.8625 11.7019 44.8625 23.5V23.5009C44.8498 35.2933 35.2933 44.8498 23.5009 44.8625ZM23.4995 0.8C10.9627 0.80027 0.8 10.9631 0.8 23.5C0.8 36.0367 10.963 46.2 23.5 46.2C36.0364 46.2 46.1995 36.0372 46.2 23.501C46.1851 10.9698 36.0306 0.815138 23.4995 0.8ZM23.5 0C10.5211 0 0 10.5211 0 23.5C0 36.4785 10.5211 47 23.5 47C36.4785 47 47 36.4785 47 23.5C46.9846 10.5276 36.4724 0.015419 23.5 0ZM23.5 44.0625C12.1437 44.0625 2.9375 34.8563 2.9375 23.5C2.9375 12.1437 12.1437 2.9375 23.5 2.9375C34.8563 2.9375 44.0625 12.1437 44.0625 23.5C44.0503 34.8513 34.8513 44.0503 23.5 44.0625Z" fill="#F8F7F7"/>
<path d="M24.9687 7.34375H22.0312V23.5C22.0312 23.8894 22.1862 24.2631 22.4615 24.5385L32.7428 34.8197L34.8197 32.7428L24.9687 22.8918V7.34375Z" fill="#0827C4"/>
<path fill-rule="evenodd" clip-rule="evenodd" d="M24.1687 23.2232V8.14375H22.8313V23.5C22.8313 23.677 22.9017 23.8473 23.0272 23.9728L32.7428 33.6883L33.6883 32.7428L24.1687 23.2232ZM34.8197 32.7428L32.7428 34.8197L22.4615 24.5385C22.1862 24.2631 22.0312 23.8894 22.0312 23.5V7.34375H24.9687V22.8918L34.8197 32.7428Z" fill="#F8F7F7"/>
</svg>
