<svg width="39" height="39" viewBox="0 0 39 39" fill="none" xmlns="http://www.w3.org/2000/svg">
<circle cx="19.2" cy="19.2" r="19.2" fill="#1F1F1F"/>
<path d="M30 19.2925C30 19.1875 29.9147 19.1006 29.8097 19.0957C26.0423 18.953 23.7495 18.4724 22.1455 16.8682C20.5382 15.2608 20.0592 12.9661 19.9166 9.19027C19.9133 9.08529 19.8264 9 19.7198 9H19.2802C19.1752 9 19.0883 9.08529 19.0834 9.19027C18.9407 12.9645 18.4618 15.2608 16.8545 16.8682C15.2488 18.474 12.9576 18.953 9.19025 19.0957C9.08529 19.099 9 19.1859 9 19.2925V19.7321C9 19.8371 9.08529 19.924 9.19025 19.9289C12.9576 20.0716 15.2505 20.5522 16.8545 22.1564C18.4585 23.7605 18.9374 26.0487 19.0818 29.8097C19.085 29.9147 19.172 30 19.2786 30H19.7198C19.8247 30 19.9116 29.9147 19.9166 29.8097C20.0609 26.0487 20.5398 23.7605 22.1438 22.1564C23.7495 20.5506 26.0407 20.0716 29.808 19.9289C29.913 19.9256 29.9984 19.8387 29.9984 19.7321V19.2925H30Z" fill="#444444"/>
</svg>
