<svg width="39" height="39" viewBox="0 0 39 39" fill="none" xmlns="http://www.w3.org/2000/svg">
<g clip-path="url(#clip0_483_5)">
<path d="M19.2 38.4C29.8039 38.4 38.4 29.8039 38.4 19.2C38.4 8.59613 29.8039 0 19.2 0C8.59613 0 0 8.59613 0 19.2C0 29.8039 8.59613 38.4 19.2 38.4Z" fill="#1F1F1F"/>
<mask id="mask0_483_5" style="mask-type:luminance" maskUnits="userSpaceOnUse" x="9" y="9" width="21" height="21">
<path d="M30 9H9V30H30V9Z" fill="white"/>
</mask>
<g mask="url(#mask0_483_5)">
<mask id="mask1_483_5" style="mask-type:luminance" maskUnits="userSpaceOnUse" x="9" y="9" width="21" height="21">
<path d="M24.9091 9H14.0909C11.2793 9 9 11.2793 9 14.0909V24.9091C9 27.7207 11.2793 30 14.0909 30H24.9091C27.7207 30 30 27.7207 30 24.9091V14.0909C30 11.2793 27.7207 9 24.9091 9Z" fill="white"/>
</mask>
<g mask="url(#mask1_483_5)">
<path d="M21.972 19.0206H15.7679V16.5655H21.972C22.3344 16.5655 22.5864 16.6287 22.7128 16.739C22.8393 16.8493 22.9176 17.0539 22.9176 17.3528V18.2343C22.9176 18.5492 22.8393 18.7538 22.7128 18.8641C22.5864 18.9744 22.3344 19.0206 21.972 19.0206ZM22.3976 14.2509H13.1367V24.75H15.7679V21.3342H20.6168L22.9176 24.75H25.864L23.3272 21.3182C24.2625 21.1796 24.6824 20.893 25.0288 20.4206C25.3751 19.9483 25.5488 19.1931 25.5488 18.1853V17.398C25.5488 16.8003 25.4855 16.3279 25.3751 15.9659C25.2647 15.6039 25.076 15.289 24.8079 15.0061C24.5248 14.7384 24.2096 14.5498 23.8312 14.4235C23.4527 14.3132 22.9799 14.2509 22.3976 14.2509Z" fill="#74767A"/>
<path d="M40.5 9C40.5 14.799 35.799 19.5 30 19.5C28.821 19.5 27.6875 19.3057 26.6295 18.9473C26.6521 18.6978 26.6621 18.4427 26.6621 18.1853V17.398C26.6621 16.7296 26.5923 16.1404 26.44 15.641C26.2757 15.1025 25.9941 14.6391 25.6159 14.2401L25.5949 14.218L25.5728 14.197C25.17 13.816 24.7133 13.544 24.1835 13.3671L24.1631 13.3603L24.1425 13.3543C23.6381 13.2073 23.0558 13.1364 22.3973 13.1364H21.2836L20.3465 13.1373C19.8017 11.8677 19.5 10.4691 19.5 9C19.5 3.20101 24.201 -1.5 30 -1.5C35.799 -1.5 40.5 3.20101 40.5 9Z" fill="#74767A"/>
</g>
<path d="M24.9082 9.16016H14.09C11.3663 9.16016 9.1582 11.3682 9.1582 14.092V24.9102C9.1582 27.6339 11.3663 29.842 14.09 29.842H24.9082C27.632 29.842 29.84 27.6339 29.84 24.9102V14.092C29.84 11.3682 27.632 9.16016 24.9082 9.16016Z" stroke="#74767A" stroke-width="2"/>
</g>
</g>
<defs>
<clipPath id="clip0_483_5">
<rect width="39" height="39" fill="white"/>
</clipPath>
</defs>
</svg>
