<svg width="24" height="20" viewBox="0 0 24 20" fill="none" xmlns="http://www.w3.org/2000/svg">
<path fill-rule="evenodd" clip-rule="evenodd" d="M1.64988 8.58833L14.5378 3.02006C20.675 0.459585 21.9503 0.0148315 22.7815 0.000157174C22.9643 -0.00307916 23.3731 0.042362 23.6378 0.257867C23.8615 0.439811 23.9229 0.685684 23.9524 0.858141C23.9819 1.0306 24.0185 1.4237 23.9893 1.7308C23.6567 5.2358 22.2177 13.7418 21.4856 17.6675C21.1757 19.3287 20.5662 19.8856 19.9753 19.9401C18.6919 20.0586 17.7174 19.0894 16.4744 18.2721L11.5425 14.9492C9.36061 13.507 10.7751 12.7143 12.0185 11.4189C12.3439 11.0798 17.9984 5.92097 18.1078 5.45299C18.1211 5.39447 18.1342 5.17635 18.005 5.06108C17.8758 4.94581 17.685 4.98571 17.5474 5.01661C17.3524 5.06103 14.2451 7.12103 8.22581 11.1967C7.34382 11.8042 6.54493 12.1002 5.82922 12.0847C5.04014 12.0676 3.52231 11.6372 2.39396 11.2693C1.00997 10.818 -0.0900039 10.5794 0.00581896 9.81309C0.0556751 9.41395 0.603695 9.00577 1.64983 8.58842L1.64988 8.58833Z" fill="#74767A"/>
</svg>
