<svg width="24" height="24" viewBox="0 0 24 24" fill="none" xmlns="http://www.w3.org/2000/svg">
<path fill-rule="evenodd" clip-rule="evenodd" d="M2.22539 19.164C1.7383 20.4988 1.28249 21.8649 0.859014 23.2631C1.48256 23.0826 2.08574 22.8816 2.68894 22.6807C3.52826 22.4011 4.36759 22.1215 5.26182 21.8967C13.3843 26.8261 23.1104 21.297 23.9355 13.2431C24.6822 5.95206 18.8605 -0.535312 11.0309 0.0349864C2.09223 0.685911 -3.27717 11.3558 2.22539 19.164ZM9.32261 9.87038C10.1333 8.5614 9.19493 6.60124 8.50182 5.15341C8.48436 5.11694 8.46706 5.0808 8.44994 5.04499C6.81637 4.55278 5.76516 5.27226 5.20279 6.39228C4.60289 7.58682 4.55911 9.23712 4.95801 10.359C6.26031 14.0222 11.658 18.9837 15.5852 19.1644C16.9905 19.2292 18.5892 18.6946 19.2388 17.3051C19.4498 16.8539 19.5608 16.3126 19.5325 15.6723C18.4116 14.8702 17.1195 14.2393 15.7372 13.6988C15.5105 13.9228 15.3004 14.1635 15.0903 14.4043C14.6872 14.8661 14.2841 15.328 13.7635 15.6723C11.382 14.6127 9.5551 12.9986 8.45002 10.6625C8.85185 10.4433 9.13439 10.1744 9.32261 9.87038Z" fill="#74767A"/>
</svg>
