<svg xmlns="http://www.w3.org/2000/svg" viewBox="0 0 47 43"><defs><style>.cls-1,.cls-2{fill:none;stroke:#fff;stroke-width:2px;}.cls-1{stroke-linejoin:round;}.cls-2{stroke-miterlimit:10;}</style></defs><title>часов в день</title><g id="Layer_2" data-name="Layer 2"><g id="icons"><path class="cls-1" d="M32,3h5a1,1,0,0,1,1,1V18"/><path class="cls-1" d="M22,32H2a1,1,0,0,1-1-1V4A1,1,0,0,1,2,3H7"/><circle class="cls-1" cx="35" cy="31" r="11"/><line class="cls-1" x1="1" y1="11" x2="38" y2="11"/><polyline class="cls-1" points="40 26 35 32 31 29"/><line class="cls-1" x1="30" x2="30" y2="6"/><line class="cls-1" x1="11" y1="3" x2="28" y2="3"/><line class="cls-1" x1="9" x2="9" y2="6"/><line class="cls-2" x1="12" y1="16" x2="15" y2="16"/><line class="cls-2" x1="17" y1="16" x2="20" y2="16"/><line class="cls-2" x1="22" y1="16" x2="25" y2="16"/><line class="cls-2" x1="27" y1="16" x2="30" y2="16"/><line class="cls-2" x1="7" y1="21" x2="10" y2="21"/><line class="cls-2" x1="12" y1="21" x2="15" y2="21"/><line class="cls-2" x1="17" y1="21" x2="20" y2="21"/><line class="cls-2" x1="22" y1="21" x2="25" y2="21"/><line class="cls-2" x1="7" y1="26" x2="10" y2="26"/><line class="cls-2" x1="12" y1="26" x2="15" y2="26"/><line class="cls-2" x1="17" y1="26" x2="20" y2="26"/></g></g></svg>