<svg xmlns="http://www.w3.org/2000/svg" viewBox="0 0 45 41"><defs><style>.cls-1,.cls-2{fill:none;stroke:#fff;stroke-width:2px;}.cls-1{stroke-linejoin:round;}.cls-2{stroke-miterlimit:10;}</style></defs><title>сколько занятий</title><g id="Layer_2" data-name="Layer 2"><g id="icons"><path class="cls-1" d="M37,4h6a1,1,0,0,1,1,1V39a1,1,0,0,1-1,1H2a1,1,0,0,1-1-1V5A1,1,0,0,1,2,4H8"/><line class="cls-1" x1="1" y1="12" x2="44" y2="12"/><line class="cls-1" x1="35" x2="35" y2="7"/><line class="cls-1" x1="12" y1="4" x2="33" y2="4"/><line class="cls-1" x1="10" x2="10" y2="7"/><line class="cls-2" x1="16" y1="20" x2="19" y2="20"/><line class="cls-2" x1="21" y1="20" x2="24" y2="20"/><line class="cls-2" x1="26" y1="20" x2="29" y2="20"/><line class="cls-2" x1="31" y1="20" x2="34" y2="20"/><line class="cls-2" x1="11" y1="25" x2="14" y2="25"/><line class="cls-2" x1="16" y1="25" x2="19" y2="25"/><line class="cls-2" x1="21" y1="25" x2="24" y2="25"/><line class="cls-2" x1="26" y1="25" x2="29" y2="25"/><line class="cls-2" x1="31" y1="25" x2="34" y2="25"/><line class="cls-2" x1="11" y1="30" x2="14" y2="30"/><line class="cls-2" x1="16" y1="30" x2="19" y2="30"/><line class="cls-2" x1="21" y1="30" x2="24" y2="30"/><line class="cls-2" x1="26" y1="30" x2="29" y2="30"/></g></g></svg>