<svg xmlns="http://www.w3.org/2000/svg" viewBox="0 0 48 43.43"><defs><style>.cls-1{fill:none;stroke:#fff;stroke-miterlimit:10;stroke-width:2px;}</style></defs><title>онлайн</title><g id="Layer_2" data-name="Layer 2"><g id="icons"><path class="cls-1" d="M4.31,12.41,1,11.43v-3L22.38,1.2a3.34,3.34,0,0,1,2.29,0L47,8.43v3L24.35,18.8a3,3,0,0,1-2,0L7.46,13.44"/><path class="cls-1" d="M23,8.43,7.78,13.3C6.77,13.58,6,14.39,6,16.43v12"/><path class="cls-1" d="M28,28.2a33.8,33.8,0,0,1-4,.23c-6.63,0-12-1.79-12-4v-9"/><line class="cls-1" x1="36" y1="15.43" x2="36" y2="21.43"/><path class="cls-1" d="M44.78,31.85,31,21.84v17c0,.52.44.7.85.3l3.86-3.73L39.43,42a1.19,1.19,0,0,0,1.65.25l1.55-1a1.22,1.22,0,0,0,.52-1.59l-3.57-6.21h4.68C44.85,33.43,45.23,32.15,44.78,31.85Z"/></g></g></svg>