<svg width="32" height="32" viewBox="0 0 32 32" fill="none" xmlns="http://www.w3.org/2000/svg">
<path d="M16 10.666V15.9993L18 17.9993" stroke="#0827C4" stroke-width="1.5" stroke-linecap="round" stroke-linejoin="round"/>
<path d="M26.0554 21.9368C28.2372 23.115 29.3282 23.7042 29.3282 24.6656C29.3282 25.6271 28.2372 26.2163 26.0554 27.3944L24.5696 28.1968C22.894 29.1016 22.0563 29.554 21.6534 29.2251C20.6668 28.4195 22.2038 26.3404 22.5819 25.6039C22.9651 24.8576 22.9582 24.4602 22.5819 23.7274C22.2038 22.9908 20.6668 20.9118 21.6534 20.1062C22.0563 19.7772 22.894 20.2296 24.5696 21.1344L26.0554 21.9368Z" stroke="#0827C4" stroke-width="1.5"/>
<path d="M17.3733 29.2633C16.9236 29.3092 16.4671 29.3327 16.0052 29.3327C8.64141 29.3327 2.67188 23.3631 2.67188 15.9993C2.67188 8.63555 8.64141 2.66602 16.0052 2.66602C23.3689 2.66602 29.3385 8.63555 29.3385 15.9993C29.3385 16.9125 29.2467 17.8044 29.0719 18.666" stroke="#0827C4" stroke-width="1.5" stroke-linecap="round"/>
</svg>
