<svg width="24" height="24" viewBox="0 0 24 24" fill="none" xmlns="http://www.w3.org/2000/svg">
    <path d="M12.2793 3.71973C14.3876 3.71974 16.2135 5.18341 16.6719 7.24121L18.7334 16.4971H20V17.4971H15.46C14.1721 20.5537 9.82658 20.5528 8.53711 17.4971H4V16.4971H5.03027L7.0918 7.24121C7.55018 5.18351 9.37626 3.7199 11.4844 3.71973H12.2793ZM9.6582 17.4971C10.7178 19.2202 13.2819 19.2192 14.3398 17.4971H9.6582ZM11.4844 4.71973C9.84472 4.7199 8.42483 5.85852 8.06836 7.45898L6.05566 16.4971H17.708L15.6953 7.45898C15.3388 5.85841 13.9191 4.71974 12.2793 4.71973H11.4844Z" fill="#2B418B"/>
</svg>
