<svg width="32" height="32" viewBox="0 0 32 32" fill="none" xmlns="http://www.w3.org/2000/svg">
    <mask id="mask0_5553_6844" style="mask-type:alpha" maskUnits="userSpaceOnUse" x="1" y="3" width="30" height="26">
        <path d="M20.3725 12.75C20.3725 15.2629 18.4135 17.3 15.9969 17.3C13.5803 17.3 11.6213 15.2629 11.6213 12.75C11.6213 10.2371 13.5803 8.19998 15.9969 8.19998C18.4135 8.19998 20.3725 10.2371 20.3725 12.75ZM1 6.89999C1 4.74608 2.67917 3 4.75053 3H27.2495C29.3208 3 31 4.74608 31 6.89999V25.1C31 27.2539 29.3208 29 27.2495 29H4.75053C2.67917 29 1 27.2539 1 25.1V6.89999ZM4.75053 4.94999C3.71485 4.94999 2.87526 5.82304 2.87526 6.89999V25.1C2.87526 26.177 3.71485 27.05 4.75053 27.05H8.80841V21.8499C8.80841 20.414 9.92786 19.25 11.3088 19.25H20.6851C22.066 19.25 23.1854 20.414 23.1854 21.8499V27.05H27.2495C28.2851 27.05 29.1247 26.177 29.1247 25.1V6.89999C29.1247 5.82304 28.2851 4.94999 27.2495 4.94999H4.75053Z" fill="#212121"/>
    </mask>
    <g mask="url(#mask0_5553_6844)">
        <circle cx="16" cy="17" r="12" fill="#2B418B"/>
    </g>
    <circle cx="16" cy="16" r="12.5" stroke="#2B418B"/>
</svg>
