<svg width="32" height="32" viewBox="0 0 32 32" fill="none" xmlns="http://www.w3.org/2000/svg">
<mask id="mask0_287_4000" style="mask-type:alpha" maskUnits="userSpaceOnUse" x="4" y="6" width="24" height="20">
<path d="M19.4958 13.5C19.4958 15.433 17.9288 17 15.9958 17C14.0629 17 12.4958 15.433 12.4958 13.5C12.4958 11.567 14.0629 10 15.9958 10C17.9288 10 19.4958 11.567 19.4958 13.5ZM4 9C4 7.34315 5.34315 6 7 6H24.9966C26.6535 6 27.9966 7.34314 27.9966 9V23.0001C27.9966 24.6569 26.6535 26.0001 24.9966 26.0001H7C5.34315 26.0001 4 24.6569 4 23.0001V9ZM7 7.5C6.17157 7.5 5.5 8.17157 5.5 9V23.0001C5.5 23.8285 6.17157 24.5001 7 24.5001H10.2458V20.5C10.2458 19.3954 11.1413 18.5 12.2458 18.5H19.7458C20.8504 18.5 21.7458 19.3954 21.7458 20.5V24.5001H24.9966C25.825 24.5001 26.4966 23.8285 26.4966 23.0001V9C26.4966 8.17157 25.825 7.5 24.9966 7.5H7Z" fill="#212121"/>
</mask>
<g mask="url(#mask0_287_4000)">
<circle cx="16" cy="17" r="9" fill="#0827C4"/>
</g>
<circle cx="16" cy="16" r="9.5" stroke="#0827C4"/>
</svg>
