<svg width="72" height="72" viewBox="0 0 72 72" fill="none" xmlns="http://www.w3.org/2000/svg">
<path d="M36 9C21.096 9 9 21.087 9 36C9 40.157 9.92115 44.1462 11.738 47.8572C16.1945 56.9595 25.4901 63 36 63C50.7876 63 63 51.0355 63 36C63 21.1256 50.9417 9 36 9ZM56.8188 22.6125H46.7901C45.8524 18.9508 44.2414 14.7199 41.704 11.9159C47.8869 13.3779 53.324 17.1803 56.8188 22.6125ZM27.5359 22.6125C29.2092 16.4501 31.9569 12.2831 34.875 11.4177V22.6125H27.5359ZM37.125 11.4177C40.0431 12.283 42.7908 16.4501 44.464 22.6125H37.125V11.4177ZM30.296 11.9159C27.759 14.7195 26.1478 18.9497 25.2099 22.6125H15.1812C18.676 17.1803 24.1131 13.3779 30.296 11.9159ZM14.6254 48.4875H24.9896C25.9158 52.4511 27.5845 57.096 30.3095 60.0991C23.7492 58.5724 18.0882 54.4327 14.6254 48.4875ZM44.6973 48.4875C43.8222 52.0363 42.5905 55.0309 41.1048 57.2071C40.1948 58.5403 38.8233 60.0833 37.125 60.5836V48.4875H44.6973ZM34.875 60.5835C33.1768 60.0833 31.8052 58.5403 30.8952 57.2071C29.4094 55.0309 28.1779 52.0363 27.3028 48.4875H34.875V60.5835ZM41.6904 60.0991C44.4129 57.0989 46.0828 52.4564 47.0104 48.4875H57.3745C53.9119 54.4327 48.2508 58.5724 41.6904 60.0991ZM58.539 46.2375C56.4451 46.2375 15.8147 46.2375 13.461 46.2375C10.389 39.4962 10.5032 31.5672 13.8937 24.8625H58.1062C61.5694 31.7109 61.5492 39.6318 58.539 46.2375Z" fill="#0827C4"/>
<path fill-rule="evenodd" clip-rule="evenodd" d="M57.735 23.1125H46.402L46.3057 22.7365C45.3743 19.0993 43.7881 14.9642 41.3332 12.2514L40.2546 11.0594L41.819 11.4293C48.127 12.9209 53.674 16.8002 57.2393 22.342L57.735 23.1125ZM12.1871 47.6373C16.5615 56.572 25.6852 62.5 36 62.5C50.5144 62.5 62.5 50.7564 62.5 36C62.5 21.4009 50.6647 9.5 36 9.5C21.372 9.5 9.5 21.3633 9.5 36C9.5 40.0813 10.4039 43.9953 12.1871 47.6373ZM26.8821 23.1125L27.0534 22.4815C27.8996 19.3649 29.0232 16.7303 30.3207 14.7543C31.6114 12.7885 33.1116 11.4191 34.7328 10.9384L35.375 10.7479V23.1125H26.8821ZM36.625 10.748L37.2671 10.9384C38.8884 11.4191 40.3886 12.7885 41.6793 14.7542C42.9768 16.7303 44.1004 19.3649 44.9466 22.4815L45.1179 23.1125H36.625V10.748ZM31.7454 11.0594L30.6668 12.2514C28.2124 14.9637 26.6259 19.0982 25.6943 22.7365L25.598 23.1125H14.265L14.7607 22.342C18.326 16.8002 23.873 12.9209 30.181 11.4293L31.7454 11.0594ZM13.7556 47.9875H25.3863L25.4765 48.3737C26.3973 52.314 28.0423 56.8564 30.6798 59.7631L31.7559 60.949L30.1962 60.5861C23.502 59.0283 17.7255 54.8035 14.1934 48.7391L13.7556 47.9875ZM45.3355 47.9875L45.1827 48.6072C44.2986 52.1928 43.0475 55.2483 41.5177 57.4891C40.5955 58.8401 39.1402 60.5112 37.2663 61.0632L36.625 61.2521V47.9875H45.3355ZM35.375 61.252L34.7337 61.0631C32.8599 60.5112 31.4045 58.8402 30.4823 57.4891C28.9524 55.2483 27.7015 52.1928 26.8174 48.6072L26.6646 47.9875H35.375V61.252ZM30.8952 57.2071C31.7141 58.4068 32.9068 59.7765 34.375 60.4032C34.5383 60.4729 34.705 60.5334 34.875 60.5835V48.4875H27.3028C27.3443 48.6554 27.3865 48.8221 27.4294 48.9875C28.295 52.3179 29.4797 55.1339 30.8952 57.2071ZM37.125 48.4875H44.6973C44.6559 48.6554 44.6137 48.8221 44.5707 48.9875C43.7051 52.3179 42.5202 55.1339 41.1048 57.2071C40.2859 58.4068 39.0932 59.7765 37.625 60.4033C37.4617 60.473 37.295 60.5335 37.125 60.5836V48.4875ZM40.2439 60.949L41.3201 59.7631C43.9551 56.8593 45.6014 52.3192 46.5235 48.3737L46.6138 47.9875H58.2444L57.8066 48.7391C54.2746 54.8035 48.498 59.0283 41.8037 60.5861L40.2439 60.949ZM58.8607 46.7375H13.1393L13.006 46.4448C9.87159 39.5664 9.98796 31.4781 13.4476 24.6369L13.5863 24.3625H58.4137L58.5524 24.6369C62.0862 31.6249 62.0652 39.7052 58.994 46.4448L58.8607 46.7375ZM56.8188 22.6125C56.7106 22.4443 56.6005 22.2776 56.4885 22.1125C53.1518 17.1909 48.1909 13.6774 42.5477 12.1312C42.2681 12.0545 41.9868 11.9828 41.704 11.9159C41.8947 12.1266 42.0801 12.3454 42.2605 12.5714C44.4798 15.3527 45.9229 19.226 46.7901 22.6125H56.8188ZM27.5359 22.6125H34.875V11.4177C34.7077 11.4673 34.541 11.5278 34.375 11.5989C31.7244 12.7336 29.26 16.5721 27.6753 22.1125C27.6281 22.2777 27.5816 22.4443 27.5359 22.6125ZM37.125 11.4177V22.6125H44.464C44.4184 22.4443 44.3719 22.2777 44.3247 22.1125C42.74 16.5721 40.2756 12.7335 37.625 11.5988C37.459 11.5278 37.2923 11.4673 37.125 11.4177ZM30.296 11.9159C30.0132 11.9828 29.7319 12.0545 29.4523 12.1311C23.8091 13.6774 18.8482 17.1909 15.5115 22.1125C15.3995 22.2776 15.2894 22.4443 15.1812 22.6125H25.2099C26.0773 19.225 27.5206 15.3522 29.7395 12.5714C29.9199 12.3454 30.1053 12.1266 30.296 11.9159ZM14.6254 48.4875C14.7234 48.6556 14.823 48.8223 14.9245 48.9875C18.2547 54.4133 23.4492 58.2622 29.4676 59.8875C29.7465 59.9628 30.0272 60.0334 30.3095 60.0991C30.1191 59.8892 29.9339 59.6714 29.7537 59.4463C27.355 56.4502 25.8511 52.1741 24.9896 48.4875H14.6254ZM41.6904 60.0991C41.9727 60.0334 42.2534 59.9628 42.5323 59.8875C48.5508 58.2622 53.7454 54.4133 57.0756 48.9875C57.177 48.8223 57.2766 48.6556 57.3745 48.4875H47.0104C46.1477 52.1788 44.6428 56.4528 42.2462 59.4463C42.066 59.6714 41.8808 59.8892 41.6904 60.0991ZM58.539 46.2375C61.5492 39.6318 61.5695 31.7109 58.1062 24.8625H13.8937C10.5032 31.5672 10.389 39.4962 13.461 46.2375H58.539ZM9 36C9 21.087 21.096 9 36 9C50.9417 9 63 21.1256 63 36C63 51.0355 50.7876 63 36 63C25.4901 63 16.1945 56.9595 11.738 47.8572C9.92115 44.1462 9 40.157 9 36Z" fill="#F8F7F7"/>
<path d="M49.3438 44V27.1953H53.7148C54.6133 27.1953 55.4102 27.2773 56.1055 27.4414C56.8008 27.5977 57.4219 27.8555 57.9688 28.2148C58.5156 28.5742 58.9336 29.0742 59.2227 29.7148C59.5195 30.3477 59.668 31.1094 59.668 32C59.668 32.7578 59.5625 33.4297 59.3516 34.0156C59.1484 34.5938 58.8711 35.0664 58.5195 35.4336C58.168 35.8008 57.7344 36.1016 57.2188 36.3359C56.7031 36.5703 56.1602 36.7344 55.5898 36.8281C55.0195 36.9219 54.3867 36.9688 53.6914 36.9688H50.6211V44H49.3438ZM50.6211 28.2617V35.9375H53.6914C55.1914 35.9375 56.3477 35.6484 57.1602 35.0703C57.9648 34.5 58.3672 33.4922 58.3672 32.0469C58.3672 31.4453 58.2852 30.9219 58.1211 30.4766C57.9648 30.0234 57.75 29.6602 57.4766 29.3867C57.2031 29.1055 56.8594 28.8789 56.4453 28.707C56.0391 28.5352 55.6172 28.418 55.1797 28.3555C54.7422 28.293 54.2461 28.2617 53.6914 28.2617H50.6211Z" fill="#0827C4"/>
<path d="M33.8164 44H32.5156V27.1953H33.793V41.9844H33.8633L43.9648 27.1953H45.2656V44H43.9883V29.2109H43.918L33.8164 44Z" fill="#0827C4"/>
<path d="M13.0391 44V27.1953H15.0312L20.7383 42.0547H20.7969L26.4805 27.1953H28.4258V44H27.125V28.7305H27.0078L21.125 44H20.1875L14.3398 28.7305H14.2344V44H13.0391Z" fill="#0827C4"/>
</svg>
