<svg width="32" height="32" viewBox="0 0 32 32" fill="none" xmlns="http://www.w3.org/2000/svg">
<path d="M14.6562 19.999H17.3229" stroke="#0827C4" stroke-width="1.5" stroke-linecap="round" stroke-linejoin="round"/>
<path d="M16 22.668V29.3346" stroke="#0827C4" stroke-width="1.5"/>
<path d="M10.6641 29.333H21.3307" stroke="#0827C4" stroke-width="1.5" stroke-linecap="round"/>
<path d="M12.0052 4.00098H5.33854C3.86578 4.00098 2.67188 5.19488 2.67188 6.66764V19.9997C2.67188 21.4724 3.86578 22.6663 5.33854 22.6663H26.6705C28.1433 22.6663 29.3372 21.4724 29.3372 19.9997V14.6663" stroke="#0827C4" stroke-width="1.5" stroke-linecap="round"/>
<path d="M26 5.52776L26.084 5.46716C27.4944 4.44882 28.1997 3.93964 28.7665 4.1855C29.3333 4.43135 29.3333 5.24642 29.3333 6.87656V7.7888C29.3333 9.41895 29.3333 10.234 28.7665 10.4799C28.1997 10.7257 27.4944 10.2165 26.084 9.1982L26 9.1376M20.6667 11.9993H21.3333C23.5332 11.9993 24.6332 11.9993 25.3165 11.4014C26 10.8034 26 9.84092 26 7.91602V6.74935C26 4.82444 26 3.862 25.3165 3.264C24.6332 2.66602 23.5332 2.66602 21.3333 2.66602H20.6667C18.4668 2.66602 17.3668 2.66602 16.6835 3.264C16 3.862 16 4.82444 16 6.74935C16 8.67426 16 7.91602 16 7.91602C16 9.84092 16 10.8034 16.6835 11.4014C17.3668 11.9993 18.4668 11.9993 20.6667 11.9993Z" stroke="#0827C4" stroke-width="1.5" stroke-linecap="round"/>
</svg>
