<svg width="71" height="53" viewBox="0 0 71 53" fill="none" xmlns="http://www.w3.org/2000/svg">
<rect x="4.89844" y="10.1699" width="61" height="32.7378" stroke="#2F6298" stroke-linejoin="bevel"/>
<path d="M14.2422 26.3696H20.4482" stroke="#2F6298" stroke-linejoin="bevel"/>
<path d="M50.4375 26.3696H56.6436" stroke="#2F6298" stroke-linejoin="bevel"/>
<circle cx="35.3966" cy="26.1388" r="8.58801" stroke="#2F6298" stroke-linejoin="bevel"/>
<path d="M13.4865 43.4073C13.4865 42.2139 13.2514 41.0321 12.7947 39.9295C12.338 38.8269 11.6685 37.8251 10.8246 36.9812C9.98073 36.1373 8.97888 35.4678 7.87627 35.0111C6.77366 34.5544 5.59189 34.3193 4.39844 34.3193" stroke="#2F6298" stroke-linejoin="bevel"/>
<path d="M66.3966 34.3197C65.2032 34.3197 64.0214 34.5548 62.9188 35.0115C61.8162 35.4682 60.8143 36.1376 59.9704 36.9815C59.1265 37.8254 58.4571 38.8273 58.0004 39.9299C57.5437 41.0325 57.3086 42.2143 57.3086 43.4077" stroke="#2F6298" stroke-linejoin="bevel"/>
<path d="M57.3104 9.6698C57.3104 10.8633 57.5455 12.045 58.0022 13.1476C58.4589 14.2502 59.1283 15.2521 59.9722 16.096C60.8161 16.9399 61.818 17.6093 62.9206 18.066C64.0232 18.5227 65.205 18.7578 66.3984 18.7578" stroke="#2F6298" stroke-linejoin="bevel"/>
<path d="M4.39636 18.7579C5.58982 18.7579 6.77159 18.5229 7.87419 18.0662C8.9768 17.6094 9.97866 16.94 10.8226 16.0961C11.6665 15.2522 12.3359 14.2504 12.7926 13.1478C13.2493 12.0451 13.4844 10.8634 13.4844 9.66992" stroke="#2F6298" stroke-linejoin="bevel"/>
<path d="M32.0625 42.9622C40.9766 46.0005 58.8047 52.0771 58.8047 52.0771L61.8556 42.9622M65.862 31.0317L69.733 20.1739L65.862 18.7578" stroke="#2F6298" stroke-linejoin="bevel"/>
<path d="M38.6719 10.115C29.7578 7.07663 11.9297 0.999998 11.9297 0.999998L8.87877 10.115M4.87241 22.0454L1.00137 32.9032L4.87241 34.3193" stroke="#2F6298" stroke-linejoin="bevel"/>
</svg>
