<svg width="24" height="24" viewBox="0 0 24 24" fill="none" xmlns="http://www.w3.org/2000/svg">
    <path d="M9.07227 17.6035C10.1657 17.6035 11.0526 18.4896 11.0527 19.583C11.0527 20.6765 10.1657 21.5635 9.07227 21.5635C7.97898 21.5633 7.09277 20.6763 7.09277 19.583C7.09291 18.4898 7.97906 17.6037 9.07227 17.6035ZM16.9941 17.6035C18.0875 17.6035 18.9745 18.4896 18.9746 19.583C18.9746 20.6765 18.0876 21.5635 16.9941 21.5635C15.9008 21.5633 15.0146 20.6764 15.0146 19.583C15.0148 18.4898 15.9009 17.6037 16.9941 17.6035ZM5.55273 2.55273L6.32812 5.39453H21.6328L21.4004 6.32715L19.1367 15.3799L18.9951 15.9482H7.65137L7.50098 15.3955L4.25586 3.5H2V2H5.40234L5.55273 2.55273ZM8.79688 14.4482H17.8242L19.7119 6.89453H6.73633L8.79688 14.4482Z" fill="black"/>
</svg>
