<svg width="72" height="72" viewBox="0 0 72 72" fill="none" xmlns="http://www.w3.org/2000/svg">
<path d="M36 8.4502C39.6738 8.4502 42.6638 11.4395 42.6641 15.1133C42.6641 17.0061 41.8693 18.7162 40.5957 19.9316L40.1611 20.3467L40.6816 20.6475C43.5009 22.2737 45.4004 25.3185 45.4004 28.7969V37.2197H37.1904V41.4062H56.9531V47.9746H63.5498V63.5498H47.9746V47.9746H54.5713V43.7881H37.1904V47.9746H43.7881V63.5498H28.2119V47.9746H34.8096V43.7881H17.4287V47.9746H24.0254V63.5498H8.4502V47.9746H15.0469V41.4062H34.8096V37.2197H26.5996V28.7969C26.5996 25.3185 28.4991 22.2737 31.3184 20.6475L31.8389 20.3467L31.4043 19.9316C30.1307 18.7162 29.3359 17.006 29.3359 15.1133C29.3362 11.4395 32.3262 8.4502 36 8.4502ZM10.8311 61.1689H21.6445V50.3555H10.8311V61.1689ZM30.5938 61.1689H41.4062V50.3555H30.5938V61.1689ZM50.3555 61.1689H61.1689V50.3555H50.3555V61.1689ZM36 21.7773C32.1293 21.7773 28.9805 24.9262 28.9805 28.7969V34.8389H43.0195V28.7969C43.0195 24.9261 39.8707 21.7773 36 21.7773ZM36 10.8311C33.6384 10.8311 31.718 12.7517 31.7178 15.1133C31.7178 17.475 33.6382 19.3965 36 19.3965C38.3618 19.3965 40.2822 17.475 40.2822 15.1133C40.282 12.7517 38.3616 10.8311 36 10.8311Z" fill="#0827C4" stroke="white" stroke-width="0.9"/>
</svg>
