<svg width="51" height="55" viewBox="0 0 51 55" fill="none" xmlns="http://www.w3.org/2000/svg">
<path d="M25.5 0C28.3234 3.96075e-07 31.1191 0.595134 33.7275 1.75098C36.336 2.90684 38.7067 4.60058 40.7031 6.73633C42.6995 8.87205 44.2828 11.4078 45.3633 14.1982C46.3649 16.7849 46.9141 19.5439 46.9893 22.3389C49.3251 23.1596 51 25.3837 51 28V31L50.9922 31.3086C50.854 34.0362 48.8938 36.2811 46.3047 36.8555C45.2519 40.1437 43.505 43.1926 41.1885 45.7695C38.8864 48.3304 36.0844 50.3566 32.9932 51.7041C32.8875 53.5421 31.3645 55 29.5 55C27.567 55 26 53.433 26 51.5C26 49.567 27.567 48 29.5 48C30.876 48 32.0658 48.7944 32.6377 49.9492C35.3874 48.7097 37.8797 46.882 39.9385 44.5918C41.9262 42.3805 43.4586 39.7926 44.4424 37H42L41.8975 36.9951C41.3933 36.9438 41 36.5177 41 36V23C41 22.4823 41.3933 22.0562 41.8975 22.0049L42 22H45C45.1084 22 45.2162 22.0031 45.3232 22.0088C45.2162 19.5592 44.7149 17.1451 43.8359 14.875C42.8386 12.2992 41.3761 9.95874 39.5332 7.9873C37.6904 6.01597 35.5025 4.45265 33.0947 3.38574C30.8373 2.38547 28.4281 1.83962 25.9883 1.77539L25.5 1.76953C22.8938 1.76953 20.3131 2.31879 17.9053 3.38574C15.4975 4.45265 13.3096 6.01597 11.4668 7.9873C9.62394 9.95874 8.16143 12.2992 7.16406 14.875C6.28506 17.1451 5.78281 19.5592 5.67578 22.0088C5.78313 22.0031 5.89122 22 6 22H9L9.10254 22.0049C9.60667 22.0562 10 22.4823 10 23V36C10 36.5177 9.60667 36.9438 9.10254 36.9951L9 37H6L5.69141 36.9922C2.62332 36.8368 0.163251 34.3767 0.0078125 31.3086L0 31V28C0 25.384 1.67443 23.1599 4.00977 22.3389C4.08491 19.5439 4.63514 16.785 5.63672 14.1982C6.71719 11.4078 8.30046 8.87205 10.2969 6.73633C12.2933 4.60058 14.664 2.90683 17.2725 1.75098C19.8809 0.595134 22.6766 0 25.5 0ZM29.5 49.5C28.3954 49.5 27.5 50.3954 27.5 51.5C27.5 52.6046 28.3954 53.5 29.5 53.5C30.6046 53.5 31.5 52.6046 31.5 51.5C31.5 50.3954 30.6046 49.5 29.5 49.5ZM42.5 23.5V35.5H45C47.4853 35.5 49.5 33.4853 49.5 31V28C49.5 25.5147 47.4853 23.5 45 23.5H42.5ZM6 23.5C3.51472 23.5 1.5 25.5147 1.5 28V31C1.5 33.4853 3.51472 35.5 6 35.5H8.5V23.5H6Z" fill="url(#paint0_linear_2650_17222)"/>
<defs>
<linearGradient id="paint0_linear_2650_17222" x1="0" y1="27.5" x2="51" y2="27.5" gradientUnits="userSpaceOnUse">
<stop stop-color="#272751"/>
<stop offset="1" stop-color="#4F72B1"/>
</linearGradient>
</defs>
</svg>
