<svg width="28" height="28" viewBox="0 0 28 28" fill="none" xmlns="http://www.w3.org/2000/svg">
<path d="M23.4285 12.2856V11.7141C23.4285 7.40416 23.4285 5.24917 22.0896 3.91023C20.7506 2.57129 18.5957 2.57129 14.2856 2.57129H13.1429C8.83295 2.57129 6.67798 2.57129 5.33904 3.91021C4.0001 5.24914 4.00008 7.40411 4.00005 11.7141L4 16.857C3.99997 20.614 3.99995 22.4927 5.03758 23.757C5.22757 23.9885 5.43984 24.2008 5.67134 24.3908C6.93574 25.4284 8.81427 25.4284 12.5713 25.4284" stroke="#0827C4" stroke-linecap="round"/>
<path d="M8.57031 8.28564H18.856" stroke="#0827C4" stroke-linecap="round"/>
<path d="M8.57031 14H15.4275" stroke="#0827C4" stroke-linecap="round"/>
<path d="M23.4275 23.1428V19.7142C23.4275 18.0806 21.8925 16.2856 19.9989 16.2856C18.1053 16.2856 16.5703 18.0806 16.5703 19.7142V23.7142C16.5703 24.661 17.3379 25.4285 18.2846 25.4285C19.2313 25.4285 19.9989 24.661 19.9989 23.7142V19.7142" stroke="#0827C4" stroke-linecap="round"/>
</svg>
