<svg width="72" height="72" viewBox="0 0 72 72" fill="none" xmlns="http://www.w3.org/2000/svg">
<path d="M60.7291 24.6891C60.3949 23.5153 60.3007 23.4617 59.084 23.3846C57.246 23.2689 55.4103 23.149 53.6002 23.0012C52.5848 22.9198 52.6084 22.8962 52.7219 21.9044C52.9918 19.6338 53.2232 17.3524 53.4845 15.0003C53.4566 14.6126 53.1974 14.2806 52.8269 14.1606C49.8322 12.6976 46.8419 11.2259 43.8559 9.74576C43.4061 9.48228 42.8342 9.57224 42.485 9.95996C40.752 11.6479 38.9976 13.3102 37.2647 15.0003C37.1533 15.1674 36.967 15.2681 36.7656 15.2681C36.5642 15.2681 36.3779 15.1674 36.2665 15.0003C34.39 13.1453 32.4942 11.3202 30.6072 9.47816C30.0588 8.92978 29.8018 8.87406 29.1206 9.20397C26.1216 10.6413 23.1482 12.0936 20.1601 13.5139C19.6889 13.7024 19.4275 14.2036 19.5411 14.6985C19.8045 17.117 20.0337 19.5461 20.3036 21.9645C20.3679 22.1552 20.3315 22.3651 20.2051 22.5215C20.0808 22.6778 19.8838 22.7592 19.6846 22.7378C17.0198 23.0784 14.3593 23.4511 11.6947 23.8346C11.2084 23.8538 10.8078 24.2201 10.7457 24.7C10.0495 27.9024 9.34691 31.122 8.65074 34.3525C8.47938 35.1536 8.57363 35.3443 9.24837 35.7792L15.2805 39.575C15.8289 39.9092 15.8289 40.0141 15.5162 40.5668L11.5511 47.3875C11.157 48.0623 11.1784 48.2872 11.6775 48.8849L17.9838 56.4574C18.106 56.6952 18.3244 56.8709 18.5815 56.9415C18.8407 57.0122 19.117 56.9737 19.344 56.8302L25.9953 54.4182C26.7687 54.1376 26.8115 54.1547 27.0921 54.9001C28.0453 57.2907 29.0114 59.6813 29.9389 62.085C30.0867 62.6612 30.6287 63.0468 31.222 62.9954H40.9728C41.8232 62.9954 41.9881 62.8519 42.2452 62.0358C42.9906 59.6666 43.7425 57.2974 44.4708 54.9068C44.4772 54.714 44.5843 54.5405 44.7536 54.4463C44.9206 54.3542 45.1263 54.3542 45.2934 54.4506C47.7611 55.1918 50.2288 55.8986 52.7075 56.6441C53.7164 56.9397 53.8749 56.8904 54.4833 56.0572L60.1985 48.2663C60.6312 47.6751 60.6312 47.4331 60.1985 46.8075C58.8597 44.8175 57.5337 42.8211 56.1799 40.8352H56.1778C56.0364 40.6895 55.9743 40.4817 56.0171 40.2804C56.0578 40.0811 56.197 39.9141 56.3877 39.8369C58.5384 38.3182 60.6697 36.7716 62.8097 35.2314C63.4138 34.7987 63.5123 34.546 63.3581 33.9097C62.4756 30.8315 61.5995 27.7575 60.7297 24.6904L60.7291 24.6891ZM35.8552 46.1806C32.1665 46.1806 28.7565 44.2121 26.9117 41.0181C25.0673 37.8221 25.0673 33.887 26.9117 30.6911C28.7561 27.4972 32.1663 25.5286 35.8552 25.5286C39.5442 25.5286 42.954 27.4972 44.7987 30.6911C46.6431 33.8871 46.6431 37.8222 44.7987 41.0181C42.9544 44.212 39.5442 46.1806 35.8552 46.1806Z" stroke="#0827C4" stroke-width="1.5" stroke-linejoin="bevel"/>
</svg>
