<svg width="89" height="89" viewBox="0 0 89 89" fill="none" xmlns="http://www.w3.org/2000/svg">
<g clip-path="url(#clip0_376_7007)">
<path d="M44.5 89C69.0767 89 89 69.0767 89 44.5C89 19.9233 69.0767 0 44.5 0C19.9233 0 0 19.9233 0 44.5C0 69.0767 19.9233 89 44.5 89Z" fill="url(#paint0_linear_376_7007)"/>
<path fill-rule="evenodd" clip-rule="evenodd" d="M20.1426 44.0303L46.0941 32.8519C58.4523 27.7117 61.0201 26.8188 62.6938 26.7894C63.062 26.7829 63.8851 26.8741 64.4182 27.3067C64.8685 27.672 64.9922 28.1656 65.0516 28.5118C65.111 28.858 65.1847 29.6472 65.126 30.2637C64.4563 37.3 61.5585 54.3759 60.0843 62.2568C59.4604 65.5917 58.2331 66.7098 57.0432 66.8192C54.459 67.057 52.4966 65.1113 49.9937 63.4706L40.0627 56.7998C35.6691 53.9046 38.5173 52.3133 41.0212 49.7127C41.6765 49.0319 53.0625 38.6755 53.2828 37.736C53.3095 37.6185 53.3359 37.1807 53.0758 36.9493C52.8156 36.7179 52.4314 36.798 52.1543 36.86C51.7616 36.9492 45.5048 41.0846 33.3841 49.2666C31.6081 50.4862 29.9994 51.0804 28.5582 51.0493C26.9693 51.0149 23.913 50.1509 21.6409 49.4123C18.854 48.5064 16.6391 48.0274 16.832 46.489C16.9324 45.6877 18.0359 44.8683 20.1425 44.0305L20.1426 44.0303Z" fill="white"/>
</g>
<defs>
<linearGradient id="paint0_linear_376_7007" x1="4450" y1="0" x2="4450" y2="8833.99" gradientUnits="userSpaceOnUse">
<stop stop-color="#2AABEE"/>
<stop offset="1" stop-color="#229ED9"/>
</linearGradient>
<clipPath id="clip0_376_7007">
<rect width="89" height="89" fill="white"/>
</clipPath>
</defs>
</svg>
