<svg width="72" height="72" viewBox="0 0 72 72" fill="none" xmlns="http://www.w3.org/2000/svg">
<path d="M36.5 13C23.5211 13 13 23.5211 13 36.5C13 49.4785 23.5211 60 36.5 60C49.4785 60 60 49.4785 60 36.5C59.9846 23.5276 49.4724 13.0154 36.5 13ZM36.5 57.0625C25.1437 57.0625 15.9375 47.8563 15.9375 36.5C15.9375 25.1437 25.1437 15.9375 36.5 15.9375C47.8563 15.9375 57.0625 25.1437 57.0625 36.5C57.0503 47.8513 47.8513 57.0503 36.5 57.0625Z" fill="#0827C4"/>
<path fill-rule="evenodd" clip-rule="evenodd" d="M36.5009 57.8625H36.5C24.7019 57.8625 15.1375 48.2981 15.1375 36.5C15.1375 24.7019 24.7019 15.1375 36.5 15.1375C48.2981 15.1375 57.8625 24.7019 57.8625 36.5V36.5009C57.8498 48.2933 48.2933 57.8498 36.5009 57.8625ZM36.4995 13.8C23.9627 13.8003 13.8 23.9631 13.8 36.5C13.8 49.0367 23.963 59.2 36.5 59.2C49.0364 59.2 59.1995 49.0372 59.2 36.501C59.1851 23.9698 49.0306 13.8151 36.4995 13.8ZM36.5 13C23.5211 13 13 23.5211 13 36.5C13 49.4785 23.5211 60 36.5 60C49.4785 60 60 49.4785 60 36.5C59.9846 23.5276 49.4724 13.0154 36.5 13ZM36.5 57.0625C25.1437 57.0625 15.9375 47.8563 15.9375 36.5C15.9375 25.1437 25.1437 15.9375 36.5 15.9375C47.8563 15.9375 57.0625 25.1437 57.0625 36.5C57.0503 47.8513 47.8513 57.0503 36.5 57.0625Z" fill="#F8F7F7"/>
<path d="M37.9687 20.3438H35.0312V36.5C35.0312 36.8894 35.1862 37.2631 35.4615 37.5385L45.7428 47.8197L47.8197 45.7428L37.9687 35.8918V20.3438Z" fill="#0827C4"/>
<path fill-rule="evenodd" clip-rule="evenodd" d="M37.1687 36.2232V21.1438H35.8313V36.5C35.8313 36.677 35.9017 36.8473 36.0272 36.9728L45.7428 46.6883L46.6883 45.7428L37.1687 36.2232ZM47.8197 45.7428L45.7428 47.8197L35.4615 37.5385C35.1862 37.2631 35.0312 36.8894 35.0312 36.5V20.3438H37.9687V35.8918L47.8197 45.7428Z" fill="#F8F7F7"/>
</svg>
