<svg width="73" height="72" viewBox="0 0 73 72" fill="none" xmlns="http://www.w3.org/2000/svg">
<path d="M55.3636 30.2523C57.5759 32.4673 63.3313 36.008 63.3313 36.008C63.3313 36.008 59.7906 41.7611 57.5782 43.973C55.3633 46.1853 52.7117 48.4003 51.161 44.6346C49.6129 40.869 46.9561 36.0048 41.6449 41.3136C36.3364 46.6221 41.203 49.2813 44.9659 50.8297C48.7289 52.3804 46.5166 55.0346 44.3043 57.2469C42.092 59.4593 36.3393 63 36.3393 63L22.8353 49.4933L9.33398 35.992C9.33398 35.992 15.0844 32.4539 17.297 30.2416C19.5119 28.0293 21.7242 25.3725 17.9586 23.8244C14.1982 22.2711 9.32882 19.6142 14.6376 14.3056C19.946 8.9945 22.6026 13.8663 24.1537 17.6266C25.7018 21.3922 28.3613 19.1773 30.5735 16.965C32.7884 14.7501 36.3266 9 36.3266 9C36.3266 9 39.8699 14.7557 42.0822 16.9677C44.2919 19.1852 46.9514 21.3975 48.4969 17.6398C50.0449 13.8741 52.6991 9.0073 58.013 14.3187C63.3267 19.6324 58.4549 22.2864 54.6946 23.8349C50.9342 25.3829 53.1513 28.04 55.3636 30.2523Z" stroke="url(#paint0_linear_2613_16589)" stroke-width="1.5" stroke-linejoin="bevel"/>
<defs>
<linearGradient id="paint0_linear_2613_16589" x1="9.33398" y1="36" x2="63.3313" y2="36" gradientUnits="userSpaceOnUse">
<stop stop-color="#2F6298"/>
<stop offset="1" stop-color="#438DB0"/>
</linearGradient>
</defs>
</svg>