<svg width="72" height="72" viewBox="0 0 72 72" fill="none" xmlns="http://www.w3.org/2000/svg">
<mask id="path-1-inside-1_2240_11296" fill="white">
<path d="M52.1741 39.299C52.1741 37.1941 51.7595 35.1098 50.954 33.1651C50.1485 31.2205 48.9678 29.4535 47.4795 27.9651C45.9911 26.4768 44.2241 25.2961 42.2794 24.4906C40.3348 23.6851 38.2505 23.2705 36.1456 23.2705V39.299H52.1741Z"/>
</mask>
<path d="M52.1741 39.299C52.1741 37.1941 51.7595 35.1098 50.954 33.1651C50.1485 31.2205 48.9678 29.4535 47.4795 27.9651C45.9911 26.4768 44.2241 25.2961 42.2794 24.4906C40.3348 23.6851 38.2505 23.2705 36.1456 23.2705V39.299H52.1741Z" stroke="#0827C4" stroke-width="3" mask="url(#path-1-inside-1_2240_11296)"/>
<circle cx="36.1471" cy="39.2994" r="24.358" stroke="#0827C4" stroke-width="1.5" stroke-linejoin="bevel"/>
<path d="M29.4766 7.31836H36.1498M42.823 7.31836H36.1498M36.1498 7.31836V14.4559" stroke="#0827C4" stroke-width="1.5" stroke-linejoin="bevel"/>
<path d="M53.2656 21.4775L56.457 18.5181" stroke="#0827C4" stroke-width="1.5" stroke-linejoin="bevel"/>
<path d="M18.7954 21.5933L15.8359 18.4019" stroke="#0827C4" stroke-width="1.5" stroke-linejoin="bevel"/>
</svg>
