<svg width="54" height="54" viewBox="0 0 54 54" fill="none" xmlns="http://www.w3.org/2000/svg">
<path d="M27 0C12.096 0 0 12.087 0 27C0 31.157 0.92115 35.1462 2.73802 38.8572C7.19449 47.9595 16.4901 54 27 54C41.7876 54 54 42.0355 54 27C54 12.1256 41.9417 0 27 0ZM47.8188 13.6125H37.7901C36.8524 9.95085 35.2414 5.71995 32.704 2.91589C38.8869 4.37794 44.324 8.18032 47.8188 13.6125ZM18.5359 13.6125C20.2092 7.45009 22.9569 3.28309 25.875 2.41774V13.6125H18.5359ZM28.125 2.41774C31.0431 3.28297 33.7908 7.45009 35.464 13.6125H28.125V2.41774ZM21.296 2.91589C18.759 5.7195 17.1478 9.94972 16.2099 13.6125H6.1812C9.67601 8.18032 15.1131 4.37794 21.296 2.91589ZM5.62545 39.4875H15.9896C16.9158 43.4511 18.5845 48.096 21.3095 51.0991C14.7492 49.5724 9.0882 45.4327 5.62545 39.4875ZM35.6973 39.4875C34.8222 43.0363 33.5905 46.0309 32.1048 48.2071C31.1948 49.5403 29.8233 51.0833 28.125 51.5836V39.4875H35.6973ZM25.875 51.5835C24.1768 51.0833 22.8052 49.5403 21.8952 48.2071C20.4094 46.0309 19.1779 43.0363 18.3028 39.4875H25.875V51.5835ZM32.6904 51.0991C35.4129 48.0989 37.0828 43.4564 38.0104 39.4875H48.3745C44.9119 45.4327 39.2508 49.5724 32.6904 51.0991ZM49.539 37.2375C47.4451 37.2375 6.81469 37.2375 4.46096 37.2375C1.38904 30.4962 1.50322 22.5672 4.89375 15.8625H49.1062C52.5694 22.7109 52.5492 30.6318 49.539 37.2375Z" fill="#0827C4"/>
<path fill-rule="evenodd" clip-rule="evenodd" d="M48.735 14.1125H37.402L37.3057 13.7365C36.3743 10.0993 34.7881 5.96415 32.3332 3.25138L31.2546 2.05936L32.819 2.42931C39.127 3.92093 44.674 7.80021 48.2393 13.342L48.735 14.1125ZM3.18709 38.6373C7.56146 47.572 16.6852 53.5 27 53.5C41.5144 53.5 53.5 41.7564 53.5 27C53.5 12.4009 41.6647 0.5 27 0.5C12.372 0.5 0.5 12.3633 0.5 27C0.5 31.0813 1.40394 34.9953 3.18709 38.6373ZM17.8821 14.1125L18.0534 13.4815C18.8996 10.3649 20.0232 7.73029 21.3207 5.75429C22.6114 3.78854 24.1116 2.41913 25.7328 1.93837L26.375 1.74795V14.1125H17.8821ZM27.625 1.74797L28.2671 1.93837C29.8884 2.41907 31.3886 3.78849 32.6793 5.75424C33.9768 7.73026 35.1004 10.3649 35.9466 13.4815L36.1179 14.1125H27.625V1.74797ZM22.7454 2.05937L21.6668 3.25137C19.2124 5.96371 17.6259 10.0982 16.6943 13.7365L16.598 14.1125H5.26498L5.76071 13.342C9.32602 7.80021 14.873 3.92093 21.181 2.42931L22.7454 2.05937ZM4.7556 38.9875H16.3863L16.4765 39.3737C17.3973 43.314 19.0423 47.8564 21.6798 50.7631L22.7559 51.949L21.1962 51.5861C14.502 50.0283 8.72555 45.8035 5.19339 39.7391L4.7556 38.9875ZM36.3355 38.9875L36.1827 39.6072C35.2986 43.1928 34.0475 46.2483 32.5177 48.4891C31.5955 49.8401 30.1402 51.5112 28.2663 52.0632L27.625 52.2521V38.9875H36.3355ZM26.375 52.252L25.7337 52.0631C23.8599 51.5112 22.4045 49.8402 21.4823 48.4891C19.9524 46.2483 18.7015 43.1928 17.8174 39.6072L17.6646 38.9875H26.375V52.252ZM21.8952 48.2071C22.7141 49.4068 23.9068 50.7765 25.375 51.4032C25.5383 51.4729 25.705 51.5334 25.875 51.5835V39.4875H18.3028C18.3443 39.6554 18.3865 39.8221 18.4294 39.9875C19.295 43.3179 20.4797 46.1339 21.8952 48.2071ZM28.125 39.4875H35.6973C35.6559 39.6554 35.6137 39.8221 35.5707 39.9875C34.7051 43.3179 33.5202 46.1339 32.1048 48.2071C31.2859 49.4068 30.0932 50.7765 28.625 51.4033C28.4617 51.473 28.295 51.5335 28.125 51.5836V39.4875ZM31.2439 51.949L32.3201 50.7631C34.9551 47.8593 36.6014 43.3192 37.5235 39.3737L37.6138 38.9875H49.2444L48.8066 39.7391C45.2746 45.8035 39.498 50.0283 32.8037 51.5861L31.2439 51.949ZM49.8607 37.7375H4.13934L4.00597 37.4448C0.871593 30.5664 0.987961 22.4781 4.44756 15.6369L4.5863 15.3625H49.4137L49.5524 15.6369C53.0862 22.6249 53.0652 30.7052 49.994 37.4448L49.8607 37.7375ZM47.8188 13.6125C47.7106 13.4443 47.6005 13.2776 47.4885 13.1125C44.1518 8.19089 39.1909 4.67736 33.5477 3.13115C33.2681 3.05455 32.9868 2.98277 32.704 2.91589C32.8947 3.12663 33.0801 3.34543 33.2605 3.57145C35.4798 6.35269 36.9229 10.226 37.7901 13.6125H47.8188ZM18.5359 13.6125H25.875V2.41774C25.7077 2.46734 25.541 2.5278 25.375 2.59886C22.7244 3.73357 20.26 7.57209 18.6753 13.1125C18.6281 13.2777 18.5816 13.4443 18.5359 13.6125ZM28.125 2.41774V13.6125H35.464C35.4184 13.4443 35.3719 13.2777 35.3247 13.1125C33.74 7.57208 31.2756 3.73347 28.625 2.59884C28.459 2.52779 28.2923 2.46734 28.125 2.41774ZM21.296 2.91589C21.0132 2.98277 20.7319 3.05454 20.4523 3.13115C14.8091 4.67735 9.84819 8.19088 6.51146 13.1125C6.39953 13.2776 6.28944 13.4443 6.1812 13.6125H16.2099C17.0773 10.225 18.5206 6.35225 20.7395 3.57145C20.9199 3.34543 21.1053 3.12663 21.296 2.91589ZM5.62545 39.4875C5.72337 39.6556 5.82305 39.8223 5.92445 39.9875C9.25474 45.4133 14.4492 49.2622 20.4676 50.8875C20.7465 50.9628 21.0272 51.0334 21.3095 51.0991C21.1191 50.8892 20.9339 50.6714 20.7537 50.4463C18.355 47.4502 16.8511 43.1741 15.9896 39.4875H5.62545ZM32.6904 51.0991C32.9727 51.0334 33.2534 50.9628 33.5323 50.8875C39.5508 49.2622 44.7454 45.4133 48.0756 39.9875C48.177 39.8223 48.2766 39.6556 48.3745 39.4875H38.0104C37.1477 43.1788 35.6428 47.4528 33.2462 50.4463C33.066 50.6714 32.8808 50.8892 32.6904 51.0991ZM49.539 37.2375C52.5492 30.6318 52.5695 22.7109 49.1062 15.8625H4.89375C1.50322 22.5672 1.38904 30.4962 4.46096 37.2375H49.539ZM0 27C0 12.087 12.096 0 27 0C41.9417 0 54 12.1256 54 27C54 42.0355 41.7876 54 27 54C16.4901 54 7.19449 47.9595 2.73802 38.8572C0.92115 35.1462 0 31.157 0 27Z" fill="#F8F7F7"/>
<path d="M15.4736 24.1142C14.0053 22.4311 11.3733 22.953 10.5375 25.0838C9.74287 27.1092 11.1457 29.4648 13.292 29.4648C15.3709 29.4648 16.8577 27.2491 16.0774 25.1367C15.9364 24.7546 15.7352 24.4139 15.4736 24.1142ZM14.4423 27.5738C14.3159 27.7533 14.1587 27.8986 13.9707 28.0102C13.5932 28.2343 13.0363 28.2318 12.653 28.0189C11.5125 27.388 11.4817 25.2382 12.6397 24.5681C13.0074 24.3557 13.5547 24.3466 13.9444 24.5593C14.547 24.8891 14.817 25.5966 14.817 26.2737C14.817 26.5087 14.7027 27.2046 14.4423 27.5738Z" fill="#0827C4"/>
<path fill-rule="evenodd" clip-rule="evenodd" d="M15.3229 24.2457L15.3229 24.2457C13.9609 22.6844 11.509 23.1547 10.7236 25.1569L10.7236 25.1569C9.97253 27.0714 11.3079 29.2648 13.292 29.2648C15.2178 29.2648 16.6268 27.2011 15.8898 25.206L15.8898 25.2059C15.757 24.8462 15.5681 24.5266 15.3229 24.2457ZM14.0728 28.1821L14.0728 28.1822C13.6313 28.4443 12.9985 28.4395 12.556 28.1939C11.901 27.8314 11.5903 27.0532 11.5844 26.3098C11.5786 25.5655 11.8775 24.7781 12.5396 24.395L12.5397 24.3949C12.9684 24.1473 13.59 24.138 14.0402 24.3838L14.0404 24.3839C14.7306 24.7616 15.017 25.555 15.017 26.2737C15.017 26.4124 14.985 26.6619 14.9215 26.921C14.8584 27.1785 14.7576 27.4737 14.6059 27.6889M12.653 28.0189C13.0363 28.2318 13.5932 28.2343 13.9707 28.0102C14.1587 27.8986 14.3159 27.7533 14.4423 27.5738C14.7027 27.2046 14.817 26.5087 14.817 26.2737C14.817 25.5966 14.547 24.8891 13.9444 24.5593C13.5547 24.3466 13.0074 24.3557 12.6397 24.5681C11.4817 25.2382 11.5125 27.388 12.653 28.0189ZM16.0774 25.1367C16.8577 27.2491 15.3709 29.4648 13.292 29.4648C11.1457 29.4648 9.74287 27.1092 10.5375 25.0838C11.3733 22.953 14.0053 22.4311 15.4736 24.1142C15.7352 24.4139 15.9364 24.7546 16.0774 25.1367ZM14.0728 28.1821C14.285 28.0562 14.4631 27.8916 14.6058 27.689L14.0728 28.1821Z" fill="#F8F7F7"/>
<path d="M21.1496 26.8291L18.263 23.175H17.0996V29.3625H18.5621V25.833L21.4627 29.3625H22.6121V23.175H21.1496V26.8291Z" fill="#0827C4"/>
<path fill-rule="evenodd" clip-rule="evenodd" d="M21.3496 27.4049L18.1661 23.375H17.2996V29.1625H18.3621V25.2746L21.5572 29.1625H22.4121V23.375H21.3496V27.4049ZM21.1496 23.175H22.6121V29.3625H21.4627L18.5621 25.833V29.3625H17.0996V23.175H18.263L21.1496 26.8291V23.175Z" fill="#F8F7F7"/>
<path d="M25.3121 23.175H23.8496V29.3625H28.3496V28.125H25.3121V23.175Z" fill="#0827C4"/>
<path fill-rule="evenodd" clip-rule="evenodd" d="M25.1121 28.325V23.375H24.0496V29.1625H28.1496V28.325H25.1121ZM28.3496 28.125V29.3625H23.8496V23.175H25.3121V28.125H28.3496Z" fill="#F8F7F7"/>
<path d="M29.0254 23.175H30.4879V29.3625H29.0254V23.175Z" fill="#0827C4"/>
<path fill-rule="evenodd" clip-rule="evenodd" d="M30.2879 23.375H29.2254V29.1625H30.2879V23.375ZM29.0254 23.175V29.3625H30.4879V23.175H29.0254Z" fill="#F8F7F7"/>
<path d="M35.6633 26.8291L32.7904 23.175H31.6133V29.3625H33.0758V25.833L35.99 29.3625H37.1258V23.175H35.6633V26.8291Z" fill="#0827C4"/>
<path fill-rule="evenodd" clip-rule="evenodd" d="M35.8633 27.407L32.6932 23.375H31.8133V29.1625H32.8758V25.2766L36.0842 29.1625H36.9258V23.375H35.8633V27.407ZM35.6633 23.175H37.1258V29.3625H35.99L33.0758 25.833V29.3625H31.6133V23.175H32.7904L35.6633 26.8291V23.175Z" fill="#F8F7F7"/>
<path d="M39.8258 26.775H42.3008V25.65H39.8258V24.4125H42.6383V23.175H38.3633V29.3625H42.7508V28.125H39.8258V26.775Z" fill="#0827C4"/>
<path fill-rule="evenodd" clip-rule="evenodd" d="M39.6258 26.575H42.1008V25.85H39.6258V24.2125H42.4383V23.375H38.5633V29.1625H42.5508V28.325H39.6258V26.575ZM42.7508 28.125V29.3625H38.3633V23.175H42.6383V24.4125H39.8258V25.65H42.3008V26.775H39.8258V28.125H42.7508Z" fill="#F8F7F7"/>
</svg>
